<mxfile host="Electron" agent="Mozilla/5.0 (Windows NT 10.0; Win64; x64) AppleWebKit/537.36 (KHTML, like Gecko) draw.io/24.5.3 Chrome/124.0.6367.207 Electron/30.0.6 Safari/537.36" modified="2024-12-10T22:07:33.840Z" version="24.5.3" etag="8MRRIpNrncXtf_xZP5Z6" type="device">
  <diagram id="C5RBs43oDa-KdzZeNtuy" name="Page-1">
    <mxGraphModel dx="3020" dy="3142" grid="1" gridSize="10" guides="1" tooltips="1" connect="1" arrows="1" fold="1" page="1" pageScale="1" pageWidth="827" pageHeight="1169" math="0" shadow="0">
      <root>
        <mxCell id="WIyWlLk6GJQsqaUBKTNV-0" />
        <mxCell id="WIyWlLk6GJQsqaUBKTNV-1" parent="WIyWlLk6GJQsqaUBKTNV-0" />
        <mxCell id="e77cdDmP9BwfHs4r40R--40" style="edgeStyle=orthogonalEdgeStyle;rounded=0;orthogonalLoop=1;jettySize=auto;html=1;exitX=0;exitY=0.5;exitDx=0;exitDy=0;entryX=1;entryY=0.5;entryDx=0;entryDy=0;" parent="WIyWlLk6GJQsqaUBKTNV-1" source="e77cdDmP9BwfHs4r40R--48" target="e77cdDmP9BwfHs4r40R--75" edge="1">
          <mxGeometry relative="1" as="geometry" />
        </mxCell>
        <mxCell id="e77cdDmP9BwfHs4r40R--41" value="Осуществляет" style="edgeLabel;html=1;align=center;verticalAlign=middle;resizable=0;points=[];" parent="e77cdDmP9BwfHs4r40R--40" vertex="1" connectable="0">
          <mxGeometry x="0.4833" y="3" relative="1" as="geometry">
            <mxPoint x="26" y="-13" as="offset" />
          </mxGeometry>
        </mxCell>
        <mxCell id="e77cdDmP9BwfHs4r40R--42" style="edgeStyle=orthogonalEdgeStyle;rounded=0;orthogonalLoop=1;jettySize=auto;html=1;exitX=0;exitY=0.75;exitDx=0;exitDy=0;entryX=1;entryY=0.5;entryDx=0;entryDy=0;" parent="WIyWlLk6GJQsqaUBKTNV-1" source="e77cdDmP9BwfHs4r40R--48" target="e77cdDmP9BwfHs4r40R--61" edge="1">
          <mxGeometry relative="1" as="geometry">
            <Array as="points">
              <mxPoint x="1230" y="200" />
              <mxPoint x="1230" y="270" />
            </Array>
          </mxGeometry>
        </mxCell>
        <mxCell id="e77cdDmP9BwfHs4r40R--43" value="Оставляет" style="edgeLabel;html=1;align=center;verticalAlign=middle;resizable=0;points=[];" parent="e77cdDmP9BwfHs4r40R--42" vertex="1" connectable="0">
          <mxGeometry x="0.8188" y="1" relative="1" as="geometry">
            <mxPoint x="25" y="-11" as="offset" />
          </mxGeometry>
        </mxCell>
        <mxCell id="e77cdDmP9BwfHs4r40R--44" style="edgeStyle=orthogonalEdgeStyle;rounded=0;orthogonalLoop=1;jettySize=auto;html=1;exitX=0.25;exitY=1;exitDx=0;exitDy=0;entryX=1;entryY=0.5;entryDx=0;entryDy=0;" parent="WIyWlLk6GJQsqaUBKTNV-1" source="e77cdDmP9BwfHs4r40R--48" target="e77cdDmP9BwfHs4r40R--78" edge="1">
          <mxGeometry relative="1" as="geometry" />
        </mxCell>
        <mxCell id="e77cdDmP9BwfHs4r40R--45" value="Подписывает" style="edgeLabel;html=1;align=center;verticalAlign=middle;resizable=0;points=[];" parent="e77cdDmP9BwfHs4r40R--44" vertex="1" connectable="0">
          <mxGeometry x="0.7707" relative="1" as="geometry">
            <mxPoint x="36" y="-10" as="offset" />
          </mxGeometry>
        </mxCell>
        <mxCell id="e77cdDmP9BwfHs4r40R--46" style="edgeStyle=orthogonalEdgeStyle;rounded=0;orthogonalLoop=1;jettySize=auto;html=1;exitX=0.5;exitY=1;exitDx=0;exitDy=0;entryX=1;entryY=0.25;entryDx=0;entryDy=0;" parent="WIyWlLk6GJQsqaUBKTNV-1" source="e77cdDmP9BwfHs4r40R--48" target="e77cdDmP9BwfHs4r40R--58" edge="1">
          <mxGeometry relative="1" as="geometry" />
        </mxCell>
        <mxCell id="e77cdDmP9BwfHs4r40R--47" value="Покупает" style="edgeLabel;html=1;align=center;verticalAlign=middle;resizable=0;points=[];" parent="e77cdDmP9BwfHs4r40R--46" vertex="1" connectable="0">
          <mxGeometry x="0.5021" y="-1" relative="1" as="geometry">
            <mxPoint x="13" y="-9" as="offset" />
          </mxGeometry>
        </mxCell>
        <mxCell id="e77cdDmP9BwfHs4r40R--48" value="Клиент" style="whiteSpace=wrap;html=1;align=center;" parent="WIyWlLk6GJQsqaUBKTNV-1" vertex="1">
          <mxGeometry x="1260" y="170" width="100" height="40" as="geometry" />
        </mxCell>
        <mxCell id="e77cdDmP9BwfHs4r40R--49" style="edgeStyle=orthogonalEdgeStyle;rounded=0;orthogonalLoop=1;jettySize=auto;html=1;exitX=0;exitY=0.25;exitDx=0;exitDy=0;entryX=1;entryY=0.75;entryDx=0;entryDy=0;" parent="WIyWlLk6GJQsqaUBKTNV-1" source="e77cdDmP9BwfHs4r40R--53" target="e77cdDmP9BwfHs4r40R--58" edge="1">
          <mxGeometry relative="1" as="geometry" />
        </mxCell>
        <mxCell id="e77cdDmP9BwfHs4r40R--50" value="Устанавливает" style="edgeLabel;html=1;align=center;verticalAlign=middle;resizable=0;points=[];" parent="e77cdDmP9BwfHs4r40R--49" vertex="1" connectable="0">
          <mxGeometry x="0.4118" y="3" relative="1" as="geometry">
            <mxPoint x="15" y="-13" as="offset" />
          </mxGeometry>
        </mxCell>
        <mxCell id="e77cdDmP9BwfHs4r40R--51" style="edgeStyle=orthogonalEdgeStyle;rounded=0;orthogonalLoop=1;jettySize=auto;html=1;exitX=0.5;exitY=1;exitDx=0;exitDy=0;entryX=1;entryY=0.5;entryDx=0;entryDy=0;" parent="WIyWlLk6GJQsqaUBKTNV-1" source="e77cdDmP9BwfHs4r40R--53" target="e77cdDmP9BwfHs4r40R--79" edge="1">
          <mxGeometry relative="1" as="geometry" />
        </mxCell>
        <mxCell id="e77cdDmP9BwfHs4r40R--52" value="Выполняет" style="edgeLabel;html=1;align=center;verticalAlign=middle;resizable=0;points=[];" parent="e77cdDmP9BwfHs4r40R--51" vertex="1" connectable="0">
          <mxGeometry x="-0.0353" y="2" relative="1" as="geometry">
            <mxPoint x="-28" y="-12" as="offset" />
          </mxGeometry>
        </mxCell>
        <mxCell id="e77cdDmP9BwfHs4r40R--53" value="Бригада монтажников" style="whiteSpace=wrap;html=1;align=center;" parent="WIyWlLk6GJQsqaUBKTNV-1" vertex="1">
          <mxGeometry x="1210" y="430" width="100" height="40" as="geometry" />
        </mxCell>
        <mxCell id="e77cdDmP9BwfHs4r40R--54" style="edgeStyle=orthogonalEdgeStyle;rounded=0;orthogonalLoop=1;jettySize=auto;html=1;exitX=0;exitY=0.75;exitDx=0;exitDy=0;entryX=1;entryY=0.25;entryDx=0;entryDy=0;" parent="WIyWlLk6GJQsqaUBKTNV-1" source="e77cdDmP9BwfHs4r40R--58" target="e77cdDmP9BwfHs4r40R--59" edge="1">
          <mxGeometry relative="1" as="geometry" />
        </mxCell>
        <mxCell id="e77cdDmP9BwfHs4r40R--55" value="Находится на" style="edgeLabel;html=1;align=center;verticalAlign=middle;resizable=0;points=[];" parent="e77cdDmP9BwfHs4r40R--54" vertex="1" connectable="0">
          <mxGeometry x="0.2933" relative="1" as="geometry">
            <mxPoint x="12" y="-10" as="offset" />
          </mxGeometry>
        </mxCell>
        <mxCell id="e77cdDmP9BwfHs4r40R--56" style="edgeStyle=orthogonalEdgeStyle;rounded=0;orthogonalLoop=1;jettySize=auto;html=1;exitX=0.5;exitY=1;exitDx=0;exitDy=0;entryX=0.5;entryY=0;entryDx=0;entryDy=0;" parent="WIyWlLk6GJQsqaUBKTNV-1" source="e77cdDmP9BwfHs4r40R--58" target="e77cdDmP9BwfHs4r40R--79" edge="1">
          <mxGeometry relative="1" as="geometry" />
        </mxCell>
        <mxCell id="e77cdDmP9BwfHs4r40R--57" value="Переходит на" style="edgeLabel;html=1;align=center;verticalAlign=middle;resizable=0;points=[];" parent="e77cdDmP9BwfHs4r40R--56" vertex="1" connectable="0">
          <mxGeometry x="-0.1" y="-1" relative="1" as="geometry">
            <mxPoint as="offset" />
          </mxGeometry>
        </mxCell>
        <mxCell id="e77cdDmP9BwfHs4r40R--58" value="Оборудование" style="whiteSpace=wrap;html=1;align=center;" parent="WIyWlLk6GJQsqaUBKTNV-1" vertex="1">
          <mxGeometry x="1030" y="410" width="100" height="40" as="geometry" />
        </mxCell>
        <mxCell id="e77cdDmP9BwfHs4r40R--59" value="Склад" style="whiteSpace=wrap;html=1;align=center;" parent="WIyWlLk6GJQsqaUBKTNV-1" vertex="1">
          <mxGeometry x="850" y="430" width="100" height="40" as="geometry" />
        </mxCell>
        <mxCell id="e77cdDmP9BwfHs4r40R--60" value="Содержит" style="edgeStyle=orthogonalEdgeStyle;rounded=0;orthogonalLoop=1;jettySize=auto;html=1;exitX=0.5;exitY=1;exitDx=0;exitDy=0;" parent="WIyWlLk6GJQsqaUBKTNV-1" source="e77cdDmP9BwfHs4r40R--61" target="e77cdDmP9BwfHs4r40R--78" edge="1">
          <mxGeometry relative="1" as="geometry" />
        </mxCell>
        <mxCell id="e77cdDmP9BwfHs4r40R--61" value="Заявка" style="whiteSpace=wrap;html=1;align=center;" parent="WIyWlLk6GJQsqaUBKTNV-1" vertex="1">
          <mxGeometry x="1030" y="250" width="100" height="40" as="geometry" />
        </mxCell>
        <mxCell id="e77cdDmP9BwfHs4r40R--62" style="edgeStyle=orthogonalEdgeStyle;rounded=0;orthogonalLoop=1;jettySize=auto;html=1;exitX=1;exitY=0.5;exitDx=0;exitDy=0;entryX=0;entryY=0.5;entryDx=0;entryDy=0;" parent="WIyWlLk6GJQsqaUBKTNV-1" source="e77cdDmP9BwfHs4r40R--72" target="e77cdDmP9BwfHs4r40R--75" edge="1">
          <mxGeometry relative="1" as="geometry" />
        </mxCell>
        <mxCell id="e77cdDmP9BwfHs4r40R--63" value="Обрабатывает" style="edgeLabel;html=1;align=center;verticalAlign=middle;resizable=0;points=[];" parent="e77cdDmP9BwfHs4r40R--62" vertex="1" connectable="0">
          <mxGeometry x="-0.2762" y="4" relative="1" as="geometry">
            <mxPoint x="13" y="-6" as="offset" />
          </mxGeometry>
        </mxCell>
        <mxCell id="e77cdDmP9BwfHs4r40R--64" style="edgeStyle=orthogonalEdgeStyle;rounded=0;orthogonalLoop=1;jettySize=auto;html=1;exitX=0.5;exitY=1;exitDx=0;exitDy=0;entryX=0;entryY=0.25;entryDx=0;entryDy=0;" parent="WIyWlLk6GJQsqaUBKTNV-1" source="e77cdDmP9BwfHs4r40R--72" target="e77cdDmP9BwfHs4r40R--58" edge="1">
          <mxGeometry relative="1" as="geometry" />
        </mxCell>
        <mxCell id="e77cdDmP9BwfHs4r40R--65" value="Продает" style="edgeLabel;html=1;align=center;verticalAlign=middle;resizable=0;points=[];" parent="e77cdDmP9BwfHs4r40R--64" vertex="1" connectable="0">
          <mxGeometry x="0.7191" y="2" relative="1" as="geometry">
            <mxPoint x="-24" y="-8" as="offset" />
          </mxGeometry>
        </mxCell>
        <mxCell id="e77cdDmP9BwfHs4r40R--66" style="edgeStyle=orthogonalEdgeStyle;rounded=0;orthogonalLoop=1;jettySize=auto;html=1;exitX=1;exitY=0.75;exitDx=0;exitDy=0;entryX=0;entryY=0.5;entryDx=0;entryDy=0;" parent="WIyWlLk6GJQsqaUBKTNV-1" source="e77cdDmP9BwfHs4r40R--72" target="e77cdDmP9BwfHs4r40R--61" edge="1">
          <mxGeometry relative="1" as="geometry">
            <Array as="points">
              <mxPoint x="930" y="200" />
              <mxPoint x="930" y="270" />
            </Array>
          </mxGeometry>
        </mxCell>
        <mxCell id="e77cdDmP9BwfHs4r40R--67" value="Контролирует" style="edgeLabel;html=1;align=center;verticalAlign=middle;resizable=0;points=[];" parent="e77cdDmP9BwfHs4r40R--66" vertex="1" connectable="0">
          <mxGeometry x="0.4643" y="2" relative="1" as="geometry">
            <mxPoint x="4" y="-8" as="offset" />
          </mxGeometry>
        </mxCell>
        <mxCell id="e77cdDmP9BwfHs4r40R--68" style="edgeStyle=orthogonalEdgeStyle;rounded=0;orthogonalLoop=1;jettySize=auto;html=1;exitX=0.75;exitY=1;exitDx=0;exitDy=0;entryX=0;entryY=0.5;entryDx=0;entryDy=0;" parent="WIyWlLk6GJQsqaUBKTNV-1" source="e77cdDmP9BwfHs4r40R--72" target="e77cdDmP9BwfHs4r40R--78" edge="1">
          <mxGeometry relative="1" as="geometry" />
        </mxCell>
        <mxCell id="e77cdDmP9BwfHs4r40R--69" value="Создает" style="edgeLabel;html=1;align=center;verticalAlign=middle;resizable=0;points=[];" parent="e77cdDmP9BwfHs4r40R--68" vertex="1" connectable="0">
          <mxGeometry x="0.504" y="-2" relative="1" as="geometry">
            <mxPoint x="-7" y="-12" as="offset" />
          </mxGeometry>
        </mxCell>
        <mxCell id="e77cdDmP9BwfHs4r40R--70" style="edgeStyle=orthogonalEdgeStyle;rounded=0;orthogonalLoop=1;jettySize=auto;html=1;exitX=0.25;exitY=1;exitDx=0;exitDy=0;entryX=0;entryY=0.5;entryDx=0;entryDy=0;" parent="WIyWlLk6GJQsqaUBKTNV-1" source="e77cdDmP9BwfHs4r40R--72" target="e77cdDmP9BwfHs4r40R--79" edge="1">
          <mxGeometry relative="1" as="geometry" />
        </mxCell>
        <mxCell id="e77cdDmP9BwfHs4r40R--71" value="Контролирует" style="edgeLabel;html=1;align=center;verticalAlign=middle;resizable=0;points=[];" parent="e77cdDmP9BwfHs4r40R--70" vertex="1" connectable="0">
          <mxGeometry x="0.5125" y="1" relative="1" as="geometry">
            <mxPoint x="23" y="-9" as="offset" />
          </mxGeometry>
        </mxCell>
        <mxCell id="e77cdDmP9BwfHs4r40R--72" value="Менеджер" style="whiteSpace=wrap;html=1;align=center;" parent="WIyWlLk6GJQsqaUBKTNV-1" vertex="1">
          <mxGeometry x="800" y="170" width="100" height="40" as="geometry" />
        </mxCell>
        <mxCell id="e77cdDmP9BwfHs4r40R--73" style="edgeStyle=orthogonalEdgeStyle;rounded=0;orthogonalLoop=1;jettySize=auto;html=1;exitX=0.5;exitY=1;exitDx=0;exitDy=0;entryX=0.5;entryY=0;entryDx=0;entryDy=0;" parent="WIyWlLk6GJQsqaUBKTNV-1" source="e77cdDmP9BwfHs4r40R--75" target="e77cdDmP9BwfHs4r40R--61" edge="1">
          <mxGeometry relative="1" as="geometry" />
        </mxCell>
        <mxCell id="e77cdDmP9BwfHs4r40R--74" value="Переходит в" style="edgeLabel;html=1;align=center;verticalAlign=middle;resizable=0;points=[];" parent="e77cdDmP9BwfHs4r40R--73" vertex="1" connectable="0">
          <mxGeometry x="-0.3" y="4" relative="1" as="geometry">
            <mxPoint as="offset" />
          </mxGeometry>
        </mxCell>
        <mxCell id="e77cdDmP9BwfHs4r40R--75" value="Звонок" style="whiteSpace=wrap;html=1;align=center;" parent="WIyWlLk6GJQsqaUBKTNV-1" vertex="1">
          <mxGeometry x="1030" y="170" width="100" height="40" as="geometry" />
        </mxCell>
        <mxCell id="e77cdDmP9BwfHs4r40R--76" style="edgeStyle=orthogonalEdgeStyle;rounded=0;orthogonalLoop=1;jettySize=auto;html=1;exitX=0.5;exitY=1;exitDx=0;exitDy=0;entryX=0.5;entryY=0;entryDx=0;entryDy=0;" parent="WIyWlLk6GJQsqaUBKTNV-1" source="e77cdDmP9BwfHs4r40R--78" target="e77cdDmP9BwfHs4r40R--58" edge="1">
          <mxGeometry relative="1" as="geometry" />
        </mxCell>
        <mxCell id="e77cdDmP9BwfHs4r40R--77" value="Содержит" style="edgeLabel;html=1;align=center;verticalAlign=middle;resizable=0;points=[];" parent="e77cdDmP9BwfHs4r40R--76" vertex="1" connectable="0">
          <mxGeometry x="-0.35" y="2" relative="1" as="geometry">
            <mxPoint as="offset" />
          </mxGeometry>
        </mxCell>
        <mxCell id="e77cdDmP9BwfHs4r40R--78" value="Договор" style="whiteSpace=wrap;html=1;align=center;" parent="WIyWlLk6GJQsqaUBKTNV-1" vertex="1">
          <mxGeometry x="1030" y="330" width="100" height="40" as="geometry" />
        </mxCell>
        <mxCell id="e77cdDmP9BwfHs4r40R--79" value="Обслуживание" style="whiteSpace=wrap;html=1;align=center;" parent="WIyWlLk6GJQsqaUBKTNV-1" vertex="1">
          <mxGeometry x="1030" y="490" width="100" height="40" as="geometry" />
        </mxCell>
        <mxCell id="e77cdDmP9BwfHs4r40R--80" value="Менеджер" style="swimlane;fontStyle=1;align=center;verticalAlign=top;childLayout=stackLayout;horizontal=1;startSize=26;horizontalStack=0;resizeParent=1;resizeParentMax=0;resizeLast=0;collapsible=1;marginBottom=0;whiteSpace=wrap;html=1;" parent="WIyWlLk6GJQsqaUBKTNV-1" vertex="1">
          <mxGeometry x="300" y="320" width="160" height="130" as="geometry" />
        </mxCell>
        <mxCell id="e77cdDmP9BwfHs4r40R--81" value="ID пользователя" style="text;strokeColor=none;fillColor=none;align=left;verticalAlign=top;spacingLeft=4;spacingRight=4;overflow=hidden;rotatable=0;points=[[0,0.5],[1,0.5]];portConstraint=eastwest;whiteSpace=wrap;html=1;" parent="e77cdDmP9BwfHs4r40R--80" vertex="1">
          <mxGeometry y="26" width="160" height="26" as="geometry" />
        </mxCell>
        <mxCell id="e77cdDmP9BwfHs4r40R--82" value="" style="line;strokeWidth=1;fillColor=none;align=left;verticalAlign=middle;spacingTop=-1;spacingLeft=3;spacingRight=3;rotatable=0;labelPosition=right;points=[];portConstraint=eastwest;strokeColor=inherit;" parent="e77cdDmP9BwfHs4r40R--80" vertex="1">
          <mxGeometry y="52" width="160" height="8" as="geometry" />
        </mxCell>
        <mxCell id="e77cdDmP9BwfHs4r40R--83" value="ФИО сотрудника&lt;div&gt;Логин&lt;/div&gt;&lt;div&gt;Пароль&lt;/div&gt;&lt;div&gt;Права доступа&lt;/div&gt;" style="text;strokeColor=none;fillColor=none;align=left;verticalAlign=top;spacingLeft=4;spacingRight=4;overflow=hidden;rotatable=0;points=[[0,0.5],[1,0.5]];portConstraint=eastwest;whiteSpace=wrap;html=1;" parent="e77cdDmP9BwfHs4r40R--80" vertex="1">
          <mxGeometry y="60" width="160" height="70" as="geometry" />
        </mxCell>
        <mxCell id="e77cdDmP9BwfHs4r40R--84" value="Мастер" style="swimlane;fontStyle=1;align=center;verticalAlign=top;childLayout=stackLayout;horizontal=1;startSize=26;horizontalStack=0;resizeParent=1;resizeParentMax=0;resizeLast=0;collapsible=1;marginBottom=0;whiteSpace=wrap;html=1;" parent="WIyWlLk6GJQsqaUBKTNV-1" vertex="1">
          <mxGeometry x="300" y="500" width="160" height="130" as="geometry" />
        </mxCell>
        <mxCell id="e77cdDmP9BwfHs4r40R--85" value="ID пользователя" style="text;strokeColor=none;fillColor=none;align=left;verticalAlign=top;spacingLeft=4;spacingRight=4;overflow=hidden;rotatable=0;points=[[0,0.5],[1,0.5]];portConstraint=eastwest;whiteSpace=wrap;html=1;" parent="e77cdDmP9BwfHs4r40R--84" vertex="1">
          <mxGeometry y="26" width="160" height="26" as="geometry" />
        </mxCell>
        <mxCell id="e77cdDmP9BwfHs4r40R--86" value="" style="line;strokeWidth=1;fillColor=none;align=left;verticalAlign=middle;spacingTop=-1;spacingLeft=3;spacingRight=3;rotatable=0;labelPosition=right;points=[];portConstraint=eastwest;strokeColor=inherit;" parent="e77cdDmP9BwfHs4r40R--84" vertex="1">
          <mxGeometry y="52" width="160" height="8" as="geometry" />
        </mxCell>
        <mxCell id="e77cdDmP9BwfHs4r40R--87" value="ФИО сотрудника&lt;div&gt;Логин&lt;/div&gt;&lt;div&gt;Пароль&lt;/div&gt;&lt;div&gt;Права доступа&lt;/div&gt;" style="text;strokeColor=none;fillColor=none;align=left;verticalAlign=top;spacingLeft=4;spacingRight=4;overflow=hidden;rotatable=0;points=[[0,0.5],[1,0.5]];portConstraint=eastwest;whiteSpace=wrap;html=1;" parent="e77cdDmP9BwfHs4r40R--84" vertex="1">
          <mxGeometry y="60" width="160" height="70" as="geometry" />
        </mxCell>
        <mxCell id="e77cdDmP9BwfHs4r40R--88" value="Клиент" style="swimlane;fontStyle=1;align=center;verticalAlign=top;childLayout=stackLayout;horizontal=1;startSize=26;horizontalStack=0;resizeParent=1;resizeParentMax=0;resizeLast=0;collapsible=1;marginBottom=0;whiteSpace=wrap;html=1;" parent="WIyWlLk6GJQsqaUBKTNV-1" vertex="1">
          <mxGeometry x="510" y="320" width="160" height="130" as="geometry" />
        </mxCell>
        <mxCell id="e77cdDmP9BwfHs4r40R--89" value="ID клиента" style="text;strokeColor=none;fillColor=none;align=left;verticalAlign=top;spacingLeft=4;spacingRight=4;overflow=hidden;rotatable=0;points=[[0,0.5],[1,0.5]];portConstraint=eastwest;whiteSpace=wrap;html=1;" parent="e77cdDmP9BwfHs4r40R--88" vertex="1">
          <mxGeometry y="26" width="160" height="26" as="geometry" />
        </mxCell>
        <mxCell id="e77cdDmP9BwfHs4r40R--90" value="" style="line;strokeWidth=1;fillColor=none;align=left;verticalAlign=middle;spacingTop=-1;spacingLeft=3;spacingRight=3;rotatable=0;labelPosition=right;points=[];portConstraint=eastwest;strokeColor=inherit;" parent="e77cdDmP9BwfHs4r40R--88" vertex="1">
          <mxGeometry y="52" width="160" height="8" as="geometry" />
        </mxCell>
        <mxCell id="e77cdDmP9BwfHs4r40R--91" value="ФИО клиента&lt;div&gt;Адрес&lt;/div&gt;&lt;div&gt;Комментарии&lt;/div&gt;" style="text;strokeColor=none;fillColor=none;align=left;verticalAlign=top;spacingLeft=4;spacingRight=4;overflow=hidden;rotatable=0;points=[[0,0.5],[1,0.5]];portConstraint=eastwest;whiteSpace=wrap;html=1;" parent="e77cdDmP9BwfHs4r40R--88" vertex="1">
          <mxGeometry y="60" width="160" height="70" as="geometry" />
        </mxCell>
        <mxCell id="e77cdDmP9BwfHs4r40R--92" value="Контактное лицо" style="swimlane;fontStyle=1;align=center;verticalAlign=top;childLayout=stackLayout;horizontal=1;startSize=26;horizontalStack=0;resizeParent=1;resizeParentMax=0;resizeLast=0;collapsible=1;marginBottom=0;whiteSpace=wrap;html=1;" parent="WIyWlLk6GJQsqaUBKTNV-1" vertex="1">
          <mxGeometry x="510" y="500" width="160" height="130" as="geometry" />
        </mxCell>
        <mxCell id="e77cdDmP9BwfHs4r40R--93" value="ID контактного лица" style="text;strokeColor=none;fillColor=none;align=left;verticalAlign=top;spacingLeft=4;spacingRight=4;overflow=hidden;rotatable=0;points=[[0,0.5],[1,0.5]];portConstraint=eastwest;whiteSpace=wrap;html=1;" parent="e77cdDmP9BwfHs4r40R--92" vertex="1">
          <mxGeometry y="26" width="160" height="26" as="geometry" />
        </mxCell>
        <mxCell id="e77cdDmP9BwfHs4r40R--94" value="" style="line;strokeWidth=1;fillColor=none;align=left;verticalAlign=middle;spacingTop=-1;spacingLeft=3;spacingRight=3;rotatable=0;labelPosition=right;points=[];portConstraint=eastwest;strokeColor=inherit;" parent="e77cdDmP9BwfHs4r40R--92" vertex="1">
          <mxGeometry y="52" width="160" height="8" as="geometry" />
        </mxCell>
        <mxCell id="e77cdDmP9BwfHs4r40R--95" value="&lt;div&gt;ID клиента&lt;/div&gt;&lt;div&gt;Номер телефона&lt;/div&gt;" style="text;strokeColor=none;fillColor=none;align=left;verticalAlign=top;spacingLeft=4;spacingRight=4;overflow=hidden;rotatable=0;points=[[0,0.5],[1,0.5]];portConstraint=eastwest;whiteSpace=wrap;html=1;" parent="e77cdDmP9BwfHs4r40R--92" vertex="1">
          <mxGeometry y="60" width="160" height="70" as="geometry" />
        </mxCell>
        <mxCell id="e77cdDmP9BwfHs4r40R--100" value="Заявка" style="swimlane;fontStyle=1;align=center;verticalAlign=top;childLayout=stackLayout;horizontal=1;startSize=26;horizontalStack=0;resizeParent=1;resizeParentMax=0;resizeLast=0;collapsible=1;marginBottom=0;whiteSpace=wrap;html=1;" parent="WIyWlLk6GJQsqaUBKTNV-1" vertex="1">
          <mxGeometry x="300" y="730" width="160" height="130" as="geometry" />
        </mxCell>
        <mxCell id="e77cdDmP9BwfHs4r40R--101" value="ID заявки" style="text;strokeColor=none;fillColor=none;align=left;verticalAlign=top;spacingLeft=4;spacingRight=4;overflow=hidden;rotatable=0;points=[[0,0.5],[1,0.5]];portConstraint=eastwest;whiteSpace=wrap;html=1;" parent="e77cdDmP9BwfHs4r40R--100" vertex="1">
          <mxGeometry y="26" width="160" height="26" as="geometry" />
        </mxCell>
        <mxCell id="e77cdDmP9BwfHs4r40R--102" value="" style="line;strokeWidth=1;fillColor=none;align=left;verticalAlign=middle;spacingTop=-1;spacingLeft=3;spacingRight=3;rotatable=0;labelPosition=right;points=[];portConstraint=eastwest;strokeColor=inherit;" parent="e77cdDmP9BwfHs4r40R--100" vertex="1">
          <mxGeometry y="52" width="160" height="8" as="geometry" />
        </mxCell>
        <mxCell id="e77cdDmP9BwfHs4r40R--103" value="&lt;div&gt;ID клиента&lt;/div&gt;&lt;div&gt;Содержание работ&lt;/div&gt;&lt;div&gt;Сроки выполнения&lt;/div&gt;&lt;div&gt;Комментарии&lt;/div&gt;" style="text;strokeColor=none;fillColor=none;align=left;verticalAlign=top;spacingLeft=4;spacingRight=4;overflow=hidden;rotatable=0;points=[[0,0.5],[1,0.5]];portConstraint=eastwest;whiteSpace=wrap;html=1;" parent="e77cdDmP9BwfHs4r40R--100" vertex="1">
          <mxGeometry y="60" width="160" height="70" as="geometry" />
        </mxCell>
        <mxCell id="e77cdDmP9BwfHs4r40R--104" value="Выполненные работы" style="swimlane;fontStyle=1;align=center;verticalAlign=top;childLayout=stackLayout;horizontal=1;startSize=26;horizontalStack=0;resizeParent=1;resizeParentMax=0;resizeLast=0;collapsible=1;marginBottom=0;whiteSpace=wrap;html=1;" parent="WIyWlLk6GJQsqaUBKTNV-1" vertex="1">
          <mxGeometry x="510" y="730" width="160" height="130" as="geometry" />
        </mxCell>
        <mxCell id="e77cdDmP9BwfHs4r40R--105" value="ID работы" style="text;strokeColor=none;fillColor=none;align=left;verticalAlign=top;spacingLeft=4;spacingRight=4;overflow=hidden;rotatable=0;points=[[0,0.5],[1,0.5]];portConstraint=eastwest;whiteSpace=wrap;html=1;" parent="e77cdDmP9BwfHs4r40R--104" vertex="1">
          <mxGeometry y="26" width="160" height="26" as="geometry" />
        </mxCell>
        <mxCell id="e77cdDmP9BwfHs4r40R--106" value="" style="line;strokeWidth=1;fillColor=none;align=left;verticalAlign=middle;spacingTop=-1;spacingLeft=3;spacingRight=3;rotatable=0;labelPosition=right;points=[];portConstraint=eastwest;strokeColor=inherit;" parent="e77cdDmP9BwfHs4r40R--104" vertex="1">
          <mxGeometry y="52" width="160" height="8" as="geometry" />
        </mxCell>
        <mxCell id="e77cdDmP9BwfHs4r40R--107" value="&lt;div&gt;ID заявки&lt;/div&gt;&lt;div&gt;Дата выполнения&lt;/div&gt;&lt;div&gt;Содержание работ&lt;/div&gt;&lt;div&gt;Плановая деятельность&lt;/div&gt;" style="text;strokeColor=none;fillColor=none;align=left;verticalAlign=top;spacingLeft=4;spacingRight=4;overflow=hidden;rotatable=0;points=[[0,0.5],[1,0.5]];portConstraint=eastwest;whiteSpace=wrap;html=1;" parent="e77cdDmP9BwfHs4r40R--104" vertex="1">
          <mxGeometry y="60" width="160" height="70" as="geometry" />
        </mxCell>
        <mxCell id="e77cdDmP9BwfHs4r40R--108" value="Договор" style="swimlane;fontStyle=1;align=center;verticalAlign=top;childLayout=stackLayout;horizontal=1;startSize=26;horizontalStack=0;resizeParent=1;resizeParentMax=0;resizeLast=0;collapsible=1;marginBottom=0;whiteSpace=wrap;html=1;" parent="WIyWlLk6GJQsqaUBKTNV-1" vertex="1">
          <mxGeometry x="300" y="890" width="160" height="150" as="geometry" />
        </mxCell>
        <mxCell id="e77cdDmP9BwfHs4r40R--109" value="ID договора" style="text;strokeColor=none;fillColor=none;align=left;verticalAlign=top;spacingLeft=4;spacingRight=4;overflow=hidden;rotatable=0;points=[[0,0.5],[1,0.5]];portConstraint=eastwest;whiteSpace=wrap;html=1;" parent="e77cdDmP9BwfHs4r40R--108" vertex="1">
          <mxGeometry y="26" width="160" height="26" as="geometry" />
        </mxCell>
        <mxCell id="e77cdDmP9BwfHs4r40R--110" value="" style="line;strokeWidth=1;fillColor=none;align=left;verticalAlign=middle;spacingTop=-1;spacingLeft=3;spacingRight=3;rotatable=0;labelPosition=right;points=[];portConstraint=eastwest;strokeColor=inherit;" parent="e77cdDmP9BwfHs4r40R--108" vertex="1">
          <mxGeometry y="52" width="160" height="8" as="geometry" />
        </mxCell>
        <mxCell id="e77cdDmP9BwfHs4r40R--111" value="&lt;div&gt;ID клиента&lt;/div&gt;&lt;div&gt;Дата договора&lt;/div&gt;&lt;div&gt;Свойства договора&lt;/div&gt;&lt;div&gt;ID поступления&lt;/div&gt;&lt;div&gt;ID отгрузки&lt;/div&gt;" style="text;strokeColor=none;fillColor=none;align=left;verticalAlign=top;spacingLeft=4;spacingRight=4;overflow=hidden;rotatable=0;points=[[0,0.5],[1,0.5]];portConstraint=eastwest;whiteSpace=wrap;html=1;" parent="e77cdDmP9BwfHs4r40R--108" vertex="1">
          <mxGeometry y="60" width="160" height="90" as="geometry" />
        </mxCell>
        <mxCell id="e77cdDmP9BwfHs4r40R--112" value="Оборудование" style="swimlane;fontStyle=1;align=center;verticalAlign=top;childLayout=stackLayout;horizontal=1;startSize=26;horizontalStack=0;resizeParent=1;resizeParentMax=0;resizeLast=0;collapsible=1;marginBottom=0;whiteSpace=wrap;html=1;" parent="WIyWlLk6GJQsqaUBKTNV-1" vertex="1">
          <mxGeometry x="510" y="890" width="160" height="130" as="geometry" />
        </mxCell>
        <mxCell id="e77cdDmP9BwfHs4r40R--113" value="ID товара" style="text;strokeColor=none;fillColor=none;align=left;verticalAlign=top;spacingLeft=4;spacingRight=4;overflow=hidden;rotatable=0;points=[[0,0.5],[1,0.5]];portConstraint=eastwest;whiteSpace=wrap;html=1;" parent="e77cdDmP9BwfHs4r40R--112" vertex="1">
          <mxGeometry y="26" width="160" height="26" as="geometry" />
        </mxCell>
        <mxCell id="e77cdDmP9BwfHs4r40R--114" value="" style="line;strokeWidth=1;fillColor=none;align=left;verticalAlign=middle;spacingTop=-1;spacingLeft=3;spacingRight=3;rotatable=0;labelPosition=right;points=[];portConstraint=eastwest;strokeColor=inherit;" parent="e77cdDmP9BwfHs4r40R--112" vertex="1">
          <mxGeometry y="52" width="160" height="8" as="geometry" />
        </mxCell>
        <mxCell id="e77cdDmP9BwfHs4r40R--115" value="&lt;div&gt;Номенклатура&lt;/div&gt;&lt;div&gt;Наименование&lt;/div&gt;&lt;div&gt;Стоимость&lt;/div&gt;&lt;div&gt;&lt;br&gt;&lt;/div&gt;" style="text;strokeColor=none;fillColor=none;align=left;verticalAlign=top;spacingLeft=4;spacingRight=4;overflow=hidden;rotatable=0;points=[[0,0.5],[1,0.5]];portConstraint=eastwest;whiteSpace=wrap;html=1;" parent="e77cdDmP9BwfHs4r40R--112" vertex="1">
          <mxGeometry y="60" width="160" height="70" as="geometry" />
        </mxCell>
        <mxCell id="e77cdDmP9BwfHs4r40R--116" value="Поступление" style="swimlane;fontStyle=1;align=center;verticalAlign=top;childLayout=stackLayout;horizontal=1;startSize=26;horizontalStack=0;resizeParent=1;resizeParentMax=0;resizeLast=0;collapsible=1;marginBottom=0;whiteSpace=wrap;html=1;" parent="WIyWlLk6GJQsqaUBKTNV-1" vertex="1">
          <mxGeometry x="300" y="1060" width="160" height="130" as="geometry" />
        </mxCell>
        <mxCell id="e77cdDmP9BwfHs4r40R--117" value="ID поступления" style="text;strokeColor=none;fillColor=none;align=left;verticalAlign=top;spacingLeft=4;spacingRight=4;overflow=hidden;rotatable=0;points=[[0,0.5],[1,0.5]];portConstraint=eastwest;whiteSpace=wrap;html=1;" parent="e77cdDmP9BwfHs4r40R--116" vertex="1">
          <mxGeometry y="26" width="160" height="26" as="geometry" />
        </mxCell>
        <mxCell id="e77cdDmP9BwfHs4r40R--118" value="" style="line;strokeWidth=1;fillColor=none;align=left;verticalAlign=middle;spacingTop=-1;spacingLeft=3;spacingRight=3;rotatable=0;labelPosition=right;points=[];portConstraint=eastwest;strokeColor=inherit;" parent="e77cdDmP9BwfHs4r40R--116" vertex="1">
          <mxGeometry y="52" width="160" height="8" as="geometry" />
        </mxCell>
        <mxCell id="e77cdDmP9BwfHs4r40R--119" value="&lt;div&gt;ID товаров&lt;/div&gt;&lt;div&gt;Дата&lt;/div&gt;&lt;div&gt;Стоимость товаров&lt;/div&gt;&lt;div&gt;&lt;br&gt;&lt;/div&gt;" style="text;strokeColor=none;fillColor=none;align=left;verticalAlign=top;spacingLeft=4;spacingRight=4;overflow=hidden;rotatable=0;points=[[0,0.5],[1,0.5]];portConstraint=eastwest;whiteSpace=wrap;html=1;" parent="e77cdDmP9BwfHs4r40R--116" vertex="1">
          <mxGeometry y="60" width="160" height="70" as="geometry" />
        </mxCell>
        <mxCell id="e77cdDmP9BwfHs4r40R--120" value="Отгрузка" style="swimlane;fontStyle=1;align=center;verticalAlign=top;childLayout=stackLayout;horizontal=1;startSize=26;horizontalStack=0;resizeParent=1;resizeParentMax=0;resizeLast=0;collapsible=1;marginBottom=0;whiteSpace=wrap;html=1;" parent="WIyWlLk6GJQsqaUBKTNV-1" vertex="1">
          <mxGeometry x="510" y="1060" width="160" height="130" as="geometry" />
        </mxCell>
        <mxCell id="e77cdDmP9BwfHs4r40R--121" value="ID отгрузки" style="text;strokeColor=none;fillColor=none;align=left;verticalAlign=top;spacingLeft=4;spacingRight=4;overflow=hidden;rotatable=0;points=[[0,0.5],[1,0.5]];portConstraint=eastwest;whiteSpace=wrap;html=1;" parent="e77cdDmP9BwfHs4r40R--120" vertex="1">
          <mxGeometry y="26" width="160" height="26" as="geometry" />
        </mxCell>
        <mxCell id="e77cdDmP9BwfHs4r40R--122" value="" style="line;strokeWidth=1;fillColor=none;align=left;verticalAlign=middle;spacingTop=-1;spacingLeft=3;spacingRight=3;rotatable=0;labelPosition=right;points=[];portConstraint=eastwest;strokeColor=inherit;" parent="e77cdDmP9BwfHs4r40R--120" vertex="1">
          <mxGeometry y="52" width="160" height="8" as="geometry" />
        </mxCell>
        <mxCell id="e77cdDmP9BwfHs4r40R--123" value="&lt;div&gt;ID товаров&lt;/div&gt;&lt;div&gt;ID клиента&lt;/div&gt;&lt;div&gt;Дата&lt;/div&gt;&lt;div&gt;Стоимость товаров&lt;/div&gt;&lt;div&gt;&lt;br&gt;&lt;/div&gt;" style="text;strokeColor=none;fillColor=none;align=left;verticalAlign=top;spacingLeft=4;spacingRight=4;overflow=hidden;rotatable=0;points=[[0,0.5],[1,0.5]];portConstraint=eastwest;whiteSpace=wrap;html=1;" parent="e77cdDmP9BwfHs4r40R--120" vertex="1">
          <mxGeometry y="60" width="160" height="70" as="geometry" />
        </mxCell>
        <mxCell id="--YtzrklkNBxloeXn2lH-77" value="ь" style="edgeStyle=orthogonalEdgeStyle;rounded=0;orthogonalLoop=1;jettySize=auto;html=1;exitX=0.5;exitY=1;exitDx=0;exitDy=0;entryX=0.5;entryY=0;entryDx=0;entryDy=0;endArrow=classic;endFill=1;" parent="WIyWlLk6GJQsqaUBKTNV-1" source="--YtzrklkNBxloeXn2lH-0" target="--YtzrklkNBxloeXn2lH-12" edge="1">
          <mxGeometry relative="1" as="geometry" />
        </mxCell>
        <mxCell id="--YtzrklkNBxloeXn2lH-0" value="Клиент" style="swimlane;fontStyle=1;align=center;verticalAlign=top;childLayout=stackLayout;horizontal=1;startSize=26;horizontalStack=0;resizeParent=1;resizeParentMax=0;resizeLast=0;collapsible=1;marginBottom=0;whiteSpace=wrap;html=1;" parent="WIyWlLk6GJQsqaUBKTNV-1" vertex="1">
          <mxGeometry x="-940" y="-200" width="300" height="164" as="geometry" />
        </mxCell>
        <mxCell id="--YtzrklkNBxloeXn2lH-30" value="+ intPhoneNumber: Integer" style="text;strokeColor=none;fillColor=none;align=left;verticalAlign=top;spacingLeft=4;spacingRight=4;overflow=hidden;rotatable=0;points=[[0,0.5],[1,0.5]];portConstraint=eastwest;whiteSpace=wrap;html=1;" parent="--YtzrklkNBxloeXn2lH-0" vertex="1">
          <mxGeometry y="26" width="300" height="26" as="geometry" />
        </mxCell>
        <mxCell id="--YtzrklkNBxloeXn2lH-1" value="+ strClientFirstName: String" style="text;strokeColor=none;fillColor=none;align=left;verticalAlign=top;spacingLeft=4;spacingRight=4;overflow=hidden;rotatable=0;points=[[0,0.5],[1,0.5]];portConstraint=eastwest;whiteSpace=wrap;html=1;" parent="--YtzrklkNBxloeXn2lH-0" vertex="1">
          <mxGeometry y="52" width="300" height="26" as="geometry" />
        </mxCell>
        <mxCell id="--YtzrklkNBxloeXn2lH-4" value="+ strClientLastName: String" style="text;strokeColor=none;fillColor=none;align=left;verticalAlign=top;spacingLeft=4;spacingRight=4;overflow=hidden;rotatable=0;points=[[0,0.5],[1,0.5]];portConstraint=eastwest;whiteSpace=wrap;html=1;" parent="--YtzrklkNBxloeXn2lH-0" vertex="1">
          <mxGeometry y="78" width="300" height="26" as="geometry" />
        </mxCell>
        <mxCell id="--YtzrklkNBxloeXn2lH-5" value="+ strClientPatronymic: String[0..1]" style="text;strokeColor=none;fillColor=none;align=left;verticalAlign=top;spacingLeft=4;spacingRight=4;overflow=hidden;rotatable=0;points=[[0,0.5],[1,0.5]];portConstraint=eastwest;whiteSpace=wrap;html=1;" parent="--YtzrklkNBxloeXn2lH-0" vertex="1">
          <mxGeometry y="104" width="300" height="26" as="geometry" />
        </mxCell>
        <mxCell id="--YtzrklkNBxloeXn2lH-2" value="" style="line;strokeWidth=1;fillColor=none;align=left;verticalAlign=middle;spacingTop=-1;spacingLeft=3;spacingRight=3;rotatable=0;labelPosition=right;points=[];portConstraint=eastwest;strokeColor=inherit;" parent="--YtzrklkNBxloeXn2lH-0" vertex="1">
          <mxGeometry y="130" width="300" height="8" as="geometry" />
        </mxCell>
        <mxCell id="--YtzrklkNBxloeXn2lH-205" value="+ checkExistingNumber(in num: Integer): Boolean" style="text;strokeColor=none;fillColor=none;align=left;verticalAlign=top;spacingLeft=4;spacingRight=4;overflow=hidden;rotatable=0;points=[[0,0.5],[1,0.5]];portConstraint=eastwest;whiteSpace=wrap;html=1;" parent="--YtzrklkNBxloeXn2lH-0" vertex="1">
          <mxGeometry y="138" width="300" height="26" as="geometry" />
        </mxCell>
        <mxCell id="--YtzrklkNBxloeXn2lH-12" value="Объект" style="swimlane;fontStyle=1;align=center;verticalAlign=top;childLayout=stackLayout;horizontal=1;startSize=26;horizontalStack=0;resizeParent=1;resizeParentMax=0;resizeLast=0;collapsible=1;marginBottom=0;whiteSpace=wrap;html=1;" parent="WIyWlLk6GJQsqaUBKTNV-1" vertex="1">
          <mxGeometry x="-915" y="80" width="250" height="112" as="geometry" />
        </mxCell>
        <mxCell id="--YtzrklkNBxloeXn2lH-13" value="+ strAddress: String" style="text;strokeColor=none;fillColor=none;align=left;verticalAlign=top;spacingLeft=4;spacingRight=4;overflow=hidden;rotatable=0;points=[[0,0.5],[1,0.5]];portConstraint=eastwest;whiteSpace=wrap;html=1;" parent="--YtzrklkNBxloeXn2lH-12" vertex="1">
          <mxGeometry y="26" width="250" height="26" as="geometry" />
        </mxCell>
        <mxCell id="--YtzrklkNBxloeXn2lH-14" value="" style="line;strokeWidth=1;fillColor=none;align=left;verticalAlign=middle;spacingTop=-1;spacingLeft=3;spacingRight=3;rotatable=0;labelPosition=right;points=[];portConstraint=eastwest;strokeColor=inherit;" parent="--YtzrklkNBxloeXn2lH-12" vertex="1">
          <mxGeometry y="52" width="250" height="8" as="geometry" />
        </mxCell>
        <mxCell id="--YtzrklkNBxloeXn2lH-15" value="+ RegisterNewOrder(out orderID): Integer" style="text;strokeColor=none;fillColor=none;align=left;verticalAlign=top;spacingLeft=4;spacingRight=4;overflow=hidden;rotatable=0;points=[[0,0.5],[1,0.5]];portConstraint=eastwest;whiteSpace=wrap;html=1;" parent="--YtzrklkNBxloeXn2lH-12" vertex="1">
          <mxGeometry y="60" width="250" height="26" as="geometry" />
        </mxCell>
        <mxCell id="--YtzrklkNBxloeXn2lH-31" value="+ RegisterNewClient(out clientID): Integer" style="text;strokeColor=none;fillColor=none;align=left;verticalAlign=top;spacingLeft=4;spacingRight=4;overflow=hidden;rotatable=0;points=[[0,0.5],[1,0.5]];portConstraint=eastwest;whiteSpace=wrap;html=1;" parent="--YtzrklkNBxloeXn2lH-12" vertex="1">
          <mxGeometry y="86" width="250" height="26" as="geometry" />
        </mxCell>
        <mxCell id="--YtzrklkNBxloeXn2lH-78" style="edgeStyle=orthogonalEdgeStyle;rounded=0;orthogonalLoop=1;jettySize=auto;html=1;exitX=0.5;exitY=0;exitDx=0;exitDy=0;entryX=0.5;entryY=1;entryDx=0;entryDy=0;endArrow=classic;endFill=1;startArrow=none;startFill=0;" parent="WIyWlLk6GJQsqaUBKTNV-1" source="--YtzrklkNBxloeXn2lH-16" target="--YtzrklkNBxloeXn2lH-12" edge="1">
          <mxGeometry relative="1" as="geometry" />
        </mxCell>
        <mxCell id="--YtzrklkNBxloeXn2lH-16" value="Заявка" style="swimlane;fontStyle=1;align=center;verticalAlign=top;childLayout=stackLayout;horizontal=1;startSize=26;horizontalStack=0;resizeParent=1;resizeParentMax=0;resizeLast=0;collapsible=1;marginBottom=0;whiteSpace=wrap;html=1;" parent="WIyWlLk6GJQsqaUBKTNV-1" vertex="1">
          <mxGeometry x="-990" y="300" width="400" height="216" as="geometry" />
        </mxCell>
        <mxCell id="--YtzrklkNBxloeXn2lH-20" value="+ strDescription: String" style="text;strokeColor=none;fillColor=none;align=left;verticalAlign=top;spacingLeft=4;spacingRight=4;overflow=hidden;rotatable=0;points=[[0,0.5],[1,0.5]];portConstraint=eastwest;whiteSpace=wrap;html=1;" parent="--YtzrklkNBxloeXn2lH-16" vertex="1">
          <mxGeometry y="26" width="400" height="26" as="geometry" />
        </mxCell>
        <mxCell id="--YtzrklkNBxloeXn2lH-22" value="+ statOrderStatus: OrderStatus" style="text;strokeColor=none;fillColor=none;align=left;verticalAlign=top;spacingLeft=4;spacingRight=4;overflow=hidden;rotatable=0;points=[[0,0.5],[1,0.5]];portConstraint=eastwest;whiteSpace=wrap;html=1;" parent="--YtzrklkNBxloeXn2lH-16" vertex="1">
          <mxGeometry y="52" width="400" height="26" as="geometry" />
        </mxCell>
        <mxCell id="--YtzrklkNBxloeXn2lH-21" value="+ datDeadline: Date" style="text;strokeColor=none;fillColor=none;align=left;verticalAlign=top;spacingLeft=4;spacingRight=4;overflow=hidden;rotatable=0;points=[[0,0.5],[1,0.5]];portConstraint=eastwest;whiteSpace=wrap;html=1;" parent="--YtzrklkNBxloeXn2lH-16" vertex="1">
          <mxGeometry y="78" width="400" height="26" as="geometry" />
        </mxCell>
        <mxCell id="--YtzrklkNBxloeXn2lH-207" value="- boolNeedsService: Boolean" style="text;strokeColor=none;fillColor=none;align=left;verticalAlign=top;spacingLeft=4;spacingRight=4;overflow=hidden;rotatable=0;points=[[0,0.5],[1,0.5]];portConstraint=eastwest;whiteSpace=wrap;html=1;" parent="--YtzrklkNBxloeXn2lH-16" vertex="1">
          <mxGeometry y="104" width="400" height="26" as="geometry" />
        </mxCell>
        <mxCell id="--YtzrklkNBxloeXn2lH-18" value="" style="line;strokeWidth=1;fillColor=none;align=left;verticalAlign=middle;spacingTop=-1;spacingLeft=3;spacingRight=3;rotatable=0;labelPosition=right;points=[];portConstraint=eastwest;strokeColor=inherit;" parent="--YtzrklkNBxloeXn2lH-16" vertex="1">
          <mxGeometry y="130" width="400" height="8" as="geometry" />
        </mxCell>
        <mxCell id="--YtzrklkNBxloeXn2lH-19" value="- UpdateStatus(in curDate: Date)" style="text;strokeColor=none;fillColor=none;align=left;verticalAlign=top;spacingLeft=4;spacingRight=4;overflow=hidden;rotatable=0;points=[[0,0.5],[1,0.5]];portConstraint=eastwest;whiteSpace=wrap;html=1;" parent="--YtzrklkNBxloeXn2lH-16" vertex="1">
          <mxGeometry y="138" width="400" height="26" as="geometry" />
        </mxCell>
        <mxCell id="--YtzrklkNBxloeXn2lH-70" value="+ AddJob(in dat: Date, in desc: String): Integer" style="text;strokeColor=none;fillColor=none;align=left;verticalAlign=top;spacingLeft=4;spacingRight=4;overflow=hidden;rotatable=0;points=[[0,0.5],[1,0.5]];portConstraint=eastwest;whiteSpace=wrap;html=1;" parent="--YtzrklkNBxloeXn2lH-16" vertex="1">
          <mxGeometry y="164" width="400" height="26" as="geometry" />
        </mxCell>
        <mxCell id="--YtzrklkNBxloeXn2lH-71" value="+ ExportReport(): File" style="text;strokeColor=none;fillColor=none;align=left;verticalAlign=top;spacingLeft=4;spacingRight=4;overflow=hidden;rotatable=0;points=[[0,0.5],[1,0.5]];portConstraint=eastwest;whiteSpace=wrap;html=1;" parent="--YtzrklkNBxloeXn2lH-16" vertex="1">
          <mxGeometry y="190" width="400" height="26" as="geometry" />
        </mxCell>
        <mxCell id="--YtzrklkNBxloeXn2lH-24" value="Работа по заказу" style="swimlane;fontStyle=1;align=center;verticalAlign=top;childLayout=stackLayout;horizontal=1;startSize=26;horizontalStack=0;resizeParent=1;resizeParentMax=0;resizeLast=0;collapsible=1;marginBottom=0;whiteSpace=wrap;html=1;" parent="WIyWlLk6GJQsqaUBKTNV-1" vertex="1">
          <mxGeometry x="-500" y="352" width="370" height="164" as="geometry" />
        </mxCell>
        <mxCell id="--YtzrklkNBxloeXn2lH-28" value="+ datJobDate: Date" style="text;strokeColor=none;fillColor=none;align=left;verticalAlign=top;spacingLeft=4;spacingRight=4;overflow=hidden;rotatable=0;points=[[0,0.5],[1,0.5]];portConstraint=eastwest;whiteSpace=wrap;html=1;" parent="--YtzrklkNBxloeXn2lH-24" vertex="1">
          <mxGeometry y="26" width="370" height="26" as="geometry" />
        </mxCell>
        <mxCell id="--YtzrklkNBxloeXn2lH-181" value="+ strJobCategory: Job" style="text;strokeColor=none;fillColor=none;align=left;verticalAlign=top;spacingLeft=4;spacingRight=4;overflow=hidden;rotatable=0;points=[[0,0.5],[1,0.5]];portConstraint=eastwest;whiteSpace=wrap;html=1;" parent="--YtzrklkNBxloeXn2lH-24" vertex="1">
          <mxGeometry y="52" width="370" height="26" as="geometry" />
        </mxCell>
        <mxCell id="--YtzrklkNBxloeXn2lH-29" value="+ strDescription: String" style="text;strokeColor=none;fillColor=none;align=left;verticalAlign=top;spacingLeft=4;spacingRight=4;overflow=hidden;rotatable=0;points=[[0,0.5],[1,0.5]];portConstraint=eastwest;whiteSpace=wrap;html=1;" parent="--YtzrklkNBxloeXn2lH-24" vertex="1">
          <mxGeometry y="78" width="370" height="26" as="geometry" />
        </mxCell>
        <mxCell id="--YtzrklkNBxloeXn2lH-32" value="+ statJobStatus: JobStatus" style="text;strokeColor=none;fillColor=none;align=left;verticalAlign=top;spacingLeft=4;spacingRight=4;overflow=hidden;rotatable=0;points=[[0,0.5],[1,0.5]];portConstraint=eastwest;whiteSpace=wrap;html=1;" parent="--YtzrklkNBxloeXn2lH-24" vertex="1">
          <mxGeometry y="104" width="370" height="26" as="geometry" />
        </mxCell>
        <mxCell id="--YtzrklkNBxloeXn2lH-26" value="" style="line;strokeWidth=1;fillColor=none;align=left;verticalAlign=middle;spacingTop=-1;spacingLeft=3;spacingRight=3;rotatable=0;labelPosition=right;points=[];portConstraint=eastwest;strokeColor=inherit;" parent="--YtzrklkNBxloeXn2lH-24" vertex="1">
          <mxGeometry y="130" width="370" height="8" as="geometry" />
        </mxCell>
        <mxCell id="--YtzrklkNBxloeXn2lH-27" value="- UpdateStatus(in curDate: Date)" style="text;strokeColor=none;fillColor=none;align=left;verticalAlign=top;spacingLeft=4;spacingRight=4;overflow=hidden;rotatable=0;points=[[0,0.5],[1,0.5]];portConstraint=eastwest;whiteSpace=wrap;html=1;" parent="--YtzrklkNBxloeXn2lH-24" vertex="1">
          <mxGeometry y="138" width="370" height="26" as="geometry" />
        </mxCell>
        <mxCell id="--YtzrklkNBxloeXn2lH-82" style="edgeStyle=orthogonalEdgeStyle;rounded=0;orthogonalLoop=1;jettySize=auto;html=1;exitX=0.5;exitY=1;exitDx=0;exitDy=0;endArrow=none;endFill=0;startArrow=classic;startFill=1;entryX=0.5;entryY=0;entryDx=0;entryDy=0;" parent="WIyWlLk6GJQsqaUBKTNV-1" source="--YtzrklkNBxloeXn2lH-33" edge="1" target="--YtzrklkNBxloeXn2lH-174">
          <mxGeometry relative="1" as="geometry">
            <mxPoint x="-1300" y="590" as="targetPoint" />
          </mxGeometry>
        </mxCell>
        <mxCell id="--YtzrklkNBxloeXn2lH-33" value="Контракт" style="swimlane;fontStyle=1;align=center;verticalAlign=top;childLayout=stackLayout;horizontal=1;startSize=26;horizontalStack=0;resizeParent=1;resizeParentMax=0;resizeLast=0;collapsible=1;marginBottom=0;whiteSpace=wrap;html=1;" parent="WIyWlLk6GJQsqaUBKTNV-1" vertex="1">
          <mxGeometry x="-1358" y="370" width="240" height="138" as="geometry" />
        </mxCell>
        <mxCell id="--YtzrklkNBxloeXn2lH-37" value="+ strContractNum: String" style="text;strokeColor=none;fillColor=none;align=left;verticalAlign=top;spacingLeft=4;spacingRight=4;overflow=hidden;rotatable=0;points=[[0,0.5],[1,0.5]];portConstraint=eastwest;whiteSpace=wrap;html=1;" parent="--YtzrklkNBxloeXn2lH-33" vertex="1">
          <mxGeometry y="26" width="240" height="26" as="geometry" />
        </mxCell>
        <mxCell id="--YtzrklkNBxloeXn2lH-38" value="+ datContractDate: Date" style="text;strokeColor=none;fillColor=none;align=left;verticalAlign=top;spacingLeft=4;spacingRight=4;overflow=hidden;rotatable=0;points=[[0,0.5],[1,0.5]];portConstraint=eastwest;whiteSpace=wrap;html=1;" parent="--YtzrklkNBxloeXn2lH-33" vertex="1">
          <mxGeometry y="52" width="240" height="26" as="geometry" />
        </mxCell>
        <mxCell id="--YtzrklkNBxloeXn2lH-39" value="+ lnkContractFile: File" style="text;strokeColor=none;fillColor=none;align=left;verticalAlign=top;spacingLeft=4;spacingRight=4;overflow=hidden;rotatable=0;points=[[0,0.5],[1,0.5]];portConstraint=eastwest;whiteSpace=wrap;html=1;" parent="--YtzrklkNBxloeXn2lH-33" vertex="1">
          <mxGeometry y="78" width="240" height="26" as="geometry" />
        </mxCell>
        <mxCell id="--YtzrklkNBxloeXn2lH-72" value="+ intOrderTotal: Integer" style="text;strokeColor=none;fillColor=none;align=left;verticalAlign=top;spacingLeft=4;spacingRight=4;overflow=hidden;rotatable=0;points=[[0,0.5],[1,0.5]];portConstraint=eastwest;whiteSpace=wrap;html=1;" parent="--YtzrklkNBxloeXn2lH-33" vertex="1">
          <mxGeometry y="104" width="240" height="26" as="geometry" />
        </mxCell>
        <mxCell id="--YtzrklkNBxloeXn2lH-35" value="" style="line;strokeWidth=1;fillColor=none;align=left;verticalAlign=middle;spacingTop=-1;spacingLeft=3;spacingRight=3;rotatable=0;labelPosition=right;points=[];portConstraint=eastwest;strokeColor=inherit;" parent="--YtzrklkNBxloeXn2lH-33" vertex="1">
          <mxGeometry y="130" width="240" height="8" as="geometry" />
        </mxCell>
        <mxCell id="--YtzrklkNBxloeXn2lH-41" value="Закупка" style="swimlane;fontStyle=1;align=center;verticalAlign=top;childLayout=stackLayout;horizontal=1;startSize=26;horizontalStack=0;resizeParent=1;resizeParentMax=0;resizeLast=0;collapsible=1;marginBottom=0;whiteSpace=wrap;html=1;" parent="WIyWlLk6GJQsqaUBKTNV-1" vertex="1">
          <mxGeometry x="-900" y="865" width="240" height="268" as="geometry" />
        </mxCell>
        <mxCell id="--YtzrklkNBxloeXn2lH-43" value="+ strContractNum: String" style="text;strokeColor=none;fillColor=none;align=left;verticalAlign=top;spacingLeft=4;spacingRight=4;overflow=hidden;rotatable=0;points=[[0,0.5],[1,0.5]];portConstraint=eastwest;whiteSpace=wrap;html=1;" parent="--YtzrklkNBxloeXn2lH-41" vertex="1">
          <mxGeometry y="26" width="240" height="26" as="geometry" />
        </mxCell>
        <mxCell id="--YtzrklkNBxloeXn2lH-44" value="+ datContractDate: Date" style="text;strokeColor=none;fillColor=none;align=left;verticalAlign=top;spacingLeft=4;spacingRight=4;overflow=hidden;rotatable=0;points=[[0,0.5],[1,0.5]];portConstraint=eastwest;whiteSpace=wrap;html=1;" parent="--YtzrklkNBxloeXn2lH-41" vertex="1">
          <mxGeometry y="52" width="240" height="26" as="geometry" />
        </mxCell>
        <mxCell id="--YtzrklkNBxloeXn2lH-45" value="+ lnkContractFile: File" style="text;strokeColor=none;fillColor=none;align=left;verticalAlign=top;spacingLeft=4;spacingRight=4;overflow=hidden;rotatable=0;points=[[0,0.5],[1,0.5]];portConstraint=eastwest;whiteSpace=wrap;html=1;" parent="--YtzrklkNBxloeXn2lH-41" vertex="1">
          <mxGeometry y="78" width="240" height="26" as="geometry" />
        </mxCell>
        <mxCell id="--YtzrklkNBxloeXn2lH-73" value="+ datOrderDate: Date" style="text;strokeColor=none;fillColor=none;align=left;verticalAlign=top;spacingLeft=4;spacingRight=4;overflow=hidden;rotatable=0;points=[[0,0.5],[1,0.5]];portConstraint=eastwest;whiteSpace=wrap;html=1;" parent="--YtzrklkNBxloeXn2lH-41" vertex="1">
          <mxGeometry y="104" width="240" height="26" as="geometry" />
        </mxCell>
        <mxCell id="--YtzrklkNBxloeXn2lH-74" value="+ intAmountType: Integer" style="text;strokeColor=none;fillColor=none;align=left;verticalAlign=top;spacingLeft=4;spacingRight=4;overflow=hidden;rotatable=0;points=[[0,0.5],[1,0.5]];portConstraint=eastwest;whiteSpace=wrap;html=1;" parent="--YtzrklkNBxloeXn2lH-41" vertex="1">
          <mxGeometry y="130" width="240" height="26" as="geometry" />
        </mxCell>
        <mxCell id="--YtzrklkNBxloeXn2lH-75" value="+ strAmountType: Type" style="text;strokeColor=none;fillColor=none;align=left;verticalAlign=top;spacingLeft=4;spacingRight=4;overflow=hidden;rotatable=0;points=[[0,0.5],[1,0.5]];portConstraint=eastwest;whiteSpace=wrap;html=1;" parent="--YtzrklkNBxloeXn2lH-41" vertex="1">
          <mxGeometry y="156" width="240" height="26" as="geometry" />
        </mxCell>
        <mxCell id="--YtzrklkNBxloeXn2lH-204" value="+ strSupplierName: String" style="text;strokeColor=none;fillColor=none;align=left;verticalAlign=top;spacingLeft=4;spacingRight=4;overflow=hidden;rotatable=0;points=[[0,0.5],[1,0.5]];portConstraint=eastwest;whiteSpace=wrap;html=1;" parent="--YtzrklkNBxloeXn2lH-41" vertex="1">
          <mxGeometry y="182" width="240" height="26" as="geometry" />
        </mxCell>
        <mxCell id="--YtzrklkNBxloeXn2lH-76" value="+ intOrderTotal: Integer" style="text;strokeColor=none;fillColor=none;align=left;verticalAlign=top;spacingLeft=4;spacingRight=4;overflow=hidden;rotatable=0;points=[[0,0.5],[1,0.5]];portConstraint=eastwest;whiteSpace=wrap;html=1;" parent="--YtzrklkNBxloeXn2lH-41" vertex="1">
          <mxGeometry y="208" width="240" height="26" as="geometry" />
        </mxCell>
        <mxCell id="--YtzrklkNBxloeXn2lH-47" value="" style="line;strokeWidth=1;fillColor=none;align=left;verticalAlign=middle;spacingTop=-1;spacingLeft=3;spacingRight=3;rotatable=0;labelPosition=right;points=[];portConstraint=eastwest;strokeColor=inherit;" parent="--YtzrklkNBxloeXn2lH-41" vertex="1">
          <mxGeometry y="234" width="240" height="8" as="geometry" />
        </mxCell>
        <mxCell id="--YtzrklkNBxloeXn2lH-154" value="- UpdateStatus()" style="text;strokeColor=none;fillColor=none;align=left;verticalAlign=top;spacingLeft=4;spacingRight=4;overflow=hidden;rotatable=0;points=[[0,0.5],[1,0.5]];portConstraint=eastwest;whiteSpace=wrap;html=1;" parent="--YtzrklkNBxloeXn2lH-41" vertex="1">
          <mxGeometry y="242" width="240" height="26" as="geometry" />
        </mxCell>
        <mxCell id="--YtzrklkNBxloeXn2lH-49" value="Отгрузка" style="swimlane;fontStyle=1;align=center;verticalAlign=top;childLayout=stackLayout;horizontal=1;startSize=26;horizontalStack=0;resizeParent=1;resizeParentMax=0;resizeLast=0;collapsible=1;marginBottom=0;whiteSpace=wrap;html=1;" parent="WIyWlLk6GJQsqaUBKTNV-1" vertex="1">
          <mxGeometry x="-1366.25" y="876" width="257" height="60" as="geometry" />
        </mxCell>
        <mxCell id="--YtzrklkNBxloeXn2lH-53" value="+ datShipmentDate: Date" style="text;strokeColor=none;fillColor=none;align=left;verticalAlign=top;spacingLeft=4;spacingRight=4;overflow=hidden;rotatable=0;points=[[0,0.5],[1,0.5]];portConstraint=eastwest;whiteSpace=wrap;html=1;" parent="--YtzrklkNBxloeXn2lH-49" vertex="1">
          <mxGeometry y="26" width="257" height="26" as="geometry" />
        </mxCell>
        <mxCell id="--YtzrklkNBxloeXn2lH-51" value="" style="line;strokeWidth=1;fillColor=none;align=left;verticalAlign=middle;spacingTop=-1;spacingLeft=3;spacingRight=3;rotatable=0;labelPosition=right;points=[];portConstraint=eastwest;strokeColor=inherit;" parent="--YtzrklkNBxloeXn2lH-49" vertex="1">
          <mxGeometry y="52" width="257" height="8" as="geometry" />
        </mxCell>
        <mxCell id="--YtzrklkNBxloeXn2lH-62" value="Склад" style="swimlane;fontStyle=1;align=center;verticalAlign=top;childLayout=stackLayout;horizontal=1;startSize=26;horizontalStack=0;resizeParent=1;resizeParentMax=0;resizeLast=0;collapsible=1;marginBottom=0;whiteSpace=wrap;html=1;" parent="WIyWlLk6GJQsqaUBKTNV-1" vertex="1">
          <mxGeometry x="-550" y="600" width="390" height="138" as="geometry" />
        </mxCell>
        <mxCell id="--YtzrklkNBxloeXn2lH-68" value="+ strEquipmentKeyName: String" style="text;strokeColor=none;fillColor=none;align=left;verticalAlign=top;spacingLeft=4;spacingRight=4;overflow=hidden;rotatable=0;points=[[0,0.5],[1,0.5]];portConstraint=eastwest;whiteSpace=wrap;html=1;" parent="--YtzrklkNBxloeXn2lH-62" vertex="1">
          <mxGeometry y="26" width="390" height="26" as="geometry" />
        </mxCell>
        <mxCell id="--YtzrklkNBxloeXn2lH-102" value="+ intAmountAvailable" style="text;strokeColor=none;fillColor=none;align=left;verticalAlign=top;spacingLeft=4;spacingRight=4;overflow=hidden;rotatable=0;points=[[0,0.5],[1,0.5]];portConstraint=eastwest;whiteSpace=wrap;html=1;" parent="--YtzrklkNBxloeXn2lH-62" vertex="1">
          <mxGeometry y="52" width="390" height="26" as="geometry" />
        </mxCell>
        <mxCell id="--YtzrklkNBxloeXn2lH-103" value="+ strAmountType: Type" style="text;strokeColor=none;fillColor=none;align=left;verticalAlign=top;spacingLeft=4;spacingRight=4;overflow=hidden;rotatable=0;points=[[0,0.5],[1,0.5]];portConstraint=eastwest;whiteSpace=wrap;html=1;" parent="--YtzrklkNBxloeXn2lH-62" vertex="1">
          <mxGeometry y="78" width="390" height="26" as="geometry" />
        </mxCell>
        <mxCell id="--YtzrklkNBxloeXn2lH-64" value="" style="line;strokeWidth=1;fillColor=none;align=left;verticalAlign=middle;spacingTop=-1;spacingLeft=3;spacingRight=3;rotatable=0;labelPosition=right;points=[];portConstraint=eastwest;strokeColor=inherit;" parent="--YtzrklkNBxloeXn2lH-62" vertex="1">
          <mxGeometry y="104" width="390" height="8" as="geometry" />
        </mxCell>
        <mxCell id="--YtzrklkNBxloeXn2lH-104" value="+ RegisterPreOrder(in ordType: Type, in ord: Order): Status" style="text;strokeColor=none;fillColor=none;align=left;verticalAlign=top;spacingLeft=4;spacingRight=4;overflow=hidden;rotatable=0;points=[[0,0.5],[1,0.5]];portConstraint=eastwest;whiteSpace=wrap;html=1;" parent="--YtzrklkNBxloeXn2lH-62" vertex="1">
          <mxGeometry y="112" width="390" height="26" as="geometry" />
        </mxCell>
        <mxCell id="--YtzrklkNBxloeXn2lH-80" style="rounded=0;orthogonalLoop=1;jettySize=auto;html=1;endArrow=none;endFill=0;startArrow=classic;startFill=1;entryX=-0.001;entryY=0.154;entryDx=0;entryDy=0;entryPerimeter=0;elbow=vertical;edgeStyle=orthogonalEdgeStyle;exitX=1;exitY=0.854;exitDx=0;exitDy=0;exitPerimeter=0;" parent="WIyWlLk6GJQsqaUBKTNV-1" target="--YtzrklkNBxloeXn2lH-32" edge="1" source="--YtzrklkNBxloeXn2lH-19">
          <mxGeometry relative="1" as="geometry">
            <mxPoint x="-590" y="461" as="sourcePoint" />
            <mxPoint x="-500" y="461" as="targetPoint" />
          </mxGeometry>
        </mxCell>
        <mxCell id="--YtzrklkNBxloeXn2lH-81" style="edgeStyle=orthogonalEdgeStyle;rounded=0;orthogonalLoop=1;jettySize=auto;html=1;entryX=1;entryY=0.5;entryDx=0;entryDy=0;endArrow=none;endFill=0;" parent="WIyWlLk6GJQsqaUBKTNV-1" target="--YtzrklkNBxloeXn2lH-38" edge="1">
          <mxGeometry relative="1" as="geometry">
            <mxPoint x="-990" y="435" as="sourcePoint" />
            <Array as="points">
              <mxPoint x="-991" y="435" />
            </Array>
          </mxGeometry>
        </mxCell>
        <mxCell id="--YtzrklkNBxloeXn2lH-85" style="edgeStyle=orthogonalEdgeStyle;rounded=0;orthogonalLoop=1;jettySize=auto;html=1;entryX=0;entryY=0.841;entryDx=0;entryDy=0;endArrow=none;endFill=0;entryPerimeter=0;startArrow=classic;startFill=1;exitX=1;exitY=0.5;exitDx=0;exitDy=0;" parent="WIyWlLk6GJQsqaUBKTNV-1" target="--YtzrklkNBxloeXn2lH-212" edge="1" source="--YtzrklkNBxloeXn2lH-53">
          <mxGeometry relative="1" as="geometry">
            <mxPoint x="-1170" y="912" as="sourcePoint" />
            <mxPoint x="-940" y="670" as="targetPoint" />
            <Array as="points">
              <mxPoint x="-970" y="915" />
              <mxPoint x="-970" y="700" />
              <mxPoint x="-940" y="700" />
            </Array>
          </mxGeometry>
        </mxCell>
        <mxCell id="--YtzrklkNBxloeXn2lH-86" style="rounded=0;orthogonalLoop=1;jettySize=auto;html=1;endArrow=classic;endFill=1;entryX=0.46;entryY=-0.003;entryDx=0;entryDy=0;entryPerimeter=0;exitX=0.5;exitY=1;exitDx=0;exitDy=0;" parent="WIyWlLk6GJQsqaUBKTNV-1" source="--YtzrklkNBxloeXn2lH-209" target="--YtzrklkNBxloeXn2lH-41" edge="1">
          <mxGeometry relative="1" as="geometry">
            <mxPoint x="-790.51" y="712" as="sourcePoint" />
            <mxPoint x="-790.02" y="859" as="targetPoint" />
          </mxGeometry>
        </mxCell>
        <UserObject label="1" placeholders="1" name="Variable" id="--YtzrklkNBxloeXn2lH-93">
          <mxCell style="text;html=1;strokeColor=none;fillColor=none;align=center;verticalAlign=middle;whiteSpace=wrap;overflow=hidden;" parent="WIyWlLk6GJQsqaUBKTNV-1" vertex="1">
            <mxGeometry x="-785" y="-30" width="20" height="20" as="geometry" />
          </mxCell>
        </UserObject>
        <UserObject label="*" placeholders="1" name="Variable" id="--YtzrklkNBxloeXn2lH-94">
          <mxCell style="text;html=1;strokeColor=none;fillColor=none;align=center;verticalAlign=middle;whiteSpace=wrap;overflow=hidden;" parent="WIyWlLk6GJQsqaUBKTNV-1" vertex="1">
            <mxGeometry x="-790" y="60" width="20" height="20" as="geometry" />
          </mxCell>
        </UserObject>
        <UserObject label="Владеет" placeholders="1" name="Variable" id="--YtzrklkNBxloeXn2lH-97">
          <mxCell style="text;html=1;strokeColor=none;fillColor=none;align=center;verticalAlign=middle;whiteSpace=wrap;overflow=hidden;" parent="WIyWlLk6GJQsqaUBKTNV-1" vertex="1">
            <mxGeometry x="-780" y="10" width="80" height="20" as="geometry" />
          </mxCell>
        </UserObject>
        <UserObject label="1" placeholders="1" name="Variable" id="--YtzrklkNBxloeXn2lH-99">
          <mxCell style="text;html=1;strokeColor=none;fillColor=none;align=center;verticalAlign=middle;whiteSpace=wrap;overflow=hidden;" parent="WIyWlLk6GJQsqaUBKTNV-1" vertex="1">
            <mxGeometry x="-790" y="192" width="20" height="20" as="geometry" />
          </mxCell>
        </UserObject>
        <UserObject label="*" placeholders="1" name="Variable" id="--YtzrklkNBxloeXn2lH-100">
          <mxCell style="text;html=1;strokeColor=none;fillColor=none;align=center;verticalAlign=middle;whiteSpace=wrap;overflow=hidden;" parent="WIyWlLk6GJQsqaUBKTNV-1" vertex="1">
            <mxGeometry x="-790" y="280" width="20" height="20" as="geometry" />
          </mxCell>
        </UserObject>
        <UserObject label="Оформлена на" placeholders="1" name="Variable" id="--YtzrklkNBxloeXn2lH-101">
          <mxCell style="text;html=1;strokeColor=none;fillColor=none;align=center;verticalAlign=middle;whiteSpace=wrap;overflow=hidden;" parent="WIyWlLk6GJQsqaUBKTNV-1" vertex="1">
            <mxGeometry x="-780" y="240" width="100" height="20" as="geometry" />
          </mxCell>
        </UserObject>
        <UserObject label="1" placeholders="1" name="Variable" id="--YtzrklkNBxloeXn2lH-105">
          <mxCell style="text;html=1;strokeColor=none;fillColor=none;align=center;verticalAlign=middle;whiteSpace=wrap;overflow=hidden;" parent="WIyWlLk6GJQsqaUBKTNV-1" vertex="1">
            <mxGeometry x="-585" y="460" width="20" height="20" as="geometry" />
          </mxCell>
        </UserObject>
        <UserObject label="*" placeholders="1" name="Variable" id="--YtzrklkNBxloeXn2lH-106">
          <mxCell style="text;html=1;strokeColor=none;fillColor=none;align=center;verticalAlign=middle;whiteSpace=wrap;overflow=hidden;" parent="WIyWlLk6GJQsqaUBKTNV-1" vertex="1">
            <mxGeometry x="-520" y="460" width="20" height="20" as="geometry" />
          </mxCell>
        </UserObject>
        <UserObject label="Включена в" placeholders="1" name="Variable" id="--YtzrklkNBxloeXn2lH-107">
          <mxCell style="text;html=1;strokeColor=none;fillColor=none;align=center;verticalAlign=middle;whiteSpace=wrap;overflow=hidden;" parent="WIyWlLk6GJQsqaUBKTNV-1" vertex="1">
            <mxGeometry x="-590" y="440" width="100" height="20" as="geometry" />
          </mxCell>
        </UserObject>
        <UserObject label="*" placeholders="1" name="Variable" id="--YtzrklkNBxloeXn2lH-109">
          <mxCell style="text;html=1;strokeColor=none;fillColor=none;align=center;verticalAlign=middle;whiteSpace=wrap;overflow=hidden;" parent="WIyWlLk6GJQsqaUBKTNV-1" vertex="1">
            <mxGeometry x="-1099" y="880" width="20" height="20" as="geometry" />
          </mxCell>
        </UserObject>
        <UserObject label="1" placeholders="1" name="Variable" id="--YtzrklkNBxloeXn2lH-110">
          <mxCell style="text;html=1;strokeColor=none;fillColor=none;align=center;verticalAlign=middle;whiteSpace=wrap;overflow=hidden;" parent="WIyWlLk6GJQsqaUBKTNV-1" vertex="1">
            <mxGeometry x="-990" y="700" width="20" height="20" as="geometry" />
          </mxCell>
        </UserObject>
        <UserObject label="Подтверждает поступление" placeholders="1" name="Variable" id="--YtzrklkNBxloeXn2lH-111">
          <mxCell style="text;html=1;strokeColor=none;fillColor=none;align=center;verticalAlign=middle;whiteSpace=wrap;overflow=hidden;" parent="WIyWlLk6GJQsqaUBKTNV-1" vertex="1">
            <mxGeometry x="-1105" y="916" width="170" height="20" as="geometry" />
          </mxCell>
        </UserObject>
        <UserObject label="1" placeholders="1" name="Variable" id="--YtzrklkNBxloeXn2lH-115">
          <mxCell style="text;html=1;strokeColor=none;fillColor=none;align=center;verticalAlign=middle;whiteSpace=wrap;overflow=hidden;" parent="WIyWlLk6GJQsqaUBKTNV-1" vertex="1">
            <mxGeometry x="-1263" y="510" width="20" height="20" as="geometry" />
          </mxCell>
        </UserObject>
        <UserObject label="*" placeholders="1" name="Variable" id="--YtzrklkNBxloeXn2lH-116">
          <mxCell style="text;html=1;strokeColor=none;fillColor=none;align=center;verticalAlign=middle;whiteSpace=wrap;overflow=hidden;" parent="WIyWlLk6GJQsqaUBKTNV-1" vertex="1">
            <mxGeometry x="-1263" y="565" width="20" height="20" as="geometry" />
          </mxCell>
        </UserObject>
        <UserObject label="Проводится по" placeholders="1" name="Variable" id="--YtzrklkNBxloeXn2lH-117">
          <mxCell style="text;html=1;strokeColor=none;fillColor=none;align=center;verticalAlign=middle;whiteSpace=wrap;overflow=hidden;" parent="WIyWlLk6GJQsqaUBKTNV-1" vertex="1">
            <mxGeometry x="-1230" y="540" width="100" height="20" as="geometry" />
          </mxCell>
        </UserObject>
        <UserObject label="1" placeholders="1" name="Variable" id="--YtzrklkNBxloeXn2lH-121">
          <mxCell style="text;html=1;strokeColor=none;fillColor=none;align=center;verticalAlign=middle;whiteSpace=wrap;overflow=hidden;" parent="WIyWlLk6GJQsqaUBKTNV-1" vertex="1">
            <mxGeometry x="-790" y="738" width="20" height="20" as="geometry" />
          </mxCell>
        </UserObject>
        <UserObject label="Пополняется" placeholders="1" name="Variable" id="--YtzrklkNBxloeXn2lH-123">
          <mxCell style="text;html=1;strokeColor=none;fillColor=none;align=center;verticalAlign=middle;whiteSpace=wrap;overflow=hidden;" parent="WIyWlLk6GJQsqaUBKTNV-1" vertex="1">
            <mxGeometry x="-780" y="797" width="100" height="20" as="geometry" />
          </mxCell>
        </UserObject>
        <UserObject label="*" placeholders="1" name="Variable" id="--YtzrklkNBxloeXn2lH-124">
          <mxCell style="text;html=1;strokeColor=none;fillColor=none;align=center;verticalAlign=middle;whiteSpace=wrap;overflow=hidden;" parent="WIyWlLk6GJQsqaUBKTNV-1" vertex="1">
            <mxGeometry x="-790" y="840" width="20" height="20" as="geometry" />
          </mxCell>
        </UserObject>
        <UserObject label="1" placeholders="1" name="Variable" id="--YtzrklkNBxloeXn2lH-125">
          <mxCell style="text;html=1;strokeColor=none;fillColor=none;align=center;verticalAlign=middle;whiteSpace=wrap;overflow=hidden;" parent="WIyWlLk6GJQsqaUBKTNV-1" vertex="1">
            <mxGeometry x="-1119" y="410" width="20" height="20" as="geometry" />
          </mxCell>
        </UserObject>
        <UserObject label="1" placeholders="1" name="Variable" id="--YtzrklkNBxloeXn2lH-126">
          <mxCell style="text;html=1;strokeColor=none;fillColor=none;align=center;verticalAlign=middle;whiteSpace=wrap;overflow=hidden;" parent="WIyWlLk6GJQsqaUBKTNV-1" vertex="1">
            <mxGeometry x="-1020" y="410" width="20" height="20" as="geometry" />
          </mxCell>
        </UserObject>
        <UserObject label="Составляется по" placeholders="1" name="Variable" id="--YtzrklkNBxloeXn2lH-127">
          <mxCell style="text;html=1;strokeColor=none;fillColor=none;align=center;verticalAlign=middle;whiteSpace=wrap;overflow=hidden;" parent="WIyWlLk6GJQsqaUBKTNV-1" vertex="1">
            <mxGeometry x="-1110" y="440" width="120" height="20" as="geometry" />
          </mxCell>
        </UserObject>
        <mxCell id="--YtzrklkNBxloeXn2lH-128" value="tblClient" style="shape=table;startSize=30;container=1;collapsible=1;childLayout=tableLayout;fixedRows=1;rowLines=0;fontStyle=1;align=center;resizeLast=1;html=1;" parent="WIyWlLk6GJQsqaUBKTNV-1" vertex="1">
          <mxGeometry x="-520" y="-1620" width="180" height="150" as="geometry" />
        </mxCell>
        <mxCell id="--YtzrklkNBxloeXn2lH-129" value="" style="shape=tableRow;horizontal=0;startSize=0;swimlaneHead=0;swimlaneBody=0;fillColor=none;collapsible=0;dropTarget=0;points=[[0,0.5],[1,0.5]];portConstraint=eastwest;top=0;left=0;right=0;bottom=1;" parent="--YtzrklkNBxloeXn2lH-128" vertex="1">
          <mxGeometry y="30" width="180" height="30" as="geometry" />
        </mxCell>
        <mxCell id="--YtzrklkNBxloeXn2lH-130" value="PK" style="shape=partialRectangle;connectable=0;fillColor=none;top=0;left=0;bottom=0;right=0;fontStyle=1;overflow=hidden;whiteSpace=wrap;html=1;" parent="--YtzrklkNBxloeXn2lH-129" vertex="1">
          <mxGeometry width="30" height="30" as="geometry">
            <mxRectangle width="30" height="30" as="alternateBounds" />
          </mxGeometry>
        </mxCell>
        <mxCell id="--YtzrklkNBxloeXn2lH-131" value="intPhoneNumber" style="shape=partialRectangle;connectable=0;fillColor=none;top=0;left=0;bottom=0;right=0;align=left;spacingLeft=6;fontStyle=5;overflow=hidden;whiteSpace=wrap;html=1;" parent="--YtzrklkNBxloeXn2lH-129" vertex="1">
          <mxGeometry x="30" width="150" height="30" as="geometry">
            <mxRectangle width="150" height="30" as="alternateBounds" />
          </mxGeometry>
        </mxCell>
        <mxCell id="--YtzrklkNBxloeXn2lH-132" value="" style="shape=tableRow;horizontal=0;startSize=0;swimlaneHead=0;swimlaneBody=0;fillColor=none;collapsible=0;dropTarget=0;points=[[0,0.5],[1,0.5]];portConstraint=eastwest;top=0;left=0;right=0;bottom=0;" parent="--YtzrklkNBxloeXn2lH-128" vertex="1">
          <mxGeometry y="60" width="180" height="30" as="geometry" />
        </mxCell>
        <mxCell id="--YtzrklkNBxloeXn2lH-133" value="" style="shape=partialRectangle;connectable=0;fillColor=none;top=0;left=0;bottom=0;right=0;editable=1;overflow=hidden;whiteSpace=wrap;html=1;" parent="--YtzrklkNBxloeXn2lH-132" vertex="1">
          <mxGeometry width="30" height="30" as="geometry">
            <mxRectangle width="30" height="30" as="alternateBounds" />
          </mxGeometry>
        </mxCell>
        <mxCell id="--YtzrklkNBxloeXn2lH-134" value="strFirstName" style="shape=partialRectangle;connectable=0;fillColor=none;top=0;left=0;bottom=0;right=0;align=left;spacingLeft=6;overflow=hidden;whiteSpace=wrap;html=1;" parent="--YtzrklkNBxloeXn2lH-132" vertex="1">
          <mxGeometry x="30" width="150" height="30" as="geometry">
            <mxRectangle width="150" height="30" as="alternateBounds" />
          </mxGeometry>
        </mxCell>
        <mxCell id="--YtzrklkNBxloeXn2lH-135" value="" style="shape=tableRow;horizontal=0;startSize=0;swimlaneHead=0;swimlaneBody=0;fillColor=none;collapsible=0;dropTarget=0;points=[[0,0.5],[1,0.5]];portConstraint=eastwest;top=0;left=0;right=0;bottom=0;" parent="--YtzrklkNBxloeXn2lH-128" vertex="1">
          <mxGeometry y="90" width="180" height="30" as="geometry" />
        </mxCell>
        <mxCell id="--YtzrklkNBxloeXn2lH-136" value="" style="shape=partialRectangle;connectable=0;fillColor=none;top=0;left=0;bottom=0;right=0;editable=1;overflow=hidden;whiteSpace=wrap;html=1;" parent="--YtzrklkNBxloeXn2lH-135" vertex="1">
          <mxGeometry width="30" height="30" as="geometry">
            <mxRectangle width="30" height="30" as="alternateBounds" />
          </mxGeometry>
        </mxCell>
        <mxCell id="--YtzrklkNBxloeXn2lH-137" value="strLastName" style="shape=partialRectangle;connectable=0;fillColor=none;top=0;left=0;bottom=0;right=0;align=left;spacingLeft=6;overflow=hidden;whiteSpace=wrap;html=1;" parent="--YtzrklkNBxloeXn2lH-135" vertex="1">
          <mxGeometry x="30" width="150" height="30" as="geometry">
            <mxRectangle width="150" height="30" as="alternateBounds" />
          </mxGeometry>
        </mxCell>
        <mxCell id="--YtzrklkNBxloeXn2lH-138" value="" style="shape=tableRow;horizontal=0;startSize=0;swimlaneHead=0;swimlaneBody=0;fillColor=none;collapsible=0;dropTarget=0;points=[[0,0.5],[1,0.5]];portConstraint=eastwest;top=0;left=0;right=0;bottom=0;" parent="--YtzrklkNBxloeXn2lH-128" vertex="1">
          <mxGeometry y="120" width="180" height="30" as="geometry" />
        </mxCell>
        <mxCell id="--YtzrklkNBxloeXn2lH-139" value="" style="shape=partialRectangle;connectable=0;fillColor=none;top=0;left=0;bottom=0;right=0;editable=1;overflow=hidden;whiteSpace=wrap;html=1;" parent="--YtzrklkNBxloeXn2lH-138" vertex="1">
          <mxGeometry width="30" height="30" as="geometry">
            <mxRectangle width="30" height="30" as="alternateBounds" />
          </mxGeometry>
        </mxCell>
        <mxCell id="--YtzrklkNBxloeXn2lH-140" value="strPatronymic" style="shape=partialRectangle;connectable=0;fillColor=none;top=0;left=0;bottom=0;right=0;align=left;spacingLeft=6;overflow=hidden;whiteSpace=wrap;html=1;" parent="--YtzrklkNBxloeXn2lH-138" vertex="1">
          <mxGeometry x="30" width="150" height="30" as="geometry">
            <mxRectangle width="150" height="30" as="alternateBounds" />
          </mxGeometry>
        </mxCell>
        <mxCell id="--YtzrklkNBxloeXn2lH-155" value="tblWorkOrder" style="shape=table;startSize=30;container=1;collapsible=1;childLayout=tableLayout;fixedRows=1;rowLines=0;fontStyle=1;align=center;resizeLast=1;html=1;" parent="WIyWlLk6GJQsqaUBKTNV-1" vertex="1">
          <mxGeometry x="-620" y="-1350" width="180" height="210" as="geometry" />
        </mxCell>
        <mxCell id="--YtzrklkNBxloeXn2lH-156" value="" style="shape=tableRow;horizontal=0;startSize=0;swimlaneHead=0;swimlaneBody=0;fillColor=none;collapsible=0;dropTarget=0;points=[[0,0.5],[1,0.5]];portConstraint=eastwest;top=0;left=0;right=0;bottom=1;" parent="--YtzrklkNBxloeXn2lH-155" vertex="1">
          <mxGeometry y="30" width="180" height="30" as="geometry" />
        </mxCell>
        <mxCell id="--YtzrklkNBxloeXn2lH-157" value="PK" style="shape=partialRectangle;connectable=0;fillColor=none;top=0;left=0;bottom=0;right=0;fontStyle=1;overflow=hidden;whiteSpace=wrap;html=1;" parent="--YtzrklkNBxloeXn2lH-156" vertex="1">
          <mxGeometry width="30" height="30" as="geometry">
            <mxRectangle width="30" height="30" as="alternateBounds" />
          </mxGeometry>
        </mxCell>
        <mxCell id="--YtzrklkNBxloeXn2lH-158" value="intOrderID" style="shape=partialRectangle;connectable=0;fillColor=none;top=0;left=0;bottom=0;right=0;align=left;spacingLeft=6;fontStyle=5;overflow=hidden;whiteSpace=wrap;html=1;" parent="--YtzrklkNBxloeXn2lH-156" vertex="1">
          <mxGeometry x="30" width="150" height="30" as="geometry">
            <mxRectangle width="150" height="30" as="alternateBounds" />
          </mxGeometry>
        </mxCell>
        <mxCell id="--YtzrklkNBxloeXn2lH-159" value="" style="shape=tableRow;horizontal=0;startSize=0;swimlaneHead=0;swimlaneBody=0;fillColor=none;collapsible=0;dropTarget=0;points=[[0,0.5],[1,0.5]];portConstraint=eastwest;top=0;left=0;right=0;bottom=0;" parent="--YtzrklkNBxloeXn2lH-155" vertex="1">
          <mxGeometry y="60" width="180" height="30" as="geometry" />
        </mxCell>
        <mxCell id="--YtzrklkNBxloeXn2lH-160" value="" style="shape=partialRectangle;connectable=0;fillColor=none;top=0;left=0;bottom=0;right=0;editable=1;overflow=hidden;whiteSpace=wrap;html=1;" parent="--YtzrklkNBxloeXn2lH-159" vertex="1">
          <mxGeometry width="30" height="30" as="geometry">
            <mxRectangle width="30" height="30" as="alternateBounds" />
          </mxGeometry>
        </mxCell>
        <mxCell id="--YtzrklkNBxloeXn2lH-161" value="strDescription" style="shape=partialRectangle;connectable=0;fillColor=none;top=0;left=0;bottom=0;right=0;align=left;spacingLeft=6;overflow=hidden;whiteSpace=wrap;html=1;" parent="--YtzrklkNBxloeXn2lH-159" vertex="1">
          <mxGeometry x="30" width="150" height="30" as="geometry">
            <mxRectangle width="150" height="30" as="alternateBounds" />
          </mxGeometry>
        </mxCell>
        <mxCell id="--YtzrklkNBxloeXn2lH-224" style="shape=tableRow;horizontal=0;startSize=0;swimlaneHead=0;swimlaneBody=0;fillColor=none;collapsible=0;dropTarget=0;points=[[0,0.5],[1,0.5]];portConstraint=eastwest;top=0;left=0;right=0;bottom=0;" parent="--YtzrklkNBxloeXn2lH-155" vertex="1">
          <mxGeometry y="90" width="180" height="30" as="geometry" />
        </mxCell>
        <mxCell id="--YtzrklkNBxloeXn2lH-225" value="FK" style="shape=partialRectangle;connectable=0;fillColor=none;top=0;left=0;bottom=0;right=0;editable=1;overflow=hidden;whiteSpace=wrap;html=1;" parent="--YtzrklkNBxloeXn2lH-224" vertex="1">
          <mxGeometry width="30" height="30" as="geometry">
            <mxRectangle width="30" height="30" as="alternateBounds" />
          </mxGeometry>
        </mxCell>
        <mxCell id="--YtzrklkNBxloeXn2lH-226" value="intJobID" style="shape=partialRectangle;connectable=0;fillColor=none;top=0;left=0;bottom=0;right=0;align=left;spacingLeft=6;overflow=hidden;whiteSpace=wrap;html=1;" parent="--YtzrklkNBxloeXn2lH-224" vertex="1">
          <mxGeometry x="30" width="150" height="30" as="geometry">
            <mxRectangle width="150" height="30" as="alternateBounds" />
          </mxGeometry>
        </mxCell>
        <mxCell id="--YtzrklkNBxloeXn2lH-162" value="" style="shape=tableRow;horizontal=0;startSize=0;swimlaneHead=0;swimlaneBody=0;fillColor=none;collapsible=0;dropTarget=0;points=[[0,0.5],[1,0.5]];portConstraint=eastwest;top=0;left=0;right=0;bottom=0;" parent="--YtzrklkNBxloeXn2lH-155" vertex="1">
          <mxGeometry y="120" width="180" height="30" as="geometry" />
        </mxCell>
        <mxCell id="--YtzrklkNBxloeXn2lH-163" value="FK" style="shape=partialRectangle;connectable=0;fillColor=none;top=0;left=0;bottom=0;right=0;editable=1;overflow=hidden;whiteSpace=wrap;html=1;" parent="--YtzrklkNBxloeXn2lH-162" vertex="1">
          <mxGeometry width="30" height="30" as="geometry">
            <mxRectangle width="30" height="30" as="alternateBounds" />
          </mxGeometry>
        </mxCell>
        <mxCell id="--YtzrklkNBxloeXn2lH-164" value="intJobStatusID" style="shape=partialRectangle;connectable=0;fillColor=none;top=0;left=0;bottom=0;right=0;align=left;spacingLeft=6;overflow=hidden;whiteSpace=wrap;html=1;" parent="--YtzrklkNBxloeXn2lH-162" vertex="1">
          <mxGeometry x="30" width="150" height="30" as="geometry">
            <mxRectangle width="150" height="30" as="alternateBounds" />
          </mxGeometry>
        </mxCell>
        <mxCell id="--YtzrklkNBxloeXn2lH-165" value="" style="shape=tableRow;horizontal=0;startSize=0;swimlaneHead=0;swimlaneBody=0;fillColor=none;collapsible=0;dropTarget=0;points=[[0,0.5],[1,0.5]];portConstraint=eastwest;top=0;left=0;right=0;bottom=0;" parent="--YtzrklkNBxloeXn2lH-155" vertex="1">
          <mxGeometry y="150" width="180" height="30" as="geometry" />
        </mxCell>
        <mxCell id="--YtzrklkNBxloeXn2lH-166" value="" style="shape=partialRectangle;connectable=0;fillColor=none;top=0;left=0;bottom=0;right=0;editable=1;overflow=hidden;whiteSpace=wrap;html=1;" parent="--YtzrklkNBxloeXn2lH-165" vertex="1">
          <mxGeometry width="30" height="30" as="geometry">
            <mxRectangle width="30" height="30" as="alternateBounds" />
          </mxGeometry>
        </mxCell>
        <mxCell id="--YtzrklkNBxloeXn2lH-167" value="datDeadline" style="shape=partialRectangle;connectable=0;fillColor=none;top=0;left=0;bottom=0;right=0;align=left;spacingLeft=6;overflow=hidden;whiteSpace=wrap;html=1;" parent="--YtzrklkNBxloeXn2lH-165" vertex="1">
          <mxGeometry x="30" width="150" height="30" as="geometry">
            <mxRectangle width="150" height="30" as="alternateBounds" />
          </mxGeometry>
        </mxCell>
        <mxCell id="--YtzrklkNBxloeXn2lH-168" style="shape=tableRow;horizontal=0;startSize=0;swimlaneHead=0;swimlaneBody=0;fillColor=none;collapsible=0;dropTarget=0;points=[[0,0.5],[1,0.5]];portConstraint=eastwest;top=0;left=0;right=0;bottom=0;" parent="--YtzrklkNBxloeXn2lH-155" vertex="1">
          <mxGeometry y="180" width="180" height="30" as="geometry" />
        </mxCell>
        <mxCell id="--YtzrklkNBxloeXn2lH-169" value="FK" style="shape=partialRectangle;connectable=0;fillColor=none;top=0;left=0;bottom=0;right=0;editable=1;overflow=hidden;whiteSpace=wrap;html=1;" parent="--YtzrklkNBxloeXn2lH-168" vertex="1">
          <mxGeometry width="30" height="30" as="geometry">
            <mxRectangle width="30" height="30" as="alternateBounds" />
          </mxGeometry>
        </mxCell>
        <mxCell id="--YtzrklkNBxloeXn2lH-170" value="intSiteID" style="shape=partialRectangle;connectable=0;fillColor=none;top=0;left=0;bottom=0;right=0;align=left;spacingLeft=6;overflow=hidden;whiteSpace=wrap;html=1;" parent="--YtzrklkNBxloeXn2lH-168" vertex="1">
          <mxGeometry x="30" width="150" height="30" as="geometry">
            <mxRectangle width="150" height="30" as="alternateBounds" />
          </mxGeometry>
        </mxCell>
        <mxCell id="--YtzrklkNBxloeXn2lH-174" value="Запрос" style="swimlane;fontStyle=1;align=center;verticalAlign=top;childLayout=stackLayout;horizontal=1;startSize=26;horizontalStack=0;resizeParent=1;resizeParentMax=0;resizeLast=0;collapsible=1;marginBottom=0;whiteSpace=wrap;html=1;" parent="WIyWlLk6GJQsqaUBKTNV-1" vertex="1">
          <mxGeometry x="-1407" y="585" width="338.5" height="190" as="geometry" />
        </mxCell>
        <mxCell id="--YtzrklkNBxloeXn2lH-175" value="+ datShipmentDate: Date" style="text;strokeColor=none;fillColor=none;align=left;verticalAlign=top;spacingLeft=4;spacingRight=4;overflow=hidden;rotatable=0;points=[[0,0.5],[1,0.5]];portConstraint=eastwest;whiteSpace=wrap;html=1;" parent="--YtzrklkNBxloeXn2lH-174" vertex="1">
          <mxGeometry y="26" width="338.5" height="26" as="geometry" />
        </mxCell>
        <mxCell id="--YtzrklkNBxloeXn2lH-176" value="+ intAmount: Integer" style="text;strokeColor=none;fillColor=none;align=left;verticalAlign=top;spacingLeft=4;spacingRight=4;overflow=hidden;rotatable=0;points=[[0,0.5],[1,0.5]];portConstraint=eastwest;whiteSpace=wrap;html=1;" parent="--YtzrklkNBxloeXn2lH-174" vertex="1">
          <mxGeometry y="52" width="338.5" height="26" as="geometry" />
        </mxCell>
        <mxCell id="--YtzrklkNBxloeXn2lH-177" value="+ strAmountType: Type" style="text;strokeColor=none;fillColor=none;align=left;verticalAlign=top;spacingLeft=4;spacingRight=4;overflow=hidden;rotatable=0;points=[[0,0.5],[1,0.5]];portConstraint=eastwest;whiteSpace=wrap;html=1;" parent="--YtzrklkNBxloeXn2lH-174" vertex="1">
          <mxGeometry y="78" width="338.5" height="26" as="geometry" />
        </mxCell>
        <mxCell id="--YtzrklkNBxloeXn2lH-178" value="+ intShipmentTotal: Integer" style="text;strokeColor=none;fillColor=none;align=left;verticalAlign=top;spacingLeft=4;spacingRight=4;overflow=hidden;rotatable=0;points=[[0,0.5],[1,0.5]];portConstraint=eastwest;whiteSpace=wrap;html=1;" parent="--YtzrklkNBxloeXn2lH-174" vertex="1">
          <mxGeometry y="104" width="338.5" height="26" as="geometry" />
        </mxCell>
        <mxCell id="--YtzrklkNBxloeXn2lH-202" value="+ statShipmentStatus: Status" style="text;strokeColor=none;fillColor=none;align=left;verticalAlign=top;spacingLeft=4;spacingRight=4;overflow=hidden;rotatable=0;points=[[0,0.5],[1,0.5]];portConstraint=eastwest;whiteSpace=wrap;html=1;" parent="--YtzrklkNBxloeXn2lH-174" vertex="1">
          <mxGeometry y="130" width="338.5" height="26" as="geometry" />
        </mxCell>
        <mxCell id="--YtzrklkNBxloeXn2lH-179" value="" style="line;strokeWidth=1;fillColor=none;align=left;verticalAlign=middle;spacingTop=-1;spacingLeft=3;spacingRight=3;rotatable=0;labelPosition=right;points=[];portConstraint=eastwest;strokeColor=inherit;" parent="--YtzrklkNBxloeXn2lH-174" vertex="1">
          <mxGeometry y="156" width="338.5" height="8" as="geometry" />
        </mxCell>
        <mxCell id="--YtzrklkNBxloeXn2lH-180" value="- UpdateStatus()" style="text;strokeColor=none;fillColor=none;align=left;verticalAlign=top;spacingLeft=4;spacingRight=4;overflow=hidden;rotatable=0;points=[[0,0.5],[1,0.5]];portConstraint=eastwest;whiteSpace=wrap;html=1;" parent="--YtzrklkNBxloeXn2lH-174" vertex="1">
          <mxGeometry y="164" width="338.5" height="26" as="geometry" />
        </mxCell>
        <mxCell id="--YtzrklkNBxloeXn2lH-182" value="Вид работ" style="swimlane;fontStyle=1;align=center;verticalAlign=top;childLayout=stackLayout;horizontal=1;startSize=26;horizontalStack=0;resizeParent=1;resizeParentMax=0;resizeLast=0;collapsible=1;marginBottom=0;whiteSpace=wrap;html=1;" parent="WIyWlLk6GJQsqaUBKTNV-1" vertex="1">
          <mxGeometry x="-500" y="190" width="370" height="60" as="geometry" />
        </mxCell>
        <mxCell id="--YtzrklkNBxloeXn2lH-183" value="+ strCategoryName: String" style="text;strokeColor=none;fillColor=none;align=left;verticalAlign=top;spacingLeft=4;spacingRight=4;overflow=hidden;rotatable=0;points=[[0,0.5],[1,0.5]];portConstraint=eastwest;whiteSpace=wrap;html=1;" parent="--YtzrklkNBxloeXn2lH-182" vertex="1">
          <mxGeometry y="26" width="370" height="26" as="geometry" />
        </mxCell>
        <mxCell id="--YtzrklkNBxloeXn2lH-187" value="" style="line;strokeWidth=1;fillColor=none;align=left;verticalAlign=middle;spacingTop=-1;spacingLeft=3;spacingRight=3;rotatable=0;labelPosition=right;points=[];portConstraint=eastwest;strokeColor=inherit;" parent="--YtzrklkNBxloeXn2lH-182" vertex="1">
          <mxGeometry y="52" width="370" height="8" as="geometry" />
        </mxCell>
        <mxCell id="--YtzrklkNBxloeXn2lH-189" style="edgeStyle=orthogonalEdgeStyle;rounded=0;orthogonalLoop=1;jettySize=auto;html=1;entryX=0.5;entryY=1;entryDx=0;entryDy=0;endArrow=classic;endFill=1;dashed=1;" parent="WIyWlLk6GJQsqaUBKTNV-1" edge="1">
          <mxGeometry relative="1" as="geometry">
            <mxPoint x="-320" y="360" as="sourcePoint" />
            <mxPoint x="-320" y="250" as="targetPoint" />
          </mxGeometry>
        </mxCell>
        <UserObject label="1" placeholders="1" name="Variable" id="--YtzrklkNBxloeXn2lH-190">
          <mxCell style="text;html=1;strokeColor=none;fillColor=none;align=center;verticalAlign=middle;whiteSpace=wrap;overflow=hidden;" parent="WIyWlLk6GJQsqaUBKTNV-1" vertex="1">
            <mxGeometry x="-320" y="260" width="20" height="20" as="geometry" />
          </mxCell>
        </UserObject>
        <UserObject label="*" placeholders="1" name="Variable" id="--YtzrklkNBxloeXn2lH-191">
          <mxCell style="text;html=1;strokeColor=none;fillColor=none;align=center;verticalAlign=middle;whiteSpace=wrap;overflow=hidden;" parent="WIyWlLk6GJQsqaUBKTNV-1" vertex="1">
            <mxGeometry x="-320" y="340" width="20" height="20" as="geometry" />
          </mxCell>
        </UserObject>
        <UserObject label="Классифицируется" placeholders="1" name="Variable" id="--YtzrklkNBxloeXn2lH-192">
          <mxCell style="text;html=1;strokeColor=none;fillColor=none;align=center;verticalAlign=middle;whiteSpace=wrap;overflow=hidden;" parent="WIyWlLk6GJQsqaUBKTNV-1" vertex="1">
            <mxGeometry x="-310" y="290" width="120" height="20" as="geometry" />
          </mxCell>
        </UserObject>
        <mxCell id="--YtzrklkNBxloeXn2lH-194" style="edgeStyle=orthogonalEdgeStyle;rounded=0;orthogonalLoop=1;jettySize=auto;html=1;endArrow=none;endFill=0;exitX=0.493;exitY=1.032;exitDx=0;exitDy=0;exitPerimeter=0;entryX=0.5;entryY=0;entryDx=0;entryDy=0;" parent="WIyWlLk6GJQsqaUBKTNV-1" edge="1" target="--YtzrklkNBxloeXn2lH-49" source="--YtzrklkNBxloeXn2lH-180">
          <mxGeometry relative="1" as="geometry">
            <mxPoint x="-1250" y="800" as="sourcePoint" />
            <mxPoint x="-1311" y="876" as="targetPoint" />
            <Array as="points">
              <mxPoint x="-1240" y="876" />
            </Array>
          </mxGeometry>
        </mxCell>
        <UserObject label="1" placeholders="1" name="Variable" id="--YtzrklkNBxloeXn2lH-195">
          <mxCell style="text;html=1;strokeColor=none;fillColor=none;align=center;verticalAlign=middle;whiteSpace=wrap;overflow=hidden;" parent="WIyWlLk6GJQsqaUBKTNV-1" vertex="1">
            <mxGeometry x="-1240" y="777" width="20" height="20" as="geometry" />
          </mxCell>
        </UserObject>
        <UserObject label="1" placeholders="1" name="Variable" id="--YtzrklkNBxloeXn2lH-196">
          <mxCell style="text;html=1;strokeColor=none;fillColor=none;align=center;verticalAlign=middle;whiteSpace=wrap;overflow=hidden;" parent="WIyWlLk6GJQsqaUBKTNV-1" vertex="1">
            <mxGeometry x="-1240" y="856" width="20" height="20" as="geometry" />
          </mxCell>
        </UserObject>
        <UserObject label="Выполняется по" placeholders="1" name="Variable" id="--YtzrklkNBxloeXn2lH-197">
          <mxCell style="text;html=1;strokeColor=none;fillColor=none;align=center;verticalAlign=middle;whiteSpace=wrap;overflow=hidden;" parent="WIyWlLk6GJQsqaUBKTNV-1" vertex="1">
            <mxGeometry x="-1230" y="817" width="100" height="20" as="geometry" />
          </mxCell>
        </UserObject>
        <mxCell id="--YtzrklkNBxloeXn2lH-198" style="edgeStyle=orthogonalEdgeStyle;rounded=0;orthogonalLoop=1;jettySize=auto;html=1;exitX=0;exitY=0.308;exitDx=0;exitDy=0;entryX=1.002;entryY=1.083;entryDx=0;entryDy=0;endArrow=classic;endFill=1;exitPerimeter=0;startArrow=none;startFill=0;entryPerimeter=0;" parent="WIyWlLk6GJQsqaUBKTNV-1" edge="1" target="--YtzrklkNBxloeXn2lH-176">
          <mxGeometry relative="1" as="geometry">
            <mxPoint x="-940" y="665.0079999999998" as="sourcePoint" />
            <mxPoint x="-1171.5" y="665" as="targetPoint" />
            <Array as="points">
              <mxPoint x="-970" y="665" />
              <mxPoint x="-970" y="665" />
            </Array>
          </mxGeometry>
        </mxCell>
        <UserObject label="*" placeholders="1" name="Variable" id="--YtzrklkNBxloeXn2lH-199">
          <mxCell style="text;html=1;strokeColor=none;fillColor=none;align=center;verticalAlign=middle;whiteSpace=wrap;overflow=hidden;" parent="WIyWlLk6GJQsqaUBKTNV-1" vertex="1">
            <mxGeometry x="-1060" y="645" width="20" height="20" as="geometry" />
          </mxCell>
        </UserObject>
        <UserObject label="1" placeholders="1" name="Variable" id="--YtzrklkNBxloeXn2lH-200">
          <mxCell style="text;html=1;strokeColor=none;fillColor=none;align=center;verticalAlign=middle;whiteSpace=wrap;overflow=hidden;" parent="WIyWlLk6GJQsqaUBKTNV-1" vertex="1">
            <mxGeometry x="-960" y="645" width="20" height="20" as="geometry" />
          </mxCell>
        </UserObject>
        <mxCell id="--YtzrklkNBxloeXn2lH-209" value="Оборудование" style="swimlane;fontStyle=1;align=center;verticalAlign=top;childLayout=stackLayout;horizontal=1;startSize=26;horizontalStack=0;resizeParent=1;resizeParentMax=0;resizeLast=0;collapsible=1;marginBottom=0;whiteSpace=wrap;html=1;" parent="WIyWlLk6GJQsqaUBKTNV-1" vertex="1">
          <mxGeometry x="-940" y="600" width="300" height="138" as="geometry" />
        </mxCell>
        <mxCell id="--YtzrklkNBxloeXn2lH-210" value="+ strEquipmentName: String" style="text;strokeColor=none;fillColor=none;align=left;verticalAlign=top;spacingLeft=4;spacingRight=4;overflow=hidden;rotatable=0;points=[[0,0.5],[1,0.5]];portConstraint=eastwest;whiteSpace=wrap;html=1;" parent="--YtzrklkNBxloeXn2lH-209" vertex="1">
          <mxGeometry y="26" width="300" height="26" as="geometry" />
        </mxCell>
        <mxCell id="--YtzrklkNBxloeXn2lH-212" value="+ strEquipmentKeyName: String" style="text;strokeColor=none;fillColor=none;align=left;verticalAlign=top;spacingLeft=4;spacingRight=4;overflow=hidden;rotatable=0;points=[[0,0.5],[1,0.5]];portConstraint=eastwest;whiteSpace=wrap;html=1;" parent="--YtzrklkNBxloeXn2lH-209" vertex="1">
          <mxGeometry y="52" width="300" height="26" as="geometry" />
        </mxCell>
        <mxCell id="--YtzrklkNBxloeXn2lH-341" value="+ intEquipmentPrice" style="text;strokeColor=none;fillColor=none;align=left;verticalAlign=top;spacingLeft=4;spacingRight=4;overflow=hidden;rotatable=0;points=[[0,0.5],[1,0.5]];portConstraint=eastwest;whiteSpace=wrap;html=1;" parent="--YtzrklkNBxloeXn2lH-209" vertex="1">
          <mxGeometry y="78" width="300" height="26" as="geometry" />
        </mxCell>
        <mxCell id="--YtzrklkNBxloeXn2lH-211" value="" style="line;strokeWidth=1;fillColor=none;align=left;verticalAlign=middle;spacingTop=-1;spacingLeft=3;spacingRight=3;rotatable=0;labelPosition=right;points=[];portConstraint=eastwest;strokeColor=inherit;" parent="--YtzrklkNBxloeXn2lH-209" vertex="1">
          <mxGeometry y="104" width="300" height="8" as="geometry" />
        </mxCell>
        <mxCell id="--YtzrklkNBxloeXn2lH-219" value="- CheckRemainingSupplies(in id: Integer): Boolean" style="text;strokeColor=none;fillColor=none;align=left;verticalAlign=top;spacingLeft=4;spacingRight=4;overflow=hidden;rotatable=0;points=[[0,0.5],[1,0.5]];portConstraint=eastwest;whiteSpace=wrap;html=1;" parent="--YtzrklkNBxloeXn2lH-209" vertex="1">
          <mxGeometry y="112" width="300" height="26" as="geometry" />
        </mxCell>
        <UserObject label="Поставляется по" placeholders="1" name="Variable" id="--YtzrklkNBxloeXn2lH-215">
          <mxCell style="text;html=1;strokeColor=none;fillColor=none;align=center;verticalAlign=middle;whiteSpace=wrap;overflow=hidden;" parent="WIyWlLk6GJQsqaUBKTNV-1" vertex="1">
            <mxGeometry x="-1055" y="665" width="100" height="20" as="geometry" />
          </mxCell>
        </UserObject>
        <mxCell id="--YtzrklkNBxloeXn2lH-220" style="edgeStyle=orthogonalEdgeStyle;rounded=0;orthogonalLoop=1;jettySize=auto;html=1;exitX=1;exitY=0.5;exitDx=0;exitDy=0;startArrow=classic;startFill=1;endArrow=none;endFill=0;" parent="WIyWlLk6GJQsqaUBKTNV-1" source="--YtzrklkNBxloeXn2lH-212" edge="1" target="--YtzrklkNBxloeXn2lH-102">
          <mxGeometry relative="1" as="geometry">
            <mxPoint x="-510" y="665" as="targetPoint" />
            <Array as="points" />
          </mxGeometry>
        </mxCell>
        <mxCell id="--YtzrklkNBxloeXn2lH-221" value="Хранит" style="text;html=1;align=center;verticalAlign=middle;resizable=0;points=[];autosize=1;strokeColor=none;fillColor=none;" parent="WIyWlLk6GJQsqaUBKTNV-1" vertex="1">
          <mxGeometry x="-625" y="635" width="60" height="30" as="geometry" />
        </mxCell>
        <mxCell id="--YtzrklkNBxloeXn2lH-222" value="*" style="text;html=1;align=center;verticalAlign=middle;resizable=0;points=[];autosize=1;strokeColor=none;fillColor=none;" parent="WIyWlLk6GJQsqaUBKTNV-1" vertex="1">
          <mxGeometry x="-640" y="665" width="30" height="30" as="geometry" />
        </mxCell>
        <mxCell id="--YtzrklkNBxloeXn2lH-223" value="1" style="text;html=1;align=center;verticalAlign=middle;resizable=0;points=[];autosize=1;strokeColor=none;fillColor=none;" parent="WIyWlLk6GJQsqaUBKTNV-1" vertex="1">
          <mxGeometry x="-580" y="665" width="30" height="30" as="geometry" />
        </mxCell>
        <mxCell id="--YtzrklkNBxloeXn2lH-230" value="tblContract" style="shape=table;startSize=30;container=1;collapsible=1;childLayout=tableLayout;fixedRows=1;rowLines=0;fontStyle=1;align=center;resizeLast=1;html=1;" parent="WIyWlLk6GJQsqaUBKTNV-1" vertex="1">
          <mxGeometry x="-920" y="-1400" width="203" height="294" as="geometry" />
        </mxCell>
        <mxCell id="--YtzrklkNBxloeXn2lH-231" value="" style="shape=tableRow;horizontal=0;startSize=0;swimlaneHead=0;swimlaneBody=0;fillColor=none;collapsible=0;dropTarget=0;points=[[0,0.5],[1,0.5]];portConstraint=eastwest;top=0;left=0;right=0;bottom=1;" parent="--YtzrklkNBxloeXn2lH-230" vertex="1">
          <mxGeometry y="30" width="203" height="30" as="geometry" />
        </mxCell>
        <mxCell id="--YtzrklkNBxloeXn2lH-232" value="PK" style="shape=partialRectangle;connectable=0;fillColor=none;top=0;left=0;bottom=0;right=0;fontStyle=1;overflow=hidden;whiteSpace=wrap;html=1;" parent="--YtzrklkNBxloeXn2lH-231" vertex="1">
          <mxGeometry width="30" height="30" as="geometry">
            <mxRectangle width="30" height="30" as="alternateBounds" />
          </mxGeometry>
        </mxCell>
        <mxCell id="--YtzrklkNBxloeXn2lH-233" value="intContractID" style="shape=partialRectangle;connectable=0;fillColor=none;top=0;left=0;bottom=0;right=0;align=left;spacingLeft=6;fontStyle=5;overflow=hidden;whiteSpace=wrap;html=1;" parent="--YtzrklkNBxloeXn2lH-231" vertex="1">
          <mxGeometry x="30" width="173" height="30" as="geometry">
            <mxRectangle width="173" height="30" as="alternateBounds" />
          </mxGeometry>
        </mxCell>
        <mxCell id="--YtzrklkNBxloeXn2lH-237" style="shape=tableRow;horizontal=0;startSize=0;swimlaneHead=0;swimlaneBody=0;fillColor=none;collapsible=0;dropTarget=0;points=[[0,0.5],[1,0.5]];portConstraint=eastwest;top=0;left=0;right=0;bottom=0;" parent="--YtzrklkNBxloeXn2lH-230" vertex="1">
          <mxGeometry y="60" width="203" height="24" as="geometry" />
        </mxCell>
        <mxCell id="--YtzrklkNBxloeXn2lH-238" value="FK" style="shape=partialRectangle;connectable=0;fillColor=none;top=0;left=0;bottom=0;right=0;editable=1;overflow=hidden;whiteSpace=wrap;html=1;" parent="--YtzrklkNBxloeXn2lH-237" vertex="1">
          <mxGeometry width="30" height="24" as="geometry">
            <mxRectangle width="30" height="24" as="alternateBounds" />
          </mxGeometry>
        </mxCell>
        <mxCell id="--YtzrklkNBxloeXn2lH-239" value="intSiteID" style="shape=partialRectangle;connectable=0;fillColor=none;top=0;left=0;bottom=0;right=0;align=left;spacingLeft=6;overflow=hidden;whiteSpace=wrap;html=1;" parent="--YtzrklkNBxloeXn2lH-237" vertex="1">
          <mxGeometry x="30" width="173" height="24" as="geometry">
            <mxRectangle width="173" height="24" as="alternateBounds" />
          </mxGeometry>
        </mxCell>
        <mxCell id="--YtzrklkNBxloeXn2lH-234" value="" style="shape=tableRow;horizontal=0;startSize=0;swimlaneHead=0;swimlaneBody=0;fillColor=none;collapsible=0;dropTarget=0;points=[[0,0.5],[1,0.5]];portConstraint=eastwest;top=0;left=0;right=0;bottom=0;" parent="--YtzrklkNBxloeXn2lH-230" vertex="1">
          <mxGeometry y="84" width="203" height="30" as="geometry" />
        </mxCell>
        <mxCell id="--YtzrklkNBxloeXn2lH-235" value="" style="shape=partialRectangle;connectable=0;fillColor=none;top=0;left=0;bottom=0;right=0;editable=1;overflow=hidden;whiteSpace=wrap;html=1;" parent="--YtzrklkNBxloeXn2lH-234" vertex="1">
          <mxGeometry width="30" height="30" as="geometry">
            <mxRectangle width="30" height="30" as="alternateBounds" />
          </mxGeometry>
        </mxCell>
        <mxCell id="--YtzrklkNBxloeXn2lH-236" value="strDescription" style="shape=partialRectangle;connectable=0;fillColor=none;top=0;left=0;bottom=0;right=0;align=left;spacingLeft=6;overflow=hidden;whiteSpace=wrap;html=1;" parent="--YtzrklkNBxloeXn2lH-234" vertex="1">
          <mxGeometry x="30" width="173" height="30" as="geometry">
            <mxRectangle width="173" height="30" as="alternateBounds" />
          </mxGeometry>
        </mxCell>
        <mxCell id="--YtzrklkNBxloeXn2lH-240" style="shape=tableRow;horizontal=0;startSize=0;swimlaneHead=0;swimlaneBody=0;fillColor=none;collapsible=0;dropTarget=0;points=[[0,0.5],[1,0.5]];portConstraint=eastwest;top=0;left=0;right=0;bottom=0;" parent="--YtzrklkNBxloeXn2lH-230" vertex="1">
          <mxGeometry y="114" width="203" height="30" as="geometry" />
        </mxCell>
        <mxCell id="--YtzrklkNBxloeXn2lH-241" style="shape=partialRectangle;connectable=0;fillColor=none;top=0;left=0;bottom=0;right=0;editable=1;overflow=hidden;whiteSpace=wrap;html=1;" parent="--YtzrklkNBxloeXn2lH-240" vertex="1">
          <mxGeometry width="30" height="30" as="geometry">
            <mxRectangle width="30" height="30" as="alternateBounds" />
          </mxGeometry>
        </mxCell>
        <mxCell id="--YtzrklkNBxloeXn2lH-242" value="datDeadline" style="shape=partialRectangle;connectable=0;fillColor=none;top=0;left=0;bottom=0;right=0;align=left;spacingLeft=6;overflow=hidden;whiteSpace=wrap;html=1;" parent="--YtzrklkNBxloeXn2lH-240" vertex="1">
          <mxGeometry x="30" width="173" height="30" as="geometry">
            <mxRectangle width="173" height="30" as="alternateBounds" />
          </mxGeometry>
        </mxCell>
        <mxCell id="--YtzrklkNBxloeXn2lH-243" style="shape=tableRow;horizontal=0;startSize=0;swimlaneHead=0;swimlaneBody=0;fillColor=none;collapsible=0;dropTarget=0;points=[[0,0.5],[1,0.5]];portConstraint=eastwest;top=0;left=0;right=0;bottom=0;" parent="--YtzrklkNBxloeXn2lH-230" vertex="1">
          <mxGeometry y="144" width="203" height="30" as="geometry" />
        </mxCell>
        <mxCell id="--YtzrklkNBxloeXn2lH-244" style="shape=partialRectangle;connectable=0;fillColor=none;top=0;left=0;bottom=0;right=0;editable=1;overflow=hidden;whiteSpace=wrap;html=1;" parent="--YtzrklkNBxloeXn2lH-243" vertex="1">
          <mxGeometry width="30" height="30" as="geometry">
            <mxRectangle width="30" height="30" as="alternateBounds" />
          </mxGeometry>
        </mxCell>
        <mxCell id="--YtzrklkNBxloeXn2lH-245" value="boolNeedsService" style="shape=partialRectangle;connectable=0;fillColor=none;top=0;left=0;bottom=0;right=0;align=left;spacingLeft=6;overflow=hidden;whiteSpace=wrap;html=1;" parent="--YtzrklkNBxloeXn2lH-243" vertex="1">
          <mxGeometry x="30" width="173" height="30" as="geometry">
            <mxRectangle width="173" height="30" as="alternateBounds" />
          </mxGeometry>
        </mxCell>
        <mxCell id="--YtzrklkNBxloeXn2lH-271" style="shape=tableRow;horizontal=0;startSize=0;swimlaneHead=0;swimlaneBody=0;fillColor=none;collapsible=0;dropTarget=0;points=[[0,0.5],[1,0.5]];portConstraint=eastwest;top=0;left=0;right=0;bottom=0;" parent="--YtzrklkNBxloeXn2lH-230" vertex="1">
          <mxGeometry y="174" width="203" height="30" as="geometry" />
        </mxCell>
        <mxCell id="--YtzrklkNBxloeXn2lH-272" value="FK" style="shape=partialRectangle;connectable=0;fillColor=none;top=0;left=0;bottom=0;right=0;editable=1;overflow=hidden;whiteSpace=wrap;html=1;" parent="--YtzrklkNBxloeXn2lH-271" vertex="1">
          <mxGeometry width="30" height="30" as="geometry">
            <mxRectangle width="30" height="30" as="alternateBounds" />
          </mxGeometry>
        </mxCell>
        <mxCell id="--YtzrklkNBxloeXn2lH-273" value="intContractStatusID" style="shape=partialRectangle;connectable=0;fillColor=none;top=0;left=0;bottom=0;right=0;align=left;spacingLeft=6;overflow=hidden;whiteSpace=wrap;html=1;" parent="--YtzrklkNBxloeXn2lH-271" vertex="1">
          <mxGeometry x="30" width="173" height="30" as="geometry">
            <mxRectangle width="173" height="30" as="alternateBounds" />
          </mxGeometry>
        </mxCell>
        <mxCell id="--YtzrklkNBxloeXn2lH-262" style="shape=tableRow;horizontal=0;startSize=0;swimlaneHead=0;swimlaneBody=0;fillColor=none;collapsible=0;dropTarget=0;points=[[0,0.5],[1,0.5]];portConstraint=eastwest;top=0;left=0;right=0;bottom=0;" parent="--YtzrklkNBxloeXn2lH-230" vertex="1">
          <mxGeometry y="204" width="203" height="30" as="geometry" />
        </mxCell>
        <mxCell id="--YtzrklkNBxloeXn2lH-263" style="shape=partialRectangle;connectable=0;fillColor=none;top=0;left=0;bottom=0;right=0;editable=1;overflow=hidden;whiteSpace=wrap;html=1;" parent="--YtzrklkNBxloeXn2lH-262" vertex="1">
          <mxGeometry width="30" height="30" as="geometry">
            <mxRectangle width="30" height="30" as="alternateBounds" />
          </mxGeometry>
        </mxCell>
        <mxCell id="--YtzrklkNBxloeXn2lH-264" value="strContractDocumentName" style="shape=partialRectangle;connectable=0;fillColor=none;top=0;left=0;bottom=0;right=0;align=left;spacingLeft=6;overflow=hidden;whiteSpace=wrap;html=1;" parent="--YtzrklkNBxloeXn2lH-262" vertex="1">
          <mxGeometry x="30" width="173" height="30" as="geometry">
            <mxRectangle width="173" height="30" as="alternateBounds" />
          </mxGeometry>
        </mxCell>
        <mxCell id="--YtzrklkNBxloeXn2lH-265" style="shape=tableRow;horizontal=0;startSize=0;swimlaneHead=0;swimlaneBody=0;fillColor=none;collapsible=0;dropTarget=0;points=[[0,0.5],[1,0.5]];portConstraint=eastwest;top=0;left=0;right=0;bottom=0;" parent="--YtzrklkNBxloeXn2lH-230" vertex="1">
          <mxGeometry y="234" width="203" height="30" as="geometry" />
        </mxCell>
        <mxCell id="--YtzrklkNBxloeXn2lH-266" style="shape=partialRectangle;connectable=0;fillColor=none;top=0;left=0;bottom=0;right=0;editable=1;overflow=hidden;whiteSpace=wrap;html=1;" parent="--YtzrklkNBxloeXn2lH-265" vertex="1">
          <mxGeometry width="30" height="30" as="geometry">
            <mxRectangle width="30" height="30" as="alternateBounds" />
          </mxGeometry>
        </mxCell>
        <mxCell id="--YtzrklkNBxloeXn2lH-267" value="strContractNumber" style="shape=partialRectangle;connectable=0;fillColor=none;top=0;left=0;bottom=0;right=0;align=left;spacingLeft=6;overflow=hidden;whiteSpace=wrap;html=1;" parent="--YtzrklkNBxloeXn2lH-265" vertex="1">
          <mxGeometry x="30" width="173" height="30" as="geometry">
            <mxRectangle width="173" height="30" as="alternateBounds" />
          </mxGeometry>
        </mxCell>
        <mxCell id="--YtzrklkNBxloeXn2lH-268" style="shape=tableRow;horizontal=0;startSize=0;swimlaneHead=0;swimlaneBody=0;fillColor=none;collapsible=0;dropTarget=0;points=[[0,0.5],[1,0.5]];portConstraint=eastwest;top=0;left=0;right=0;bottom=0;" parent="--YtzrklkNBxloeXn2lH-230" vertex="1">
          <mxGeometry y="264" width="203" height="30" as="geometry" />
        </mxCell>
        <mxCell id="--YtzrklkNBxloeXn2lH-269" style="shape=partialRectangle;connectable=0;fillColor=none;top=0;left=0;bottom=0;right=0;editable=1;overflow=hidden;whiteSpace=wrap;html=1;" parent="--YtzrklkNBxloeXn2lH-268" vertex="1">
          <mxGeometry width="30" height="30" as="geometry">
            <mxRectangle width="30" height="30" as="alternateBounds" />
          </mxGeometry>
        </mxCell>
        <mxCell id="--YtzrklkNBxloeXn2lH-270" value="datContractDate" style="shape=partialRectangle;connectable=0;fillColor=none;top=0;left=0;bottom=0;right=0;align=left;spacingLeft=6;overflow=hidden;whiteSpace=wrap;html=1;" parent="--YtzrklkNBxloeXn2lH-268" vertex="1">
          <mxGeometry x="30" width="173" height="30" as="geometry">
            <mxRectangle width="173" height="30" as="alternateBounds" />
          </mxGeometry>
        </mxCell>
        <mxCell id="--YtzrklkNBxloeXn2lH-274" value="tblContractStatus" style="shape=table;startSize=30;container=1;collapsible=1;childLayout=tableLayout;fixedRows=1;rowLines=0;fontStyle=1;align=center;resizeLast=1;html=1;" parent="WIyWlLk6GJQsqaUBKTNV-1" vertex="1">
          <mxGeometry x="-1210" y="-1256" width="250" height="84" as="geometry" />
        </mxCell>
        <mxCell id="--YtzrklkNBxloeXn2lH-275" value="" style="shape=tableRow;horizontal=0;startSize=0;swimlaneHead=0;swimlaneBody=0;fillColor=none;collapsible=0;dropTarget=0;points=[[0,0.5],[1,0.5]];portConstraint=eastwest;top=0;left=0;right=0;bottom=1;" parent="--YtzrklkNBxloeXn2lH-274" vertex="1">
          <mxGeometry y="30" width="250" height="30" as="geometry" />
        </mxCell>
        <mxCell id="--YtzrklkNBxloeXn2lH-276" value="PK" style="shape=partialRectangle;connectable=0;fillColor=none;top=0;left=0;bottom=0;right=0;fontStyle=1;overflow=hidden;whiteSpace=wrap;html=1;" parent="--YtzrklkNBxloeXn2lH-275" vertex="1">
          <mxGeometry width="30" height="30" as="geometry">
            <mxRectangle width="30" height="30" as="alternateBounds" />
          </mxGeometry>
        </mxCell>
        <mxCell id="--YtzrklkNBxloeXn2lH-277" value="intContractStatusID" style="shape=partialRectangle;connectable=0;fillColor=none;top=0;left=0;bottom=0;right=0;align=left;spacingLeft=6;fontStyle=5;overflow=hidden;whiteSpace=wrap;html=1;" parent="--YtzrklkNBxloeXn2lH-275" vertex="1">
          <mxGeometry x="30" width="220" height="30" as="geometry">
            <mxRectangle width="220" height="30" as="alternateBounds" />
          </mxGeometry>
        </mxCell>
        <mxCell id="--YtzrklkNBxloeXn2lH-278" style="shape=tableRow;horizontal=0;startSize=0;swimlaneHead=0;swimlaneBody=0;fillColor=none;collapsible=0;dropTarget=0;points=[[0,0.5],[1,0.5]];portConstraint=eastwest;top=0;left=0;right=0;bottom=0;" parent="--YtzrklkNBxloeXn2lH-274" vertex="1">
          <mxGeometry y="60" width="250" height="24" as="geometry" />
        </mxCell>
        <mxCell id="--YtzrklkNBxloeXn2lH-279" value="" style="shape=partialRectangle;connectable=0;fillColor=none;top=0;left=0;bottom=0;right=0;editable=1;overflow=hidden;whiteSpace=wrap;html=1;" parent="--YtzrklkNBxloeXn2lH-278" vertex="1">
          <mxGeometry width="30" height="24" as="geometry">
            <mxRectangle width="30" height="24" as="alternateBounds" />
          </mxGeometry>
        </mxCell>
        <mxCell id="--YtzrklkNBxloeXn2lH-280" value="strContractStatusName" style="shape=partialRectangle;connectable=0;fillColor=none;top=0;left=0;bottom=0;right=0;align=left;spacingLeft=6;overflow=hidden;whiteSpace=wrap;html=1;" parent="--YtzrklkNBxloeXn2lH-278" vertex="1">
          <mxGeometry x="30" width="220" height="24" as="geometry">
            <mxRectangle width="220" height="24" as="alternateBounds" />
          </mxGeometry>
        </mxCell>
        <mxCell id="--YtzrklkNBxloeXn2lH-284" value="tblJobStatus" style="shape=table;startSize=30;container=1;collapsible=1;childLayout=tableLayout;fixedRows=1;rowLines=0;fontStyle=1;align=center;resizeLast=1;html=1;" parent="WIyWlLk6GJQsqaUBKTNV-1" vertex="1">
          <mxGeometry x="-375" y="-1210" width="250" height="84" as="geometry" />
        </mxCell>
        <mxCell id="--YtzrklkNBxloeXn2lH-285" value="" style="shape=tableRow;horizontal=0;startSize=0;swimlaneHead=0;swimlaneBody=0;fillColor=none;collapsible=0;dropTarget=0;points=[[0,0.5],[1,0.5]];portConstraint=eastwest;top=0;left=0;right=0;bottom=1;" parent="--YtzrklkNBxloeXn2lH-284" vertex="1">
          <mxGeometry y="30" width="250" height="30" as="geometry" />
        </mxCell>
        <mxCell id="--YtzrklkNBxloeXn2lH-286" value="PK" style="shape=partialRectangle;connectable=0;fillColor=none;top=0;left=0;bottom=0;right=0;fontStyle=1;overflow=hidden;whiteSpace=wrap;html=1;" parent="--YtzrklkNBxloeXn2lH-285" vertex="1">
          <mxGeometry width="30" height="30" as="geometry">
            <mxRectangle width="30" height="30" as="alternateBounds" />
          </mxGeometry>
        </mxCell>
        <mxCell id="--YtzrklkNBxloeXn2lH-287" value="intJobStatusID" style="shape=partialRectangle;connectable=0;fillColor=none;top=0;left=0;bottom=0;right=0;align=left;spacingLeft=6;fontStyle=5;overflow=hidden;whiteSpace=wrap;html=1;" parent="--YtzrklkNBxloeXn2lH-285" vertex="1">
          <mxGeometry x="30" width="220" height="30" as="geometry">
            <mxRectangle width="220" height="30" as="alternateBounds" />
          </mxGeometry>
        </mxCell>
        <mxCell id="--YtzrklkNBxloeXn2lH-288" style="shape=tableRow;horizontal=0;startSize=0;swimlaneHead=0;swimlaneBody=0;fillColor=none;collapsible=0;dropTarget=0;points=[[0,0.5],[1,0.5]];portConstraint=eastwest;top=0;left=0;right=0;bottom=0;" parent="--YtzrklkNBxloeXn2lH-284" vertex="1">
          <mxGeometry y="60" width="250" height="24" as="geometry" />
        </mxCell>
        <mxCell id="--YtzrklkNBxloeXn2lH-289" value="" style="shape=partialRectangle;connectable=0;fillColor=none;top=0;left=0;bottom=0;right=0;editable=1;overflow=hidden;whiteSpace=wrap;html=1;" parent="--YtzrklkNBxloeXn2lH-288" vertex="1">
          <mxGeometry width="30" height="24" as="geometry">
            <mxRectangle width="30" height="24" as="alternateBounds" />
          </mxGeometry>
        </mxCell>
        <mxCell id="--YtzrklkNBxloeXn2lH-290" value="strJobStatusName" style="shape=partialRectangle;connectable=0;fillColor=none;top=0;left=0;bottom=0;right=0;align=left;spacingLeft=6;overflow=hidden;whiteSpace=wrap;html=1;" parent="--YtzrklkNBxloeXn2lH-288" vertex="1">
          <mxGeometry x="30" width="220" height="24" as="geometry">
            <mxRectangle width="220" height="24" as="alternateBounds" />
          </mxGeometry>
        </mxCell>
        <mxCell id="--YtzrklkNBxloeXn2lH-291" value="tblOrderStatus" style="shape=table;startSize=30;container=1;collapsible=1;childLayout=tableLayout;fixedRows=1;rowLines=0;fontStyle=1;align=center;resizeLast=1;html=1;" parent="WIyWlLk6GJQsqaUBKTNV-1" vertex="1">
          <mxGeometry x="-430" y="-444" width="250" height="84" as="geometry" />
        </mxCell>
        <mxCell id="--YtzrklkNBxloeXn2lH-292" value="" style="shape=tableRow;horizontal=0;startSize=0;swimlaneHead=0;swimlaneBody=0;fillColor=none;collapsible=0;dropTarget=0;points=[[0,0.5],[1,0.5]];portConstraint=eastwest;top=0;left=0;right=0;bottom=1;" parent="--YtzrklkNBxloeXn2lH-291" vertex="1">
          <mxGeometry y="30" width="250" height="30" as="geometry" />
        </mxCell>
        <mxCell id="--YtzrklkNBxloeXn2lH-293" value="PK" style="shape=partialRectangle;connectable=0;fillColor=none;top=0;left=0;bottom=0;right=0;fontStyle=1;overflow=hidden;whiteSpace=wrap;html=1;" parent="--YtzrklkNBxloeXn2lH-292" vertex="1">
          <mxGeometry width="30" height="30" as="geometry">
            <mxRectangle width="30" height="30" as="alternateBounds" />
          </mxGeometry>
        </mxCell>
        <mxCell id="--YtzrklkNBxloeXn2lH-294" value="intOrderStatusID" style="shape=partialRectangle;connectable=0;fillColor=none;top=0;left=0;bottom=0;right=0;align=left;spacingLeft=6;fontStyle=5;overflow=hidden;whiteSpace=wrap;html=1;" parent="--YtzrklkNBxloeXn2lH-292" vertex="1">
          <mxGeometry x="30" width="220" height="30" as="geometry">
            <mxRectangle width="220" height="30" as="alternateBounds" />
          </mxGeometry>
        </mxCell>
        <mxCell id="--YtzrklkNBxloeXn2lH-295" style="shape=tableRow;horizontal=0;startSize=0;swimlaneHead=0;swimlaneBody=0;fillColor=none;collapsible=0;dropTarget=0;points=[[0,0.5],[1,0.5]];portConstraint=eastwest;top=0;left=0;right=0;bottom=0;" parent="--YtzrklkNBxloeXn2lH-291" vertex="1">
          <mxGeometry y="60" width="250" height="24" as="geometry" />
        </mxCell>
        <mxCell id="--YtzrklkNBxloeXn2lH-296" value="" style="shape=partialRectangle;connectable=0;fillColor=none;top=0;left=0;bottom=0;right=0;editable=1;overflow=hidden;whiteSpace=wrap;html=1;" parent="--YtzrklkNBxloeXn2lH-295" vertex="1">
          <mxGeometry width="30" height="24" as="geometry">
            <mxRectangle width="30" height="24" as="alternateBounds" />
          </mxGeometry>
        </mxCell>
        <mxCell id="--YtzrklkNBxloeXn2lH-297" value="strOrderStatusName" style="shape=partialRectangle;connectable=0;fillColor=none;top=0;left=0;bottom=0;right=0;align=left;spacingLeft=6;overflow=hidden;whiteSpace=wrap;html=1;" parent="--YtzrklkNBxloeXn2lH-295" vertex="1">
          <mxGeometry x="30" width="220" height="24" as="geometry">
            <mxRectangle width="220" height="24" as="alternateBounds" />
          </mxGeometry>
        </mxCell>
        <mxCell id="--YtzrklkNBxloeXn2lH-298" value="tblShipmentStatus" style="shape=table;startSize=30;container=1;collapsible=1;childLayout=tableLayout;fixedRows=1;rowLines=0;fontStyle=1;align=center;resizeLast=1;html=1;" parent="WIyWlLk6GJQsqaUBKTNV-1" vertex="1">
          <mxGeometry x="-1210" y="-680" width="250" height="84" as="geometry" />
        </mxCell>
        <mxCell id="--YtzrklkNBxloeXn2lH-299" value="" style="shape=tableRow;horizontal=0;startSize=0;swimlaneHead=0;swimlaneBody=0;fillColor=none;collapsible=0;dropTarget=0;points=[[0,0.5],[1,0.5]];portConstraint=eastwest;top=0;left=0;right=0;bottom=1;" parent="--YtzrklkNBxloeXn2lH-298" vertex="1">
          <mxGeometry y="30" width="250" height="30" as="geometry" />
        </mxCell>
        <mxCell id="--YtzrklkNBxloeXn2lH-300" value="PK" style="shape=partialRectangle;connectable=0;fillColor=none;top=0;left=0;bottom=0;right=0;fontStyle=1;overflow=hidden;whiteSpace=wrap;html=1;" parent="--YtzrklkNBxloeXn2lH-299" vertex="1">
          <mxGeometry width="30" height="30" as="geometry">
            <mxRectangle width="30" height="30" as="alternateBounds" />
          </mxGeometry>
        </mxCell>
        <mxCell id="--YtzrklkNBxloeXn2lH-301" value="intShipmentStatusID" style="shape=partialRectangle;connectable=0;fillColor=none;top=0;left=0;bottom=0;right=0;align=left;spacingLeft=6;fontStyle=5;overflow=hidden;whiteSpace=wrap;html=1;" parent="--YtzrklkNBxloeXn2lH-299" vertex="1">
          <mxGeometry x="30" width="220" height="30" as="geometry">
            <mxRectangle width="220" height="30" as="alternateBounds" />
          </mxGeometry>
        </mxCell>
        <mxCell id="--YtzrklkNBxloeXn2lH-302" style="shape=tableRow;horizontal=0;startSize=0;swimlaneHead=0;swimlaneBody=0;fillColor=none;collapsible=0;dropTarget=0;points=[[0,0.5],[1,0.5]];portConstraint=eastwest;top=0;left=0;right=0;bottom=0;" parent="--YtzrklkNBxloeXn2lH-298" vertex="1">
          <mxGeometry y="60" width="250" height="24" as="geometry" />
        </mxCell>
        <mxCell id="--YtzrklkNBxloeXn2lH-303" value="" style="shape=partialRectangle;connectable=0;fillColor=none;top=0;left=0;bottom=0;right=0;editable=1;overflow=hidden;whiteSpace=wrap;html=1;" parent="--YtzrklkNBxloeXn2lH-302" vertex="1">
          <mxGeometry width="30" height="24" as="geometry">
            <mxRectangle width="30" height="24" as="alternateBounds" />
          </mxGeometry>
        </mxCell>
        <mxCell id="--YtzrklkNBxloeXn2lH-304" value="strShipmentStatusName" style="shape=partialRectangle;connectable=0;fillColor=none;top=0;left=0;bottom=0;right=0;align=left;spacingLeft=6;overflow=hidden;whiteSpace=wrap;html=1;" parent="--YtzrklkNBxloeXn2lH-302" vertex="1">
          <mxGeometry x="30" width="220" height="24" as="geometry">
            <mxRectangle width="220" height="24" as="alternateBounds" />
          </mxGeometry>
        </mxCell>
        <mxCell id="--YtzrklkNBxloeXn2lH-305" value="tblJob" style="shape=table;startSize=30;container=1;collapsible=1;childLayout=tableLayout;fixedRows=1;rowLines=0;fontStyle=1;align=center;resizeLast=1;html=1;" parent="WIyWlLk6GJQsqaUBKTNV-1" vertex="1">
          <mxGeometry x="-375" y="-1340" width="250" height="84" as="geometry" />
        </mxCell>
        <mxCell id="--YtzrklkNBxloeXn2lH-306" value="" style="shape=tableRow;horizontal=0;startSize=0;swimlaneHead=0;swimlaneBody=0;fillColor=none;collapsible=0;dropTarget=0;points=[[0,0.5],[1,0.5]];portConstraint=eastwest;top=0;left=0;right=0;bottom=1;" parent="--YtzrklkNBxloeXn2lH-305" vertex="1">
          <mxGeometry y="30" width="250" height="30" as="geometry" />
        </mxCell>
        <mxCell id="--YtzrklkNBxloeXn2lH-307" value="PK" style="shape=partialRectangle;connectable=0;fillColor=none;top=0;left=0;bottom=0;right=0;fontStyle=1;overflow=hidden;whiteSpace=wrap;html=1;" parent="--YtzrklkNBxloeXn2lH-306" vertex="1">
          <mxGeometry width="30" height="30" as="geometry">
            <mxRectangle width="30" height="30" as="alternateBounds" />
          </mxGeometry>
        </mxCell>
        <mxCell id="--YtzrklkNBxloeXn2lH-308" value="intJobID" style="shape=partialRectangle;connectable=0;fillColor=none;top=0;left=0;bottom=0;right=0;align=left;spacingLeft=6;fontStyle=5;overflow=hidden;whiteSpace=wrap;html=1;" parent="--YtzrklkNBxloeXn2lH-306" vertex="1">
          <mxGeometry x="30" width="220" height="30" as="geometry">
            <mxRectangle width="220" height="30" as="alternateBounds" />
          </mxGeometry>
        </mxCell>
        <mxCell id="--YtzrklkNBxloeXn2lH-309" style="shape=tableRow;horizontal=0;startSize=0;swimlaneHead=0;swimlaneBody=0;fillColor=none;collapsible=0;dropTarget=0;points=[[0,0.5],[1,0.5]];portConstraint=eastwest;top=0;left=0;right=0;bottom=0;" parent="--YtzrklkNBxloeXn2lH-305" vertex="1">
          <mxGeometry y="60" width="250" height="24" as="geometry" />
        </mxCell>
        <mxCell id="--YtzrklkNBxloeXn2lH-310" value="" style="shape=partialRectangle;connectable=0;fillColor=none;top=0;left=0;bottom=0;right=0;editable=1;overflow=hidden;whiteSpace=wrap;html=1;" parent="--YtzrklkNBxloeXn2lH-309" vertex="1">
          <mxGeometry width="30" height="24" as="geometry">
            <mxRectangle width="30" height="24" as="alternateBounds" />
          </mxGeometry>
        </mxCell>
        <mxCell id="--YtzrklkNBxloeXn2lH-311" value="strJobName" style="shape=partialRectangle;connectable=0;fillColor=none;top=0;left=0;bottom=0;right=0;align=left;spacingLeft=6;overflow=hidden;whiteSpace=wrap;html=1;" parent="--YtzrklkNBxloeXn2lH-309" vertex="1">
          <mxGeometry x="30" width="220" height="24" as="geometry">
            <mxRectangle width="220" height="24" as="alternateBounds" />
          </mxGeometry>
        </mxCell>
        <mxCell id="--YtzrklkNBxloeXn2lH-312" value="tblShipment" style="shape=table;startSize=30;container=1;collapsible=1;childLayout=tableLayout;fixedRows=1;rowLines=0;fontStyle=1;align=center;resizeLast=1;html=1;" parent="WIyWlLk6GJQsqaUBKTNV-1" vertex="1">
          <mxGeometry x="-935" y="-1010" width="180" height="270" as="geometry" />
        </mxCell>
        <mxCell id="--YtzrklkNBxloeXn2lH-313" value="" style="shape=tableRow;horizontal=0;startSize=0;swimlaneHead=0;swimlaneBody=0;fillColor=none;collapsible=0;dropTarget=0;points=[[0,0.5],[1,0.5]];portConstraint=eastwest;top=0;left=0;right=0;bottom=1;" parent="--YtzrklkNBxloeXn2lH-312" vertex="1">
          <mxGeometry y="30" width="180" height="30" as="geometry" />
        </mxCell>
        <mxCell id="--YtzrklkNBxloeXn2lH-314" value="PK" style="shape=partialRectangle;connectable=0;fillColor=none;top=0;left=0;bottom=0;right=0;fontStyle=1;overflow=hidden;whiteSpace=wrap;html=1;" parent="--YtzrklkNBxloeXn2lH-313" vertex="1">
          <mxGeometry width="30" height="30" as="geometry">
            <mxRectangle width="30" height="30" as="alternateBounds" />
          </mxGeometry>
        </mxCell>
        <mxCell id="--YtzrklkNBxloeXn2lH-315" value="intShipmentID" style="shape=partialRectangle;connectable=0;fillColor=none;top=0;left=0;bottom=0;right=0;align=left;spacingLeft=6;fontStyle=5;overflow=hidden;whiteSpace=wrap;html=1;" parent="--YtzrklkNBxloeXn2lH-313" vertex="1">
          <mxGeometry x="30" width="150" height="30" as="geometry">
            <mxRectangle width="150" height="30" as="alternateBounds" />
          </mxGeometry>
        </mxCell>
        <mxCell id="--YtzrklkNBxloeXn2lH-316" value="" style="shape=tableRow;horizontal=0;startSize=0;swimlaneHead=0;swimlaneBody=0;fillColor=none;collapsible=0;dropTarget=0;points=[[0,0.5],[1,0.5]];portConstraint=eastwest;top=0;left=0;right=0;bottom=0;" parent="--YtzrklkNBxloeXn2lH-312" vertex="1">
          <mxGeometry y="60" width="180" height="30" as="geometry" />
        </mxCell>
        <mxCell id="--YtzrklkNBxloeXn2lH-317" value="" style="shape=partialRectangle;connectable=0;fillColor=none;top=0;left=0;bottom=0;right=0;editable=1;overflow=hidden;whiteSpace=wrap;html=1;" parent="--YtzrklkNBxloeXn2lH-316" vertex="1">
          <mxGeometry width="30" height="30" as="geometry">
            <mxRectangle width="30" height="30" as="alternateBounds" />
          </mxGeometry>
        </mxCell>
        <mxCell id="--YtzrklkNBxloeXn2lH-318" value="datShipmentDate" style="shape=partialRectangle;connectable=0;fillColor=none;top=0;left=0;bottom=0;right=0;align=left;spacingLeft=6;overflow=hidden;whiteSpace=wrap;html=1;" parent="--YtzrklkNBxloeXn2lH-316" vertex="1">
          <mxGeometry x="30" width="150" height="30" as="geometry">
            <mxRectangle width="150" height="30" as="alternateBounds" />
          </mxGeometry>
        </mxCell>
        <mxCell id="--YtzrklkNBxloeXn2lH-417" style="shape=tableRow;horizontal=0;startSize=0;swimlaneHead=0;swimlaneBody=0;fillColor=none;collapsible=0;dropTarget=0;points=[[0,0.5],[1,0.5]];portConstraint=eastwest;top=0;left=0;right=0;bottom=0;" parent="--YtzrklkNBxloeXn2lH-312" vertex="1">
          <mxGeometry y="90" width="180" height="30" as="geometry" />
        </mxCell>
        <mxCell id="--YtzrklkNBxloeXn2lH-418" value="FK" style="shape=partialRectangle;connectable=0;fillColor=none;top=0;left=0;bottom=0;right=0;editable=1;overflow=hidden;whiteSpace=wrap;html=1;" parent="--YtzrklkNBxloeXn2lH-417" vertex="1">
          <mxGeometry width="30" height="30" as="geometry">
            <mxRectangle width="30" height="30" as="alternateBounds" />
          </mxGeometry>
        </mxCell>
        <mxCell id="--YtzrklkNBxloeXn2lH-419" value="intContractID" style="shape=partialRectangle;connectable=0;fillColor=none;top=0;left=0;bottom=0;right=0;align=left;spacingLeft=6;overflow=hidden;whiteSpace=wrap;html=1;" parent="--YtzrklkNBxloeXn2lH-417" vertex="1">
          <mxGeometry x="30" width="150" height="30" as="geometry">
            <mxRectangle width="150" height="30" as="alternateBounds" />
          </mxGeometry>
        </mxCell>
        <mxCell id="--YtzrklkNBxloeXn2lH-319" value="" style="shape=tableRow;horizontal=0;startSize=0;swimlaneHead=0;swimlaneBody=0;fillColor=none;collapsible=0;dropTarget=0;points=[[0,0.5],[1,0.5]];portConstraint=eastwest;top=0;left=0;right=0;bottom=0;" parent="--YtzrklkNBxloeXn2lH-312" vertex="1">
          <mxGeometry y="120" width="180" height="30" as="geometry" />
        </mxCell>
        <mxCell id="--YtzrklkNBxloeXn2lH-320" value="FK" style="shape=partialRectangle;connectable=0;fillColor=none;top=0;left=0;bottom=0;right=0;editable=1;overflow=hidden;whiteSpace=wrap;html=1;" parent="--YtzrklkNBxloeXn2lH-319" vertex="1">
          <mxGeometry width="30" height="30" as="geometry">
            <mxRectangle width="30" height="30" as="alternateBounds" />
          </mxGeometry>
        </mxCell>
        <mxCell id="--YtzrklkNBxloeXn2lH-321" value="intEquipmentID" style="shape=partialRectangle;connectable=0;fillColor=none;top=0;left=0;bottom=0;right=0;align=left;spacingLeft=6;overflow=hidden;whiteSpace=wrap;html=1;" parent="--YtzrklkNBxloeXn2lH-319" vertex="1">
          <mxGeometry x="30" width="150" height="30" as="geometry">
            <mxRectangle width="150" height="30" as="alternateBounds" />
          </mxGeometry>
        </mxCell>
        <mxCell id="--YtzrklkNBxloeXn2lH-322" value="" style="shape=tableRow;horizontal=0;startSize=0;swimlaneHead=0;swimlaneBody=0;fillColor=none;collapsible=0;dropTarget=0;points=[[0,0.5],[1,0.5]];portConstraint=eastwest;top=0;left=0;right=0;bottom=0;" parent="--YtzrklkNBxloeXn2lH-312" vertex="1">
          <mxGeometry y="150" width="180" height="30" as="geometry" />
        </mxCell>
        <mxCell id="--YtzrklkNBxloeXn2lH-323" value="" style="shape=partialRectangle;connectable=0;fillColor=none;top=0;left=0;bottom=0;right=0;editable=1;overflow=hidden;whiteSpace=wrap;html=1;" parent="--YtzrklkNBxloeXn2lH-322" vertex="1">
          <mxGeometry width="30" height="30" as="geometry">
            <mxRectangle width="30" height="30" as="alternateBounds" />
          </mxGeometry>
        </mxCell>
        <mxCell id="--YtzrklkNBxloeXn2lH-324" value="strUnit" style="shape=partialRectangle;connectable=0;fillColor=none;top=0;left=0;bottom=0;right=0;align=left;spacingLeft=6;overflow=hidden;whiteSpace=wrap;html=1;" parent="--YtzrklkNBxloeXn2lH-322" vertex="1">
          <mxGeometry x="30" width="150" height="30" as="geometry">
            <mxRectangle width="150" height="30" as="alternateBounds" />
          </mxGeometry>
        </mxCell>
        <mxCell id="--YtzrklkNBxloeXn2lH-332" style="shape=tableRow;horizontal=0;startSize=0;swimlaneHead=0;swimlaneBody=0;fillColor=none;collapsible=0;dropTarget=0;points=[[0,0.5],[1,0.5]];portConstraint=eastwest;top=0;left=0;right=0;bottom=0;" parent="--YtzrklkNBxloeXn2lH-312" vertex="1">
          <mxGeometry y="180" width="180" height="30" as="geometry" />
        </mxCell>
        <mxCell id="--YtzrklkNBxloeXn2lH-333" style="shape=partialRectangle;connectable=0;fillColor=none;top=0;left=0;bottom=0;right=0;editable=1;overflow=hidden;whiteSpace=wrap;html=1;" parent="--YtzrklkNBxloeXn2lH-332" vertex="1">
          <mxGeometry width="30" height="30" as="geometry">
            <mxRectangle width="30" height="30" as="alternateBounds" />
          </mxGeometry>
        </mxCell>
        <mxCell id="--YtzrklkNBxloeXn2lH-334" value="intAmount" style="shape=partialRectangle;connectable=0;fillColor=none;top=0;left=0;bottom=0;right=0;align=left;spacingLeft=6;overflow=hidden;whiteSpace=wrap;html=1;" parent="--YtzrklkNBxloeXn2lH-332" vertex="1">
          <mxGeometry x="30" width="150" height="30" as="geometry">
            <mxRectangle width="150" height="30" as="alternateBounds" />
          </mxGeometry>
        </mxCell>
        <mxCell id="--YtzrklkNBxloeXn2lH-335" style="shape=tableRow;horizontal=0;startSize=0;swimlaneHead=0;swimlaneBody=0;fillColor=none;collapsible=0;dropTarget=0;points=[[0,0.5],[1,0.5]];portConstraint=eastwest;top=0;left=0;right=0;bottom=0;" parent="--YtzrklkNBxloeXn2lH-312" vertex="1">
          <mxGeometry y="210" width="180" height="30" as="geometry" />
        </mxCell>
        <mxCell id="--YtzrklkNBxloeXn2lH-336" style="shape=partialRectangle;connectable=0;fillColor=none;top=0;left=0;bottom=0;right=0;editable=1;overflow=hidden;whiteSpace=wrap;html=1;" parent="--YtzrklkNBxloeXn2lH-335" vertex="1">
          <mxGeometry width="30" height="30" as="geometry">
            <mxRectangle width="30" height="30" as="alternateBounds" />
          </mxGeometry>
        </mxCell>
        <mxCell id="--YtzrklkNBxloeXn2lH-337" value="intShipmentTotal" style="shape=partialRectangle;connectable=0;fillColor=none;top=0;left=0;bottom=0;right=0;align=left;spacingLeft=6;overflow=hidden;whiteSpace=wrap;html=1;" parent="--YtzrklkNBxloeXn2lH-335" vertex="1">
          <mxGeometry x="30" width="150" height="30" as="geometry">
            <mxRectangle width="150" height="30" as="alternateBounds" />
          </mxGeometry>
        </mxCell>
        <mxCell id="--YtzrklkNBxloeXn2lH-338" style="shape=tableRow;horizontal=0;startSize=0;swimlaneHead=0;swimlaneBody=0;fillColor=none;collapsible=0;dropTarget=0;points=[[0,0.5],[1,0.5]];portConstraint=eastwest;top=0;left=0;right=0;bottom=0;" parent="--YtzrklkNBxloeXn2lH-312" vertex="1">
          <mxGeometry y="240" width="180" height="30" as="geometry" />
        </mxCell>
        <mxCell id="--YtzrklkNBxloeXn2lH-339" value="FK" style="shape=partialRectangle;connectable=0;fillColor=none;top=0;left=0;bottom=0;right=0;editable=1;overflow=hidden;whiteSpace=wrap;html=1;" parent="--YtzrklkNBxloeXn2lH-338" vertex="1">
          <mxGeometry width="30" height="30" as="geometry">
            <mxRectangle width="30" height="30" as="alternateBounds" />
          </mxGeometry>
        </mxCell>
        <mxCell id="--YtzrklkNBxloeXn2lH-340" value="intShipmentStatusID" style="shape=partialRectangle;connectable=0;fillColor=none;top=0;left=0;bottom=0;right=0;align=left;spacingLeft=6;overflow=hidden;whiteSpace=wrap;html=1;" parent="--YtzrklkNBxloeXn2lH-338" vertex="1">
          <mxGeometry x="30" width="150" height="30" as="geometry">
            <mxRectangle width="150" height="30" as="alternateBounds" />
          </mxGeometry>
        </mxCell>
        <mxCell id="--YtzrklkNBxloeXn2lH-342" value="tblEquipment" style="shape=table;startSize=30;container=1;collapsible=1;childLayout=tableLayout;fixedRows=1;rowLines=0;fontStyle=1;align=center;resizeLast=1;html=1;" parent="WIyWlLk6GJQsqaUBKTNV-1" vertex="1">
          <mxGeometry x="-605" y="-980" width="180" height="150" as="geometry" />
        </mxCell>
        <mxCell id="--YtzrklkNBxloeXn2lH-343" value="" style="shape=tableRow;horizontal=0;startSize=0;swimlaneHead=0;swimlaneBody=0;fillColor=none;collapsible=0;dropTarget=0;points=[[0,0.5],[1,0.5]];portConstraint=eastwest;top=0;left=0;right=0;bottom=1;" parent="--YtzrklkNBxloeXn2lH-342" vertex="1">
          <mxGeometry y="30" width="180" height="30" as="geometry" />
        </mxCell>
        <mxCell id="--YtzrklkNBxloeXn2lH-344" value="PK" style="shape=partialRectangle;connectable=0;fillColor=none;top=0;left=0;bottom=0;right=0;fontStyle=1;overflow=hidden;whiteSpace=wrap;html=1;" parent="--YtzrklkNBxloeXn2lH-343" vertex="1">
          <mxGeometry width="30" height="30" as="geometry">
            <mxRectangle width="30" height="30" as="alternateBounds" />
          </mxGeometry>
        </mxCell>
        <mxCell id="--YtzrklkNBxloeXn2lH-345" value="intEquipmentID" style="shape=partialRectangle;connectable=0;fillColor=none;top=0;left=0;bottom=0;right=0;align=left;spacingLeft=6;fontStyle=5;overflow=hidden;whiteSpace=wrap;html=1;" parent="--YtzrklkNBxloeXn2lH-343" vertex="1">
          <mxGeometry x="30" width="150" height="30" as="geometry">
            <mxRectangle width="150" height="30" as="alternateBounds" />
          </mxGeometry>
        </mxCell>
        <mxCell id="--YtzrklkNBxloeXn2lH-346" value="" style="shape=tableRow;horizontal=0;startSize=0;swimlaneHead=0;swimlaneBody=0;fillColor=none;collapsible=0;dropTarget=0;points=[[0,0.5],[1,0.5]];portConstraint=eastwest;top=0;left=0;right=0;bottom=0;" parent="--YtzrklkNBxloeXn2lH-342" vertex="1">
          <mxGeometry y="60" width="180" height="30" as="geometry" />
        </mxCell>
        <mxCell id="--YtzrklkNBxloeXn2lH-347" value="" style="shape=partialRectangle;connectable=0;fillColor=none;top=0;left=0;bottom=0;right=0;editable=1;overflow=hidden;whiteSpace=wrap;html=1;" parent="--YtzrklkNBxloeXn2lH-346" vertex="1">
          <mxGeometry width="30" height="30" as="geometry">
            <mxRectangle width="30" height="30" as="alternateBounds" />
          </mxGeometry>
        </mxCell>
        <mxCell id="--YtzrklkNBxloeXn2lH-348" value="strEquipmentName" style="shape=partialRectangle;connectable=0;fillColor=none;top=0;left=0;bottom=0;right=0;align=left;spacingLeft=6;overflow=hidden;whiteSpace=wrap;html=1;" parent="--YtzrklkNBxloeXn2lH-346" vertex="1">
          <mxGeometry x="30" width="150" height="30" as="geometry">
            <mxRectangle width="150" height="30" as="alternateBounds" />
          </mxGeometry>
        </mxCell>
        <mxCell id="--YtzrklkNBxloeXn2lH-349" value="" style="shape=tableRow;horizontal=0;startSize=0;swimlaneHead=0;swimlaneBody=0;fillColor=none;collapsible=0;dropTarget=0;points=[[0,0.5],[1,0.5]];portConstraint=eastwest;top=0;left=0;right=0;bottom=0;" parent="--YtzrklkNBxloeXn2lH-342" vertex="1">
          <mxGeometry y="90" width="180" height="30" as="geometry" />
        </mxCell>
        <mxCell id="--YtzrklkNBxloeXn2lH-350" value="" style="shape=partialRectangle;connectable=0;fillColor=none;top=0;left=0;bottom=0;right=0;editable=1;overflow=hidden;whiteSpace=wrap;html=1;" parent="--YtzrklkNBxloeXn2lH-349" vertex="1">
          <mxGeometry width="30" height="30" as="geometry">
            <mxRectangle width="30" height="30" as="alternateBounds" />
          </mxGeometry>
        </mxCell>
        <mxCell id="--YtzrklkNBxloeXn2lH-351" value="strEquimentKeyName" style="shape=partialRectangle;connectable=0;fillColor=none;top=0;left=0;bottom=0;right=0;align=left;spacingLeft=6;overflow=hidden;whiteSpace=wrap;html=1;" parent="--YtzrklkNBxloeXn2lH-349" vertex="1">
          <mxGeometry x="30" width="150" height="30" as="geometry">
            <mxRectangle width="150" height="30" as="alternateBounds" />
          </mxGeometry>
        </mxCell>
        <mxCell id="--YtzrklkNBxloeXn2lH-352" value="" style="shape=tableRow;horizontal=0;startSize=0;swimlaneHead=0;swimlaneBody=0;fillColor=none;collapsible=0;dropTarget=0;points=[[0,0.5],[1,0.5]];portConstraint=eastwest;top=0;left=0;right=0;bottom=0;" parent="--YtzrklkNBxloeXn2lH-342" vertex="1">
          <mxGeometry y="120" width="180" height="30" as="geometry" />
        </mxCell>
        <mxCell id="--YtzrklkNBxloeXn2lH-353" value="" style="shape=partialRectangle;connectable=0;fillColor=none;top=0;left=0;bottom=0;right=0;editable=1;overflow=hidden;whiteSpace=wrap;html=1;" parent="--YtzrklkNBxloeXn2lH-352" vertex="1">
          <mxGeometry width="30" height="30" as="geometry">
            <mxRectangle width="30" height="30" as="alternateBounds" />
          </mxGeometry>
        </mxCell>
        <mxCell id="--YtzrklkNBxloeXn2lH-354" value="intEquipmentPrice" style="shape=partialRectangle;connectable=0;fillColor=none;top=0;left=0;bottom=0;right=0;align=left;spacingLeft=6;overflow=hidden;whiteSpace=wrap;html=1;" parent="--YtzrklkNBxloeXn2lH-352" vertex="1">
          <mxGeometry x="30" width="150" height="30" as="geometry">
            <mxRectangle width="150" height="30" as="alternateBounds" />
          </mxGeometry>
        </mxCell>
        <mxCell id="--YtzrklkNBxloeXn2lH-364" value="tblStorage" style="shape=table;startSize=30;container=1;collapsible=1;childLayout=tableLayout;fixedRows=1;rowLines=0;fontStyle=1;align=center;resizeLast=1;html=1;" parent="WIyWlLk6GJQsqaUBKTNV-1" vertex="1">
          <mxGeometry x="-360" y="-1010" width="180" height="180" as="geometry" />
        </mxCell>
        <mxCell id="--YtzrklkNBxloeXn2lH-365" value="" style="shape=tableRow;horizontal=0;startSize=0;swimlaneHead=0;swimlaneBody=0;fillColor=none;collapsible=0;dropTarget=0;points=[[0,0.5],[1,0.5]];portConstraint=eastwest;top=0;left=0;right=0;bottom=1;" parent="--YtzrklkNBxloeXn2lH-364" vertex="1">
          <mxGeometry y="30" width="180" height="30" as="geometry" />
        </mxCell>
        <mxCell id="--YtzrklkNBxloeXn2lH-366" value="PK" style="shape=partialRectangle;connectable=0;fillColor=none;top=0;left=0;bottom=0;right=0;fontStyle=1;overflow=hidden;whiteSpace=wrap;html=1;" parent="--YtzrklkNBxloeXn2lH-365" vertex="1">
          <mxGeometry width="30" height="30" as="geometry">
            <mxRectangle width="30" height="30" as="alternateBounds" />
          </mxGeometry>
        </mxCell>
        <mxCell id="--YtzrklkNBxloeXn2lH-367" value="intEntryID" style="shape=partialRectangle;connectable=0;fillColor=none;top=0;left=0;bottom=0;right=0;align=left;spacingLeft=6;fontStyle=5;overflow=hidden;whiteSpace=wrap;html=1;" parent="--YtzrklkNBxloeXn2lH-365" vertex="1">
          <mxGeometry x="30" width="150" height="30" as="geometry">
            <mxRectangle width="150" height="30" as="alternateBounds" />
          </mxGeometry>
        </mxCell>
        <mxCell id="--YtzrklkNBxloeXn2lH-368" value="" style="shape=tableRow;horizontal=0;startSize=0;swimlaneHead=0;swimlaneBody=0;fillColor=none;collapsible=0;dropTarget=0;points=[[0,0.5],[1,0.5]];portConstraint=eastwest;top=0;left=0;right=0;bottom=0;" parent="--YtzrklkNBxloeXn2lH-364" vertex="1">
          <mxGeometry y="60" width="180" height="30" as="geometry" />
        </mxCell>
        <mxCell id="--YtzrklkNBxloeXn2lH-369" value="FK" style="shape=partialRectangle;connectable=0;fillColor=none;top=0;left=0;bottom=0;right=0;editable=1;overflow=hidden;whiteSpace=wrap;html=1;" parent="--YtzrklkNBxloeXn2lH-368" vertex="1">
          <mxGeometry width="30" height="30" as="geometry">
            <mxRectangle width="30" height="30" as="alternateBounds" />
          </mxGeometry>
        </mxCell>
        <mxCell id="--YtzrklkNBxloeXn2lH-370" value="intEquipmentID" style="shape=partialRectangle;connectable=0;fillColor=none;top=0;left=0;bottom=0;right=0;align=left;spacingLeft=6;overflow=hidden;whiteSpace=wrap;html=1;" parent="--YtzrklkNBxloeXn2lH-368" vertex="1">
          <mxGeometry x="30" width="150" height="30" as="geometry">
            <mxRectangle width="150" height="30" as="alternateBounds" />
          </mxGeometry>
        </mxCell>
        <mxCell id="--YtzrklkNBxloeXn2lH-371" value="" style="shape=tableRow;horizontal=0;startSize=0;swimlaneHead=0;swimlaneBody=0;fillColor=none;collapsible=0;dropTarget=0;points=[[0,0.5],[1,0.5]];portConstraint=eastwest;top=0;left=0;right=0;bottom=0;" parent="--YtzrklkNBxloeXn2lH-364" vertex="1">
          <mxGeometry y="90" width="180" height="30" as="geometry" />
        </mxCell>
        <mxCell id="--YtzrklkNBxloeXn2lH-372" value="" style="shape=partialRectangle;connectable=0;fillColor=none;top=0;left=0;bottom=0;right=0;editable=1;overflow=hidden;whiteSpace=wrap;html=1;" parent="--YtzrklkNBxloeXn2lH-371" vertex="1">
          <mxGeometry width="30" height="30" as="geometry">
            <mxRectangle width="30" height="30" as="alternateBounds" />
          </mxGeometry>
        </mxCell>
        <mxCell id="--YtzrklkNBxloeXn2lH-373" value="fltStoredAmount" style="shape=partialRectangle;connectable=0;fillColor=none;top=0;left=0;bottom=0;right=0;align=left;spacingLeft=6;overflow=hidden;whiteSpace=wrap;html=1;" parent="--YtzrklkNBxloeXn2lH-371" vertex="1">
          <mxGeometry x="30" width="150" height="30" as="geometry">
            <mxRectangle width="150" height="30" as="alternateBounds" />
          </mxGeometry>
        </mxCell>
        <mxCell id="--YtzrklkNBxloeXn2lH-374" value="" style="shape=tableRow;horizontal=0;startSize=0;swimlaneHead=0;swimlaneBody=0;fillColor=none;collapsible=0;dropTarget=0;points=[[0,0.5],[1,0.5]];portConstraint=eastwest;top=0;left=0;right=0;bottom=0;" parent="--YtzrklkNBxloeXn2lH-364" vertex="1">
          <mxGeometry y="120" width="180" height="30" as="geometry" />
        </mxCell>
        <mxCell id="--YtzrklkNBxloeXn2lH-375" value="" style="shape=partialRectangle;connectable=0;fillColor=none;top=0;left=0;bottom=0;right=0;editable=1;overflow=hidden;whiteSpace=wrap;html=1;" parent="--YtzrklkNBxloeXn2lH-374" vertex="1">
          <mxGeometry width="30" height="30" as="geometry">
            <mxRectangle width="30" height="30" as="alternateBounds" />
          </mxGeometry>
        </mxCell>
        <mxCell id="--YtzrklkNBxloeXn2lH-376" value="intMinAmount" style="shape=partialRectangle;connectable=0;fillColor=none;top=0;left=0;bottom=0;right=0;align=left;spacingLeft=6;overflow=hidden;whiteSpace=wrap;html=1;" parent="--YtzrklkNBxloeXn2lH-374" vertex="1">
          <mxGeometry x="30" width="150" height="30" as="geometry">
            <mxRectangle width="150" height="30" as="alternateBounds" />
          </mxGeometry>
        </mxCell>
        <mxCell id="--YtzrklkNBxloeXn2lH-377" value="tblOrder" style="shape=table;startSize=30;container=1;collapsible=1;childLayout=tableLayout;fixedRows=1;rowLines=0;fontStyle=1;align=center;resizeLast=1;html=1;" parent="WIyWlLk6GJQsqaUBKTNV-1" vertex="1">
          <mxGeometry x="-850" y="-690" width="270" height="330" as="geometry" />
        </mxCell>
        <mxCell id="--YtzrklkNBxloeXn2lH-378" value="" style="shape=tableRow;horizontal=0;startSize=0;swimlaneHead=0;swimlaneBody=0;fillColor=none;collapsible=0;dropTarget=0;points=[[0,0.5],[1,0.5]];portConstraint=eastwest;top=0;left=0;right=0;bottom=1;" parent="--YtzrklkNBxloeXn2lH-377" vertex="1">
          <mxGeometry y="30" width="270" height="30" as="geometry" />
        </mxCell>
        <mxCell id="--YtzrklkNBxloeXn2lH-379" value="PK" style="shape=partialRectangle;connectable=0;fillColor=none;top=0;left=0;bottom=0;right=0;fontStyle=1;overflow=hidden;whiteSpace=wrap;html=1;" parent="--YtzrklkNBxloeXn2lH-378" vertex="1">
          <mxGeometry width="30" height="30" as="geometry">
            <mxRectangle width="30" height="30" as="alternateBounds" />
          </mxGeometry>
        </mxCell>
        <mxCell id="--YtzrklkNBxloeXn2lH-380" value="intOrderID" style="shape=partialRectangle;connectable=0;fillColor=none;top=0;left=0;bottom=0;right=0;align=left;spacingLeft=6;fontStyle=5;overflow=hidden;whiteSpace=wrap;html=1;" parent="--YtzrklkNBxloeXn2lH-378" vertex="1">
          <mxGeometry x="30" width="240" height="30" as="geometry">
            <mxRectangle width="240" height="30" as="alternateBounds" />
          </mxGeometry>
        </mxCell>
        <mxCell id="--YtzrklkNBxloeXn2lH-381" value="" style="shape=tableRow;horizontal=0;startSize=0;swimlaneHead=0;swimlaneBody=0;fillColor=none;collapsible=0;dropTarget=0;points=[[0,0.5],[1,0.5]];portConstraint=eastwest;top=0;left=0;right=0;bottom=0;" parent="--YtzrklkNBxloeXn2lH-377" vertex="1">
          <mxGeometry y="60" width="270" height="30" as="geometry" />
        </mxCell>
        <mxCell id="--YtzrklkNBxloeXn2lH-382" value="" style="shape=partialRectangle;connectable=0;fillColor=none;top=0;left=0;bottom=0;right=0;editable=1;overflow=hidden;whiteSpace=wrap;html=1;" parent="--YtzrklkNBxloeXn2lH-381" vertex="1">
          <mxGeometry width="30" height="30" as="geometry">
            <mxRectangle width="30" height="30" as="alternateBounds" />
          </mxGeometry>
        </mxCell>
        <mxCell id="--YtzrklkNBxloeXn2lH-383" value="datContractDate" style="shape=partialRectangle;connectable=0;fillColor=none;top=0;left=0;bottom=0;right=0;align=left;spacingLeft=6;overflow=hidden;whiteSpace=wrap;html=1;" parent="--YtzrklkNBxloeXn2lH-381" vertex="1">
          <mxGeometry x="30" width="240" height="30" as="geometry">
            <mxRectangle width="240" height="30" as="alternateBounds" />
          </mxGeometry>
        </mxCell>
        <mxCell id="--YtzrklkNBxloeXn2lH-384" value="" style="shape=tableRow;horizontal=0;startSize=0;swimlaneHead=0;swimlaneBody=0;fillColor=none;collapsible=0;dropTarget=0;points=[[0,0.5],[1,0.5]];portConstraint=eastwest;top=0;left=0;right=0;bottom=0;" parent="--YtzrklkNBxloeXn2lH-377" vertex="1">
          <mxGeometry y="90" width="270" height="30" as="geometry" />
        </mxCell>
        <mxCell id="--YtzrklkNBxloeXn2lH-385" value="" style="shape=partialRectangle;connectable=0;fillColor=none;top=0;left=0;bottom=0;right=0;editable=1;overflow=hidden;whiteSpace=wrap;html=1;" parent="--YtzrklkNBxloeXn2lH-384" vertex="1">
          <mxGeometry width="30" height="30" as="geometry">
            <mxRectangle width="30" height="30" as="alternateBounds" />
          </mxGeometry>
        </mxCell>
        <mxCell id="--YtzrklkNBxloeXn2lH-386" value="strContractNumber" style="shape=partialRectangle;connectable=0;fillColor=none;top=0;left=0;bottom=0;right=0;align=left;spacingLeft=6;overflow=hidden;whiteSpace=wrap;html=1;" parent="--YtzrklkNBxloeXn2lH-384" vertex="1">
          <mxGeometry x="30" width="240" height="30" as="geometry">
            <mxRectangle width="240" height="30" as="alternateBounds" />
          </mxGeometry>
        </mxCell>
        <mxCell id="--YtzrklkNBxloeXn2lH-387" value="" style="shape=tableRow;horizontal=0;startSize=0;swimlaneHead=0;swimlaneBody=0;fillColor=none;collapsible=0;dropTarget=0;points=[[0,0.5],[1,0.5]];portConstraint=eastwest;top=0;left=0;right=0;bottom=0;" parent="--YtzrklkNBxloeXn2lH-377" vertex="1">
          <mxGeometry y="120" width="270" height="30" as="geometry" />
        </mxCell>
        <mxCell id="--YtzrklkNBxloeXn2lH-388" value="" style="shape=partialRectangle;connectable=0;fillColor=none;top=0;left=0;bottom=0;right=0;editable=1;overflow=hidden;whiteSpace=wrap;html=1;" parent="--YtzrklkNBxloeXn2lH-387" vertex="1">
          <mxGeometry width="30" height="30" as="geometry">
            <mxRectangle width="30" height="30" as="alternateBounds" />
          </mxGeometry>
        </mxCell>
        <mxCell id="--YtzrklkNBxloeXn2lH-389" value="strContractDocumentName" style="shape=partialRectangle;connectable=0;fillColor=none;top=0;left=0;bottom=0;right=0;align=left;spacingLeft=6;overflow=hidden;whiteSpace=wrap;html=1;" parent="--YtzrklkNBxloeXn2lH-387" vertex="1">
          <mxGeometry x="30" width="240" height="30" as="geometry">
            <mxRectangle width="240" height="30" as="alternateBounds" />
          </mxGeometry>
        </mxCell>
        <mxCell id="--YtzrklkNBxloeXn2lH-390" style="shape=tableRow;horizontal=0;startSize=0;swimlaneHead=0;swimlaneBody=0;fillColor=none;collapsible=0;dropTarget=0;points=[[0,0.5],[1,0.5]];portConstraint=eastwest;top=0;left=0;right=0;bottom=0;" parent="--YtzrklkNBxloeXn2lH-377" vertex="1">
          <mxGeometry y="150" width="270" height="30" as="geometry" />
        </mxCell>
        <mxCell id="--YtzrklkNBxloeXn2lH-391" style="shape=partialRectangle;connectable=0;fillColor=none;top=0;left=0;bottom=0;right=0;editable=1;overflow=hidden;whiteSpace=wrap;html=1;" parent="--YtzrklkNBxloeXn2lH-390" vertex="1">
          <mxGeometry width="30" height="30" as="geometry">
            <mxRectangle width="30" height="30" as="alternateBounds" />
          </mxGeometry>
        </mxCell>
        <mxCell id="--YtzrklkNBxloeXn2lH-392" value="strSupplierName" style="shape=partialRectangle;connectable=0;fillColor=none;top=0;left=0;bottom=0;right=0;align=left;spacingLeft=6;overflow=hidden;whiteSpace=wrap;html=1;" parent="--YtzrklkNBxloeXn2lH-390" vertex="1">
          <mxGeometry x="30" width="240" height="30" as="geometry">
            <mxRectangle width="240" height="30" as="alternateBounds" />
          </mxGeometry>
        </mxCell>
        <mxCell id="--YtzrklkNBxloeXn2lH-399" style="shape=tableRow;horizontal=0;startSize=0;swimlaneHead=0;swimlaneBody=0;fillColor=none;collapsible=0;dropTarget=0;points=[[0,0.5],[1,0.5]];portConstraint=eastwest;top=0;left=0;right=0;bottom=0;" parent="--YtzrklkNBxloeXn2lH-377" vertex="1">
          <mxGeometry y="180" width="270" height="30" as="geometry" />
        </mxCell>
        <mxCell id="--YtzrklkNBxloeXn2lH-400" value="FK" style="shape=partialRectangle;connectable=0;fillColor=none;top=0;left=0;bottom=0;right=0;editable=1;overflow=hidden;whiteSpace=wrap;html=1;" parent="--YtzrklkNBxloeXn2lH-399" vertex="1">
          <mxGeometry width="30" height="30" as="geometry">
            <mxRectangle width="30" height="30" as="alternateBounds" />
          </mxGeometry>
        </mxCell>
        <mxCell id="--YtzrklkNBxloeXn2lH-401" value="intEquipmentID" style="shape=partialRectangle;connectable=0;fillColor=none;top=0;left=0;bottom=0;right=0;align=left;spacingLeft=6;overflow=hidden;whiteSpace=wrap;html=1;" parent="--YtzrklkNBxloeXn2lH-399" vertex="1">
          <mxGeometry x="30" width="240" height="30" as="geometry">
            <mxRectangle width="240" height="30" as="alternateBounds" />
          </mxGeometry>
        </mxCell>
        <mxCell id="--YtzrklkNBxloeXn2lH-402" style="shape=tableRow;horizontal=0;startSize=0;swimlaneHead=0;swimlaneBody=0;fillColor=none;collapsible=0;dropTarget=0;points=[[0,0.5],[1,0.5]];portConstraint=eastwest;top=0;left=0;right=0;bottom=0;" parent="--YtzrklkNBxloeXn2lH-377" vertex="1">
          <mxGeometry y="210" width="270" height="30" as="geometry" />
        </mxCell>
        <mxCell id="--YtzrklkNBxloeXn2lH-403" style="shape=partialRectangle;connectable=0;fillColor=none;top=0;left=0;bottom=0;right=0;editable=1;overflow=hidden;whiteSpace=wrap;html=1;" parent="--YtzrklkNBxloeXn2lH-402" vertex="1">
          <mxGeometry width="30" height="30" as="geometry">
            <mxRectangle width="30" height="30" as="alternateBounds" />
          </mxGeometry>
        </mxCell>
        <mxCell id="--YtzrklkNBxloeXn2lH-404" value="intAmount" style="shape=partialRectangle;connectable=0;fillColor=none;top=0;left=0;bottom=0;right=0;align=left;spacingLeft=6;overflow=hidden;whiteSpace=wrap;html=1;" parent="--YtzrklkNBxloeXn2lH-402" vertex="1">
          <mxGeometry x="30" width="240" height="30" as="geometry">
            <mxRectangle width="240" height="30" as="alternateBounds" />
          </mxGeometry>
        </mxCell>
        <mxCell id="--YtzrklkNBxloeXn2lH-405" style="shape=tableRow;horizontal=0;startSize=0;swimlaneHead=0;swimlaneBody=0;fillColor=none;collapsible=0;dropTarget=0;points=[[0,0.5],[1,0.5]];portConstraint=eastwest;top=0;left=0;right=0;bottom=0;" parent="--YtzrklkNBxloeXn2lH-377" vertex="1">
          <mxGeometry y="240" width="270" height="30" as="geometry" />
        </mxCell>
        <mxCell id="--YtzrklkNBxloeXn2lH-406" style="shape=partialRectangle;connectable=0;fillColor=none;top=0;left=0;bottom=0;right=0;editable=1;overflow=hidden;whiteSpace=wrap;html=1;" parent="--YtzrklkNBxloeXn2lH-405" vertex="1">
          <mxGeometry width="30" height="30" as="geometry">
            <mxRectangle width="30" height="30" as="alternateBounds" />
          </mxGeometry>
        </mxCell>
        <mxCell id="--YtzrklkNBxloeXn2lH-407" value="strUnit" style="shape=partialRectangle;connectable=0;fillColor=none;top=0;left=0;bottom=0;right=0;align=left;spacingLeft=6;overflow=hidden;whiteSpace=wrap;html=1;" parent="--YtzrklkNBxloeXn2lH-405" vertex="1">
          <mxGeometry x="30" width="240" height="30" as="geometry">
            <mxRectangle width="240" height="30" as="alternateBounds" />
          </mxGeometry>
        </mxCell>
        <mxCell id="--YtzrklkNBxloeXn2lH-393" style="shape=tableRow;horizontal=0;startSize=0;swimlaneHead=0;swimlaneBody=0;fillColor=none;collapsible=0;dropTarget=0;points=[[0,0.5],[1,0.5]];portConstraint=eastwest;top=0;left=0;right=0;bottom=0;" parent="--YtzrklkNBxloeXn2lH-377" vertex="1">
          <mxGeometry y="270" width="270" height="30" as="geometry" />
        </mxCell>
        <mxCell id="--YtzrklkNBxloeXn2lH-394" style="shape=partialRectangle;connectable=0;fillColor=none;top=0;left=0;bottom=0;right=0;editable=1;overflow=hidden;whiteSpace=wrap;html=1;" parent="--YtzrklkNBxloeXn2lH-393" vertex="1">
          <mxGeometry width="30" height="30" as="geometry">
            <mxRectangle width="30" height="30" as="alternateBounds" />
          </mxGeometry>
        </mxCell>
        <mxCell id="--YtzrklkNBxloeXn2lH-395" value="intOrderTotal" style="shape=partialRectangle;connectable=0;fillColor=none;top=0;left=0;bottom=0;right=0;align=left;spacingLeft=6;overflow=hidden;whiteSpace=wrap;html=1;" parent="--YtzrklkNBxloeXn2lH-393" vertex="1">
          <mxGeometry x="30" width="240" height="30" as="geometry">
            <mxRectangle width="240" height="30" as="alternateBounds" />
          </mxGeometry>
        </mxCell>
        <mxCell id="--YtzrklkNBxloeXn2lH-396" style="shape=tableRow;horizontal=0;startSize=0;swimlaneHead=0;swimlaneBody=0;fillColor=none;collapsible=0;dropTarget=0;points=[[0,0.5],[1,0.5]];portConstraint=eastwest;top=0;left=0;right=0;bottom=0;" parent="--YtzrklkNBxloeXn2lH-377" vertex="1">
          <mxGeometry y="300" width="270" height="30" as="geometry" />
        </mxCell>
        <mxCell id="--YtzrklkNBxloeXn2lH-397" value="FK" style="shape=partialRectangle;connectable=0;fillColor=none;top=0;left=0;bottom=0;right=0;editable=1;overflow=hidden;whiteSpace=wrap;html=1;" parent="--YtzrklkNBxloeXn2lH-396" vertex="1">
          <mxGeometry width="30" height="30" as="geometry">
            <mxRectangle width="30" height="30" as="alternateBounds" />
          </mxGeometry>
        </mxCell>
        <mxCell id="--YtzrklkNBxloeXn2lH-398" value="intOrderStatusID" style="shape=partialRectangle;connectable=0;fillColor=none;top=0;left=0;bottom=0;right=0;align=left;spacingLeft=6;overflow=hidden;whiteSpace=wrap;html=1;" parent="--YtzrklkNBxloeXn2lH-396" vertex="1">
          <mxGeometry x="30" width="240" height="30" as="geometry">
            <mxRectangle width="240" height="30" as="alternateBounds" />
          </mxGeometry>
        </mxCell>
        <mxCell id="--YtzrklkNBxloeXn2lH-408" style="edgeStyle=orthogonalEdgeStyle;rounded=0;orthogonalLoop=1;jettySize=auto;html=1;exitX=1;exitY=0.5;exitDx=0;exitDy=0;entryX=0;entryY=0.5;entryDx=0;entryDy=0;endArrow=ERmandOne;endFill=0;startArrow=ERzeroToMany;startFill=0;" parent="WIyWlLk6GJQsqaUBKTNV-1" source="FsffqcAEG6R-Ss_zpowK-30" target="--YtzrklkNBxloeXn2lH-129" edge="1">
          <mxGeometry relative="1" as="geometry" />
        </mxCell>
        <mxCell id="--YtzrklkNBxloeXn2lH-409" style="edgeStyle=orthogonalEdgeStyle;rounded=0;orthogonalLoop=1;jettySize=auto;html=1;exitX=0;exitY=0.5;exitDx=0;exitDy=0;entryX=0;entryY=0.5;entryDx=0;entryDy=0;endArrow=ERmandOne;endFill=0;startArrow=ERzeroToMany;startFill=0;" parent="WIyWlLk6GJQsqaUBKTNV-1" source="--YtzrklkNBxloeXn2lH-237" target="FsffqcAEG6R-Ss_zpowK-21" edge="1">
          <mxGeometry relative="1" as="geometry">
            <mxPoint x="-795" y="-1570" as="targetPoint" />
            <Array as="points">
              <mxPoint x="-940" y="-1328" />
              <mxPoint x="-940" y="-1575" />
            </Array>
          </mxGeometry>
        </mxCell>
        <mxCell id="--YtzrklkNBxloeXn2lH-410" style="edgeStyle=orthogonalEdgeStyle;rounded=0;orthogonalLoop=1;jettySize=auto;html=1;exitX=0;exitY=0.5;exitDx=0;exitDy=0;entryX=1;entryY=0.5;entryDx=0;entryDy=0;startArrow=ERmany;startFill=0;endArrow=none;endFill=0;" parent="WIyWlLk6GJQsqaUBKTNV-1" source="--YtzrklkNBxloeXn2lH-271" target="--YtzrklkNBxloeXn2lH-275" edge="1">
          <mxGeometry relative="1" as="geometry" />
        </mxCell>
        <mxCell id="--YtzrklkNBxloeXn2lH-411" style="edgeStyle=orthogonalEdgeStyle;rounded=0;orthogonalLoop=1;jettySize=auto;html=1;exitX=1;exitY=0.5;exitDx=0;exitDy=0;entryX=0;entryY=0.5;entryDx=0;entryDy=0;endArrow=none;endFill=0;startArrow=ERmany;startFill=0;" parent="WIyWlLk6GJQsqaUBKTNV-1" source="--YtzrklkNBxloeXn2lH-224" target="--YtzrklkNBxloeXn2lH-306" edge="1">
          <mxGeometry relative="1" as="geometry">
            <Array as="points">
              <mxPoint x="-400" y="-1245" />
              <mxPoint x="-400" y="-1295" />
            </Array>
          </mxGeometry>
        </mxCell>
        <mxCell id="--YtzrklkNBxloeXn2lH-412" style="edgeStyle=orthogonalEdgeStyle;rounded=0;orthogonalLoop=1;jettySize=auto;html=1;exitX=1;exitY=0.5;exitDx=0;exitDy=0;entryX=0;entryY=0.5;entryDx=0;entryDy=0;endArrow=none;endFill=0;startArrow=ERmany;startFill=0;" parent="WIyWlLk6GJQsqaUBKTNV-1" source="--YtzrklkNBxloeXn2lH-162" target="--YtzrklkNBxloeXn2lH-285" edge="1">
          <mxGeometry relative="1" as="geometry">
            <Array as="points">
              <mxPoint x="-400" y="-1215" />
              <mxPoint x="-400" y="-1165" />
            </Array>
          </mxGeometry>
        </mxCell>
        <mxCell id="--YtzrklkNBxloeXn2lH-413" style="edgeStyle=orthogonalEdgeStyle;rounded=0;orthogonalLoop=1;jettySize=auto;html=1;exitX=0;exitY=0.5;exitDx=0;exitDy=0;entryX=0;entryY=0.5;entryDx=0;entryDy=0;endArrow=ERmandOne;endFill=0;startArrow=ERzeroToMany;startFill=0;" parent="WIyWlLk6GJQsqaUBKTNV-1" source="--YtzrklkNBxloeXn2lH-168" target="FsffqcAEG6R-Ss_zpowK-21" edge="1">
          <mxGeometry relative="1" as="geometry">
            <Array as="points">
              <mxPoint x="-670" y="-1155" />
              <mxPoint x="-670" y="-1450" />
              <mxPoint x="-840" y="-1450" />
              <mxPoint x="-840" y="-1575" />
            </Array>
          </mxGeometry>
        </mxCell>
        <mxCell id="--YtzrklkNBxloeXn2lH-415" style="edgeStyle=orthogonalEdgeStyle;rounded=0;orthogonalLoop=1;jettySize=auto;html=1;exitX=0;exitY=0.5;exitDx=0;exitDy=0;entryX=1;entryY=0.5;entryDx=0;entryDy=0;endArrow=none;endFill=0;startArrow=ERmany;startFill=0;" parent="WIyWlLk6GJQsqaUBKTNV-1" source="--YtzrklkNBxloeXn2lH-338" target="--YtzrklkNBxloeXn2lH-299" edge="1">
          <mxGeometry relative="1" as="geometry">
            <Array as="points">
              <mxPoint x="-950" y="-755" />
              <mxPoint x="-950" y="-635" />
            </Array>
          </mxGeometry>
        </mxCell>
        <mxCell id="--YtzrklkNBxloeXn2lH-416" style="edgeStyle=orthogonalEdgeStyle;rounded=0;orthogonalLoop=1;jettySize=auto;html=1;exitX=1;exitY=0.5;exitDx=0;exitDy=0;entryX=0;entryY=0.5;entryDx=0;entryDy=0;endArrow=ERmandOne;endFill=0;startArrow=ERzeroToOne;startFill=0;" parent="WIyWlLk6GJQsqaUBKTNV-1" source="--YtzrklkNBxloeXn2lH-319" target="--YtzrklkNBxloeXn2lH-343" edge="1">
          <mxGeometry relative="1" as="geometry">
            <Array as="points">
              <mxPoint x="-660" y="-875" />
              <mxPoint x="-660" y="-935" />
            </Array>
          </mxGeometry>
        </mxCell>
        <mxCell id="--YtzrklkNBxloeXn2lH-420" style="edgeStyle=orthogonalEdgeStyle;rounded=0;orthogonalLoop=1;jettySize=auto;html=1;exitX=1;exitY=0.5;exitDx=0;exitDy=0;entryX=1;entryY=0.5;entryDx=0;entryDy=0;startArrow=ERoneToMany;startFill=0;endArrow=ERmandOne;endFill=0;" parent="WIyWlLk6GJQsqaUBKTNV-1" source="--YtzrklkNBxloeXn2lH-417" target="--YtzrklkNBxloeXn2lH-231" edge="1">
          <mxGeometry relative="1" as="geometry">
            <Array as="points">
              <mxPoint x="-690" y="-905" />
              <mxPoint x="-690" y="-1355" />
            </Array>
          </mxGeometry>
        </mxCell>
        <mxCell id="--YtzrklkNBxloeXn2lH-421" style="edgeStyle=orthogonalEdgeStyle;rounded=0;orthogonalLoop=1;jettySize=auto;html=1;exitX=0;exitY=0.5;exitDx=0;exitDy=0;entryX=1;entryY=0.5;entryDx=0;entryDy=0;endArrow=ERmandOne;endFill=0;startArrow=ERmandOne;startFill=0;" parent="WIyWlLk6GJQsqaUBKTNV-1" source="--YtzrklkNBxloeXn2lH-368" target="--YtzrklkNBxloeXn2lH-343" edge="1">
          <mxGeometry relative="1" as="geometry" />
        </mxCell>
        <mxCell id="--YtzrklkNBxloeXn2lH-422" style="edgeStyle=orthogonalEdgeStyle;rounded=0;orthogonalLoop=1;jettySize=auto;html=1;exitX=1;exitY=0.5;exitDx=0;exitDy=0;entryX=0;entryY=0.5;entryDx=0;entryDy=0;endArrow=none;endFill=0;startArrow=ERmany;startFill=0;" parent="WIyWlLk6GJQsqaUBKTNV-1" source="--YtzrklkNBxloeXn2lH-396" target="--YtzrklkNBxloeXn2lH-291" edge="1">
          <mxGeometry relative="1" as="geometry" />
        </mxCell>
        <mxCell id="--YtzrklkNBxloeXn2lH-423" style="edgeStyle=orthogonalEdgeStyle;rounded=0;orthogonalLoop=1;jettySize=auto;html=1;exitX=1;exitY=0.5;exitDx=0;exitDy=0;entryX=0;entryY=0.5;entryDx=0;entryDy=0;endArrow=ERmandOne;endFill=0;startArrow=ERzeroToOne;startFill=0;" parent="WIyWlLk6GJQsqaUBKTNV-1" source="--YtzrklkNBxloeXn2lH-399" target="--YtzrklkNBxloeXn2lH-343" edge="1">
          <mxGeometry relative="1" as="geometry">
            <Array as="points">
              <mxPoint x="-550" y="-495" />
              <mxPoint x="-550" y="-710" />
              <mxPoint x="-660" y="-710" />
              <mxPoint x="-660" y="-935" />
            </Array>
          </mxGeometry>
        </mxCell>
        <mxCell id="FsffqcAEG6R-Ss_zpowK-0" value="" style="edgeStyle=orthogonalEdgeStyle;rounded=0;orthogonalLoop=1;jettySize=auto;html=1;" edge="1" parent="WIyWlLk6GJQsqaUBKTNV-1" source="--YtzrklkNBxloeXn2lH-27" target="--YtzrklkNBxloeXn2lH-71">
          <mxGeometry relative="1" as="geometry" />
        </mxCell>
        <mxCell id="FsffqcAEG6R-Ss_zpowK-4" value="strUnit" style="shape=partialRectangle;connectable=0;fillColor=none;top=0;left=0;bottom=0;right=0;align=left;spacingLeft=6;overflow=hidden;whiteSpace=wrap;html=1;" vertex="1" parent="WIyWlLk6GJQsqaUBKTNV-1">
          <mxGeometry x="-330" y="-860" width="150" height="30" as="geometry">
            <mxRectangle width="150" height="30" as="alternateBounds" />
          </mxGeometry>
        </mxCell>
        <mxCell id="FsffqcAEG6R-Ss_zpowK-19" value="" style="endArrow=none;html=1;rounded=0;entryX=0.167;entryY=0.988;entryDx=0;entryDy=0;entryPerimeter=0;" edge="1" parent="WIyWlLk6GJQsqaUBKTNV-1" target="--YtzrklkNBxloeXn2lH-374">
          <mxGeometry width="50" height="50" relative="1" as="geometry">
            <mxPoint x="-330" y="-830" as="sourcePoint" />
            <mxPoint x="-370" y="-840" as="targetPoint" />
          </mxGeometry>
        </mxCell>
        <mxCell id="FsffqcAEG6R-Ss_zpowK-20" value="tblSite" style="shape=table;startSize=30;container=1;collapsible=1;childLayout=tableLayout;fixedRows=1;rowLines=0;fontStyle=1;align=center;resizeLast=1;html=1;" vertex="1" parent="WIyWlLk6GJQsqaUBKTNV-1">
          <mxGeometry x="-800" y="-1620" width="180" height="150" as="geometry" />
        </mxCell>
        <mxCell id="FsffqcAEG6R-Ss_zpowK-21" value="" style="shape=tableRow;horizontal=0;startSize=0;swimlaneHead=0;swimlaneBody=0;fillColor=none;collapsible=0;dropTarget=0;points=[[0,0.5],[1,0.5]];portConstraint=eastwest;top=0;left=0;right=0;bottom=1;" vertex="1" parent="FsffqcAEG6R-Ss_zpowK-20">
          <mxGeometry y="30" width="180" height="30" as="geometry" />
        </mxCell>
        <mxCell id="FsffqcAEG6R-Ss_zpowK-22" value="PK" style="shape=partialRectangle;connectable=0;fillColor=none;top=0;left=0;bottom=0;right=0;fontStyle=1;overflow=hidden;whiteSpace=wrap;html=1;" vertex="1" parent="FsffqcAEG6R-Ss_zpowK-21">
          <mxGeometry width="30" height="30" as="geometry">
            <mxRectangle width="30" height="30" as="alternateBounds" />
          </mxGeometry>
        </mxCell>
        <mxCell id="FsffqcAEG6R-Ss_zpowK-23" value="intSiteID" style="shape=partialRectangle;connectable=0;fillColor=none;top=0;left=0;bottom=0;right=0;align=left;spacingLeft=6;fontStyle=5;overflow=hidden;whiteSpace=wrap;html=1;" vertex="1" parent="FsffqcAEG6R-Ss_zpowK-21">
          <mxGeometry x="30" width="150" height="30" as="geometry">
            <mxRectangle width="150" height="30" as="alternateBounds" />
          </mxGeometry>
        </mxCell>
        <mxCell id="FsffqcAEG6R-Ss_zpowK-24" value="" style="shape=tableRow;horizontal=0;startSize=0;swimlaneHead=0;swimlaneBody=0;fillColor=none;collapsible=0;dropTarget=0;points=[[0,0.5],[1,0.5]];portConstraint=eastwest;top=0;left=0;right=0;bottom=0;" vertex="1" parent="FsffqcAEG6R-Ss_zpowK-20">
          <mxGeometry y="60" width="180" height="30" as="geometry" />
        </mxCell>
        <mxCell id="FsffqcAEG6R-Ss_zpowK-25" value="" style="shape=partialRectangle;connectable=0;fillColor=none;top=0;left=0;bottom=0;right=0;editable=1;overflow=hidden;whiteSpace=wrap;html=1;" vertex="1" parent="FsffqcAEG6R-Ss_zpowK-24">
          <mxGeometry width="30" height="30" as="geometry">
            <mxRectangle width="30" height="30" as="alternateBounds" />
          </mxGeometry>
        </mxCell>
        <mxCell id="FsffqcAEG6R-Ss_zpowK-26" value="strSiteAddress" style="shape=partialRectangle;connectable=0;fillColor=none;top=0;left=0;bottom=0;right=0;align=left;spacingLeft=6;overflow=hidden;whiteSpace=wrap;html=1;" vertex="1" parent="FsffqcAEG6R-Ss_zpowK-24">
          <mxGeometry x="30" width="150" height="30" as="geometry">
            <mxRectangle width="150" height="30" as="alternateBounds" />
          </mxGeometry>
        </mxCell>
        <mxCell id="FsffqcAEG6R-Ss_zpowK-27" value="" style="shape=tableRow;horizontal=0;startSize=0;swimlaneHead=0;swimlaneBody=0;fillColor=none;collapsible=0;dropTarget=0;points=[[0,0.5],[1,0.5]];portConstraint=eastwest;top=0;left=0;right=0;bottom=0;" vertex="1" parent="FsffqcAEG6R-Ss_zpowK-20">
          <mxGeometry y="90" width="180" height="30" as="geometry" />
        </mxCell>
        <mxCell id="FsffqcAEG6R-Ss_zpowK-28" value="" style="shape=partialRectangle;connectable=0;fillColor=none;top=0;left=0;bottom=0;right=0;editable=1;overflow=hidden;whiteSpace=wrap;html=1;" vertex="1" parent="FsffqcAEG6R-Ss_zpowK-27">
          <mxGeometry width="30" height="30" as="geometry">
            <mxRectangle width="30" height="30" as="alternateBounds" />
          </mxGeometry>
        </mxCell>
        <mxCell id="FsffqcAEG6R-Ss_zpowK-29" value="strName" style="shape=partialRectangle;connectable=0;fillColor=none;top=0;left=0;bottom=0;right=0;align=left;spacingLeft=6;overflow=hidden;whiteSpace=wrap;html=1;" vertex="1" parent="FsffqcAEG6R-Ss_zpowK-27">
          <mxGeometry x="30" width="150" height="30" as="geometry">
            <mxRectangle width="150" height="30" as="alternateBounds" />
          </mxGeometry>
        </mxCell>
        <mxCell id="FsffqcAEG6R-Ss_zpowK-30" value="" style="shape=tableRow;horizontal=0;startSize=0;swimlaneHead=0;swimlaneBody=0;fillColor=none;collapsible=0;dropTarget=0;points=[[0,0.5],[1,0.5]];portConstraint=eastwest;top=0;left=0;right=0;bottom=0;" vertex="1" parent="FsffqcAEG6R-Ss_zpowK-20">
          <mxGeometry y="120" width="180" height="30" as="geometry" />
        </mxCell>
        <mxCell id="FsffqcAEG6R-Ss_zpowK-31" value="FK" style="shape=partialRectangle;connectable=0;fillColor=none;top=0;left=0;bottom=0;right=0;editable=1;overflow=hidden;whiteSpace=wrap;html=1;" vertex="1" parent="FsffqcAEG6R-Ss_zpowK-30">
          <mxGeometry width="30" height="30" as="geometry">
            <mxRectangle width="30" height="30" as="alternateBounds" />
          </mxGeometry>
        </mxCell>
        <mxCell id="FsffqcAEG6R-Ss_zpowK-32" value="intClientID" style="shape=partialRectangle;connectable=0;fillColor=none;top=0;left=0;bottom=0;right=0;align=left;spacingLeft=6;overflow=hidden;whiteSpace=wrap;html=1;" vertex="1" parent="FsffqcAEG6R-Ss_zpowK-30">
          <mxGeometry x="30" width="150" height="30" as="geometry">
            <mxRectangle width="150" height="30" as="alternateBounds" />
          </mxGeometry>
        </mxCell>
      </root>
    </mxGraphModel>
  </diagram>
</mxfile>
